CenturySchL-Bold.ufo
<glyph name="exclam" format="1">
  <advance width="296"/>
  <unicode hex="0021"/>
  <outline>
    <contour>
      <point x="177" y="228" type="line"/>
      <point x="181" y="337"/>
      <point x="191" y="414"/>
      <point x="210" y="479" type="curve" smooth="yes"/>
      <point x="242" y="589"/>
      <point x="244" y="598"/>
      <point x="244" y="637" type="curve" smooth="yes"/>
      <point x="244" y="700"/>
      <point x="209" y="737"/>
      <point x="151" y="737" type="curve" smooth="yes"/>
      <point x="92" y="737"/>
      <point x="57" y="700"/>
      <point x="57" y="637" type="curve" smooth="yes"/>
      <point x="57" y="611"/>
      <point x="62" y="578"/>
      <point x="71" y="548" type="curve" smooth="yes"/>
      <point x="111" y="416"/>
      <point x="118" y="373"/>
      <point x="124" y="228" type="curve"/>
    </contour>
    <contour>
      <point x="150" y="172" type="curve" smooth="yes"/>
      <point x="99" y="172"/>
      <point x="57" y="130"/>
      <point x="57" y="79" type="curve" smooth="yes"/>
      <point x="57" y="28"/>
      <point x="99" y="-15"/>
      <point x="149" y="-15" type="curve" smooth="yes"/>
      <point x="202" y="-15"/>
      <point x="244" y="27"/>
      <point x="244" y="79" type="curve" smooth="yes"/>
      <point x="244" y="130"/>
      <point x="202" y="172"/>
    </contour>
  </outline>
</glyph>
<glyph name="quotedbl" format="1">
  <advance width="333"/>
  <unicode hex="0022"/>
  <outline>
    <contour>
      <point x="79" y="416" type="line"/>
      <point x="121" y="635" type="line" smooth="yes"/>
      <point x="123" y="647"/>
      <point x="124" y="658"/>
      <point x="124" y="667" type="curve" smooth="yes"/>
      <point x="124" y="707"/>
      <point x="95" y="737"/>
      <point x="56" y="737" type="curve" smooth="yes"/>
      <point x="17" y="737"/>
      <point x="-12" y="707"/>
      <point x="-12" y="668" type="curve" smooth="yes"/>
      <point x="-12" y="657"/>
      <point x="-11" y="647"/>
      <point x="-9" y="635" type="curve" smooth="yes"/>
      <point x="33" y="416" type="line"/>
    </contour>
    <contour>
      <point x="301" y="416" type="line"/>
      <point x="343" y="635" type="line" smooth="yes"/>
      <point x="345" y="647"/>
      <point x="346" y="658"/>
      <point x="346" y="667" type="curve" smooth="yes"/>
      <point x="346" y="707"/>
      <point x="317" y="737"/>
      <point x="278" y="737" type="curve" smooth="yes"/>
      <point x="239" y="737"/>
      <point x="210" y="707"/>
      <point x="210" y="668" type="curve" smooth="yes"/>
      <point x="210" y="657"/>
      <point x="211" y="647"/>
      <point x="213" y="635" type="curve" smooth="yes"/>
      <point x="255" y="416" type="line"/>
    </contour>
  </outline>
</glyph>
<glyph name="numbersign" format="1">
  <advance width="574"/>
  <unicode hex="0023"/>
  <outline>
    <contour>
      <point x="135" y="220" type="line"/>
      <point x="103" y="0" type="line"/>
      <point x="193" y="0" type="line"/>
      <point x="225" y="220" type="line"/>
      <point x="311" y="220" type="line"/>
      <point x="279" y="0" type="line"/>
      <point x="369" y="0" type="line"/>
      <point x="401" y="220" type="line"/>
      <point x="507" y="220" type="line"/>
      <point x="507" y="303" type="line"/>
      <point x="413" y="303" type="line"/>
      <point x="428" y="411" type="line"/>
      <point x="533" y="411" type="line"/>
      <point x="533" y="494" type="line"/>
      <point x="440" y="494" type="line"/>
      <point x="469" y="700" type="line"/>
      <point x="379" y="700" type="line"/>
      <point x="350" y="494" type="line"/>
      <point x="264" y="494" type="line"/>
      <point x="294" y="700" type="line"/>
      <point x="204" y="700" type="line"/>
      <point x="174" y="494" type="line"/>
      <point x="67" y="494" type="line"/>
      <point x="67" y="411" type="line"/>
      <point x="163" y="411" type="line"/>
      <point x="147" y="303" type="line"/>
      <point x="41" y="303" type="line"/>
      <point x="41" y="220" type="line"/>
    </contour>
    <contour>
      <point x="253" y="411" type="line"/>
      <point x="338" y="411" type="line"/>
      <point x="322" y="303" type="line"/>
      <point x="237" y="303" type="line"/>
    </contour>
  </outline>
</glyph>
<glyph name="dollar" format="1">
  <advance width="574"/>
  <unicode hex="0024"/>
  <outline>
    <contour>
      <point x="319" y="433" type="line"/>
      <point x="319" y="646" type="line"/>
      <point x="370" y="641"/>
      <point x="398" y="627"/>
      <point x="398" y="607" type="curve" smooth="yes"/>
      <point x="398" y="602"/>
      <point x="397" y="599"/>
      <point x="392" y="592" type="curve"/>
      <point x="381" y="574"/>
      <point x="375" y="556"/>
      <point x="375" y="538" type="curve" smooth="yes"/>
      <point x="375" y="498"/>
      <point x="408" y="467"/>
      <point x="451" y="467" type="curve" smooth="yes"/>
      <point x="502" y="467"/>
      <point x="538" y="505"/>
      <point x="538" y="557" type="curve" smooth="yes"/>
      <point x="538" y="636"/>
      <point x="453" y="691"/>
      <point x="319" y="700" type="curve"/>
      <point x="319" y="801" type="line"/>
      <point x="261" y="801" type="line"/>
      <point x="261" y="699" type="line"/>
      <point x="213" y="693"/>
      <point x="194" y="688"/>
      <point x="168" y="675" type="curve" smooth="yes"/>
      <point x="91" y="638"/>
      <point x="45" y="565"/>
      <point x="45" y="480" type="curve" smooth="yes"/>
      <point x="45" y="386"/>
      <point x="100" y="329"/>
      <point x="227" y="290" type="curve" smooth="yes"/>
      <point x="261" y="279" type="line"/>
      <point x="261" y="41" type="line"/>
      <point x="202" y="45"/>
      <point x="150" y="67"/>
      <point x="150" y="89" type="curve" smooth="yes"/>
      <point x="150" y="93"/>
      <point x="152" y="95"/>
      <point x="157" y="100" type="curve"/>
      <point x="178" y="117"/>
      <point x="192" y="147"/>
      <point x="192" y="174" type="curve" smooth="yes"/>
      <point x="192" y="216"/>
      <point x="157" y="247"/>
      <point x="111" y="247" type="curve" smooth="yes"/>
      <point x="61" y="247"/>
      <point x="25" y="208"/>
      <point x="25" y="153" type="curve" smooth="yes"/>
      <point x="25" y="73"/>
      <point x="90" y="16"/>
      <point x="206" y="-7" type="curve" smooth="yes"/>
      <point x="224" y="-11"/>
      <point x="238" y="-12"/>
      <point x="261" y="-14" type="curve"/>
      <point x="261" y="-137" type="line"/>
      <point x="319" y="-137" type="line"/>
      <point x="319" y="-12" type="line"/>
      <point x="466" y="5"/>
      <point x="549" y="86"/>
      <point x="549" y="211" type="curve" smooth="yes"/>
      <point x="549" y="318"/>
      <point x="489" y="381"/>
      <point x="345" y="425" type="curve" smooth="yes"/>
    </contour>
    <contour>
      <point x="261" y="451" type="line"/>
      <point x="248" y="455" type="line" smooth="yes"/>
      <point x="192" y="472"/>
      <point x="165" y="502"/>
      <point x="165" y="549" type="curve" smooth="yes"/>
      <point x="165" y="603"/>
      <point x="197" y="634"/>
      <point x="261" y="645" type="curve"/>
    </contour>
    <contour>
      <point x="319" y="261" type="line"/>
      <point x="329" y="258" type="line" smooth="yes"/>
      <point x="394" y="238"/>
      <point x="424" y="204"/>
      <point x="424" y="149" type="curve" smooth="yes"/>
      <point x="424" y="107"/>
      <point x="400" y="69"/>
      <point x="362" y="54" type="curve" smooth="yes"/>
      <point x="350" y="49"/>
      <point x="339" y="46"/>
      <point x="319" y="44" type="curve"/>
    </contour>
  </outline>
</glyph>
<glyph name="percent" format="1">
  <advance width="833"/>
  <unicode hex="0025"/>
  <outline>
    <contour>
      <point x="651" y="722" type="line"/>
      <point x="605" y="722" type="line"/>
      <point x="561" y="664"/>
      <point x="512" y="641"/>
      <point x="438" y="641" type="curve" smooth="yes"/>
      <point x="401" y="641"/>
      <point x="373" y="647"/>
      <point x="346" y="660" type="curve"/>
      <point x="320" y="694"/>
      <point x="293" y="708"/>
      <point x="252" y="708" type="curve" smooth="yes"/>
      <point x="209" y="708"/>
      <point x="163" y="689"/>
      <point x="123" y="655" type="curve" smooth="yes"/>
      <point x="63" y="603"/>
      <point x="17" y="512"/>
      <point x="17" y="443" type="curve" smooth="yes"/>
      <point x="17" y="369"/>
      <point x="73" y="315"/>
      <point x="150" y="315" type="curve" smooth="yes"/>
      <point x="207" y="315"/>
      <point x="255" y="339"/>
      <point x="299" y="392" type="curve" smooth="yes"/>
      <point x="342" y="443"/>
      <point x="370" y="515"/>
      <point x="370" y="573" type="curve" smooth="yes"/>
      <point x="370" y="581"/>
      <point x="369" y="589"/>
      <point x="367" y="603" type="curve"/>
      <point x="393" y="596"/>
      <point x="408" y="594"/>
      <point x="433" y="594" type="curve" smooth="yes"/>
      <point x="469" y="594"/>
      <point x="493" y="598"/>
      <point x="535" y="612" type="curve"/>
      <point x="186" y="0" type="line"/>
      <point x="237" y="0" type="line"/>
    </contour>
    <contour>
      <point x="266" y="658" type="curve"/>
      <point x="283" y="639"/>
      <point x="298" y="629"/>
      <point x="324" y="620" type="curve"/>
      <point x="328" y="606"/>
      <point x="330" y="595"/>
      <point x="330" y="581" type="curve" smooth="yes"/>
      <point x="330" y="476"/>
      <point x="248" y="362"/>
      <point x="172" y="362" type="curve" smooth="yes"/>
      <point x="142" y="362"/>
      <point x="121" y="384"/>
      <point x="121" y="416" type="curve" smooth="yes"/>
      <point x="121" y="451"/>
      <point x="137" y="492"/>
      <point x="181" y="569" type="curve" smooth="yes"/>
      <point x="217" y="633"/>
      <point x="229" y="645"/>
    </contour>
    <contour>
      <point x="699" y="407" type="curve" smooth="yes"/>
      <point x="639" y="407"/>
      <point x="582" y="376"/>
      <point x="535" y="319" type="curve" smooth="yes"/>
      <point x="493" y="266"/>
      <point x="466" y="197"/>
      <point x="466" y="140" type="curve" smooth="yes"/>
      <point x="466" y="67"/>
      <point x="523" y="14"/>
      <point x="601" y="14" type="curve" smooth="yes"/>
      <point x="654" y="14"/>
      <point x="707" y="42"/>
      <point x="745" y="89" type="curve" smooth="yes"/>
      <point x="791" y="147"/>
      <point x="821" y="223"/>
      <point x="821" y="283" type="curve" smooth="yes"/>
      <point x="821" y="355"/>
      <point x="770" y="407"/>
    </contour>
    <contour>
      <point x="724" y="355" type="curve" smooth="yes"/>
      <point x="756" y="355"/>
      <point x="781" y="321"/>
      <point x="781" y="279" type="curve" smooth="yes"/>
      <point x="781" y="175"/>
      <point x="697" y="61"/>
      <point x="620" y="61" type="curve" smooth="yes"/>
      <point x="592" y="61"/>
      <point x="569" y="84"/>
      <point x="569" y="114" type="curve" smooth="yes"/>
      <point x="569" y="151"/>
      <point x="590" y="202"/>
      <point x="641" y="285" type="curve" smooth="yes"/>
      <point x="671" y="334"/>
      <point x="696" y="355"/>
    </contour>
  </outline>
</glyph>
<glyph name="ampersand" format="1">
  <advance width="852"/>
  <unicode hex="0026"/>
  <outline>
    <contour>
      <point x="797" y="408" type="line"/>
      <point x="524" y="408" type="line"/>
      <point x="524" y="354" type="line"/>
      <point x="587" y="353"/>
      <point x="613" y="339"/>
      <point x="613" y="305" type="curve" smooth="yes"/>
      <point x="613" y="277"/>
      <point x="599" y="247"/>
      <point x="565" y="206" type="curve"/>
      <point x="541" y="232"/>
      <point x="476" y="330"/>
      <point x="425" y="417" type="curve"/>
      <point x="486" y="442"/>
      <point x="511" y="456"/>
      <point x="543" y="481" type="curve" smooth="yes"/>
      <point x="579" y="510"/>
      <point x="600" y="551"/>
      <point x="600" y="594" type="curve" smooth="yes"/>
      <point x="600" y="679"/>
      <point x="527" y="737"/>
      <point x="418" y="737" type="curve" smooth="yes"/>
      <point x="353" y="737"/>
      <point x="300" y="719"/>
      <point x="261" y="684" type="curve" smooth="yes"/>
      <point x="225" y="651"/>
      <point x="202" y="600"/>
      <point x="202" y="551" type="curve" smooth="yes"/>
      <point x="202" y="503"/>
      <point x="212" y="467"/>
      <point x="241" y="407" type="curve"/>
      <point x="203" y="390"/>
      <point x="183" y="380"/>
      <point x="158" y="365" type="curve" smooth="yes"/>
      <point x="81" y="319"/>
      <point x="39" y="254"/>
      <point x="39" y="179" type="curve" smooth="yes"/>
      <point x="39" y="130"/>
      <point x="58" y="84"/>
      <point x="93" y="47" type="curve" smooth="yes"/>
      <point x="132" y="6"/>
      <point x="194" y="-16"/>
      <point x="269" y="-16" type="curve" smooth="yes"/>
      <point x="349" y="-16"/>
      <point x="417" y="6"/>
      <point x="480" y="51" type="curve"/>
      <point x="524" y="7"/>
      <point x="576" y="-15"/>
      <point x="638" y="-15" type="curve" smooth="yes"/>
      <point x="708" y="-15"/>
      <point x="754" y="11"/>
      <point x="792" y="74" type="curve" smooth="yes"/>
      <point x="809" y="103"/>
      <point x="818" y="129"/>
      <point x="822" y="166" type="curve"/>
      <point x="772" y="177" type="line"/>
      <point x="760" y="122"/>
      <point x="737" y="93"/>
      <point x="703" y="93" type="curve" smooth="yes"/>
      <point x="667" y="93"/>
      <point x="635" y="114"/>
      <point x="601" y="159" type="curve"/>
      <point x="629" y="197"/>
      <point x="637" y="211"/>
      <point x="664" y="260" type="curve" smooth="yes"/>
      <point x="703" y="336"/>
      <point x="726" y="352"/>
      <point x="797" y="354" type="curve"/>
    </contour>
    <contour>
      <point x="265" y="357" type="curve"/>
      <point x="308" y="268"/>
      <point x="366" y="179"/>
      <point x="440" y="89" type="curve"/>
      <point x="416" y="72"/>
      <point x="399" y="67"/>
      <point x="374" y="67" type="curve" smooth="yes"/>
      <point x="314" y="67"/>
      <point x="266" y="102"/>
      <point x="232" y="171" type="curve" smooth="yes"/>
      <point x="217" y="201"/>
      <point x="209" y="231"/>
      <point x="209" y="258" type="curve" smooth="yes"/>
      <point x="209" y="301"/>
      <point x="228" y="334"/>
    </contour>
    <contour>
      <point x="397" y="464" type="curve"/>
      <point x="357" y="533"/>
      <point x="342" y="572"/>
      <point x="342" y="610" type="curve" smooth="yes"/>
      <point x="342" y="652"/>
      <point x="372" y="685"/>
      <point x="412" y="685" type="curve" smooth="yes"/>
      <point x="457" y="685"/>
      <point x="490" y="644"/>
      <point x="490" y="589" type="curve" smooth="yes"/>
      <point x="490" y="538"/>
      <point x="463" y="496"/>
      <point x="413" y="471" type="curve"/>
      <point x="408" y="469"/>
      <point x="406" y="468"/>
    </contour>
  </outline>
</glyph>
<glyph name="quotesingle" format="1">
  <advance width="241"/>
  <unicode hex="0027"/>
  <outline>
    <contour>
      <point x="143" y="416" type="line"/>
      <point x="185" y="635" type="line" smooth="yes"/>
      <point x="187" y="647"/>
      <point x="188" y="658"/>
      <point x="188" y="667" type="curve" smooth="yes"/>
      <point x="188" y="707"/>
      <point x="159" y="737"/>
      <point x="120" y="737" type="curve" smooth="yes"/>
      <point x="81" y="737"/>
      <point x="52" y="707"/>
      <point x="52" y="668" type="curve" smooth="yes"/>
      <point x="52" y="657"/>
      <point x="53" y="647"/>
      <point x="55" y="635" type="curve" smooth="yes"/>
      <point x="97" y="416" type="line"/>
    </contour>
  </outline>
</glyph>
<glyph name="parenleft" format="1">
  <advance width="389"/>
  <unicode hex="0028"/>
  <outline>
    <contour>
      <point x="338" y="-68" type="line"/>
      <point x="289" y="-34"/>
      <point x="267" y="-7"/>
      <point x="244" y="41" type="curve" smooth="yes"/>
      <point x="214" y="108"/>
      <point x="197" y="201"/>
      <point x="197" y="309" type="curve" smooth="yes"/>
      <point x="197" y="407"/>
      <point x="210" y="493"/>
      <point x="236" y="558" type="curve" smooth="yes"/>
      <point x="259" y="618"/>
      <point x="284" y="649"/>
      <point x="338" y="687" type="curve"/>
      <point x="338" y="737" type="line"/>
      <point x="271" y="702"/>
      <point x="233" y="673"/>
      <point x="188" y="621" type="curve" smooth="yes"/>
      <point x="113" y="533"/>
      <point x="72" y="424"/>
      <point x="72" y="310" type="curve" smooth="yes"/>
      <point x="72" y="204"/>
      <point x="107" y="101"/>
      <point x="173" y="17" type="curve" smooth="yes"/>
      <point x="220" y="-43"/>
      <point x="265" y="-80"/>
      <point x="338" y="-118" type="curve"/>
    </contour>
  </outline>
</glyph>
<glyph name="parenright" format="1">
  <advance width="389"/>
  <unicode hex="0029"/>
  <outline>
    <contour>
      <point x="50" y="687" type="line"/>
      <point x="99" y="653"/>
      <point x="121" y="626"/>
      <point x="144" y="578" type="curve" smooth="yes"/>
      <point x="174" y="511"/>
      <point x="191" y="418"/>
      <point x="191" y="310" type="curve" smooth="yes"/>
      <point x="191" y="212"/>
      <point x="178" y="126"/>
      <point x="152" y="61" type="curve" smooth="yes"/>
      <point x="129" y="1"/>
      <point x="104" y="-30"/>
      <point x="50" y="-68" type="curve"/>
      <point x="50" y="-118" type="line"/>
      <point x="117" y="-83"/>
      <point x="155" y="-54"/>
      <point x="200" y="-2" type="curve" smooth="yes"/>
      <point x="275" y="86"/>
      <point x="316" y="195"/>
      <point x="316" y="309" type="curve" smooth="yes"/>
      <point x="316" y="415"/>
      <point x="281" y="518"/>
      <point x="215" y="602" type="curve" smooth="yes"/>
      <point x="168" y="662"/>
      <point x="123" y="699"/>
      <point x="50" y="737" type="curve"/>
    </contour>
  </outline>
</glyph>
<glyph name="asterisk" format="1">
  <advance width="500"/>
  <unicode hex="002A"/>
  <outline>
    <contour>
      <point x="239" y="495" type="line"/>
      <point x="239" y="476" type="line" smooth="yes"/>
      <point x="239" y="450"/>
      <point x="235" y="432"/>
      <point x="223" y="409" type="curve" smooth="yes"/>
      <point x="205" y="370"/>
      <point x="203" y="365"/>
      <point x="203" y="350" type="curve" smooth="yes"/>
      <point x="203" y="321"/>
      <point x="225" y="297"/>
      <point x="251" y="297" type="curve" smooth="yes"/>
      <point x="278" y="297"/>
      <point x="299" y="321"/>
      <point x="299" y="351" type="curve" smooth="yes"/>
      <point x="299" y="361"/>
      <point x="296" y="374"/>
      <point x="289" y="387" type="curve"/>
      <point x="266" y="436"/>
      <point x="264" y="444"/>
      <point x="264" y="476" type="curve" smooth="yes"/>
      <point x="264" y="495" type="line"/>
      <point x="280" y="485" type="line" smooth="yes"/>
      <point x="301" y="473"/>
      <point x="317" y="459"/>
      <point x="331" y="439" type="curve" smooth="yes"/>
      <point x="364" y="394"/>
      <point x="375" y="385"/>
      <point x="402" y="385" type="curve" smooth="yes"/>
      <point x="427" y="385"/>
      <point x="447" y="404"/>
      <point x="447" y="429" type="curve" smooth="yes"/>
      <point x="447" y="460"/>
      <point x="421" y="483"/>
      <point x="382" y="486" type="curve" smooth="yes"/>
      <point x="333" y="489"/>
      <point x="324" y="491"/>
      <point x="293" y="508" type="curve" smooth="yes"/>
      <point x="277" y="517" type="line"/>
      <point x="293" y="526" type="line" smooth="yes"/>
      <point x="316" y="539"/>
      <point x="333" y="545"/>
      <point x="359" y="546" type="curve"/>
      <point x="399" y="550"/>
      <point x="402" y="550"/>
      <point x="414" y="555" type="curve"/>
      <point x="434" y="565"/>
      <point x="447" y="583"/>
      <point x="447" y="604" type="curve" smooth="yes"/>
      <point x="447" y="630"/>
      <point x="426" y="650"/>
      <point x="400" y="650" type="curve" smooth="yes"/>
      <point x="378" y="650"/>
      <point x="360" y="639"/>
      <point x="344" y="615" type="curve" smooth="yes"/>
      <point x="316" y="573"/>
      <point x="310" y="567"/>
      <point x="280" y="549" type="curve" smooth="yes"/>
      <point x="264" y="539" type="line"/>
      <point x="264" y="558" type="line" smooth="yes"/>
      <point x="264" y="583"/>
      <point x="268" y="602"/>
      <point x="280" y="625" type="curve" smooth="yes"/>
      <point x="299" y="665"/>
      <point x="300" y="669"/>
      <point x="300" y="683" type="curve" smooth="yes"/>
      <point x="300" y="713"/>
      <point x="278" y="737"/>
      <point x="251" y="737" type="curve" smooth="yes"/>
      <point x="225" y="737"/>
      <point x="203" y="713"/>
      <point x="203" y="684" type="curve" smooth="yes"/>
      <point x="203" y="673"/>
      <point x="206" y="660"/>
      <point x="213" y="647" type="curve" smooth="yes"/>
      <point x="237" y="597"/>
      <point x="239" y="590"/>
      <point x="239" y="558" type="curve" smooth="yes"/>
      <point x="239" y="539" type="line"/>
      <point x="223" y="549" type="line" smooth="yes"/>
      <point x="200" y="562"/>
      <point x="187" y="575"/>
      <point x="172" y="596" type="curve" smooth="yes"/>
      <point x="152" y="626"/>
      <point x="152" y="626"/>
      <point x="144" y="634" type="curve" smooth="yes"/>
      <point x="133" y="644"/>
      <point x="117" y="650"/>
      <point x="104" y="650" type="curve" smooth="yes"/>
      <point x="77" y="650"/>
      <point x="56" y="629"/>
      <point x="56" y="604" type="curve" smooth="yes"/>
      <point x="56" y="573"/>
      <point x="81" y="551"/>
      <point x="120" y="548" type="curve" smooth="yes"/>
      <point x="171" y="545"/>
      <point x="179" y="543"/>
      <point x="210" y="526" type="curve" smooth="yes"/>
      <point x="226" y="517" type="line"/>
      <point x="210" y="507" type="line" smooth="yes"/>
      <point x="189" y="495"/>
      <point x="169" y="489"/>
      <point x="144" y="487" type="curve" smooth="yes"/>
      <point x="105" y="485"/>
      <point x="102" y="484"/>
      <point x="89" y="479" type="curve"/>
      <point x="69" y="470"/>
      <point x="56" y="451"/>
      <point x="56" y="430" type="curve" smooth="yes"/>
      <point x="56" y="405"/>
      <point x="77" y="384"/>
      <point x="103" y="384" type="curve" smooth="yes"/>
      <point x="125" y="384"/>
      <point x="144" y="396"/>
      <point x="159" y="419" type="curve" smooth="yes"/>
      <point x="186" y="459"/>
      <point x="194" y="468"/>
      <point x="223" y="485" type="curve" smooth="yes"/>
    </contour>
  </outline>
</glyph>
<glyph name="plus" format="1">
  <advance width="606"/>
  <unicode hex="002B"/>
  <outline>
    <contour>
      <point x="246" y="195" type="line"/>
      <point x="246" y="0" type="line"/>
      <point x="361" y="0" type="line"/>
      <point x="361" y="195" type="line"/>
      <point x="555" y="195" type="line"/>
      <point x="555" y="310" type="line"/>
      <point x="361" y="310" type="line"/>
      <point x="361" y="505" type="line"/>
      <point x="246" y="505" type="line"/>
      <point x="246" y="310" type="line"/>
      <point x="51" y="310" type="line"/>
      <point x="51" y="195" type="line"/>
    </contour>
  </outline>
</glyph>
<glyph name="comma" format="1">
  <advance width="278"/>
  <unicode hex="002C"/>
  <outline>
    <contour>
      <point x="67" y="-186" type="line"/>
      <point x="178" y="-119"/>
      <point x="236" y="-37"/>
      <point x="236" y="52" type="curve" smooth="yes"/>
      <point x="236" y="124"/>
      <point x="195" y="173"/>
      <point x="135" y="173" type="curve" smooth="yes"/>
      <point x="81" y="173"/>
      <point x="39" y="130"/>
      <point x="39" y="75" type="curve" smooth="yes"/>
      <point x="39" y="26"/>
      <point x="75" y="-11"/>
      <point x="123" y="-11" type="curve" smooth="yes"/>
      <point x="127" y="-11"/>
      <point x="129" y="-11"/>
      <point x="131" y="-10" type="curve"/>
      <point x="135" y="-10" type="line" smooth="yes"/>
      <point x="138" y="-10"/>
      <point x="139" y="-12"/>
      <point x="139" y="-16" type="curve" smooth="yes"/>
      <point x="139" y="-54"/>
      <point x="102" y="-102"/>
      <point x="40" y="-145" type="curve"/>
    </contour>
  </outline>
</glyph>
<glyph name="period" format="1">
  <advance width="278"/>
  <unicode hex="002E"/>
  <outline>
    <contour>
      <point x="139" y="173" type="curve" smooth="yes"/>
      <point x="87" y="173"/>
      <point x="45" y="131"/>
      <point x="45" y="79" type="curve" smooth="yes"/>
      <point x="45" y="28"/>
      <point x="87" y="-15"/>
      <point x="138" y="-15" type="curve" smooth="yes"/>
      <point x="191" y="-15"/>
      <point x="233" y="27"/>
      <point x="233" y="79" type="curve" smooth="yes"/>
      <point x="233" y="131"/>
      <point x="191" y="173"/>
    </contour>
  </outline>
</glyph>
<glyph name="slash" format="1">
  <advance width="278"/>
  <unicode hex="002F"/>
  <outline>
    <contour>
      <point x="228" y="737" type="line"/>
      <point x="-23" y="-15" type="line"/>
      <point x="51" y="-15" type="line"/>
      <point x="302" y="737" type="line"/>
    </contour>
  </outline>
</glyph>
<glyph name="zero" format="1">
  <advance width="574"/>
  <unicode hex="0030"/>
  <outline>
    <contour>
      <point x="287" y="708" type="curve" smooth="yes"/>
      <point x="137" y="708"/>
      <point x="27" y="555"/>
      <point x="27" y="347" type="curve" smooth="yes"/>
      <point x="27" y="139"/>
      <point x="137" y="-14"/>
      <point x="287" y="-14" type="curve" smooth="yes"/>
      <point x="434" y="-14"/>
      <point x="546" y="139"/>
      <point x="546" y="342" type="curve" smooth="yes"/>
      <point x="546" y="460"/>
      <point x="519" y="547"/>
      <point x="460" y="621" type="curve" smooth="yes"/>
      <point x="413" y="678"/>
      <point x="354" y="708"/>
    </contour>
    <contour>
      <point x="286" y="656" type="curve" smooth="yes"/>
      <point x="316" y="656"/>
      <point x="340" y="638"/>
      <point x="351" y="606" type="curve" smooth="yes"/>
      <point x="364" y="573"/>
      <point x="372" y="465"/>
      <point x="372" y="345" type="curve" smooth="yes"/>
      <point x="372" y="243"/>
      <point x="364" y="133"/>
      <point x="355" y="99" type="curve" smooth="yes"/>
      <point x="344" y="59"/>
      <point x="320" y="38"/>
      <point x="286" y="38" type="curve" smooth="yes"/>
      <point x="255" y="38"/>
      <point x="232" y="56"/>
      <point x="220" y="88" type="curve" smooth="yes"/>
      <point x="208" y="121"/>
      <point x="199" y="229"/>
      <point x="199" y="347" type="curve" smooth="yes"/>
      <point x="199" y="449"/>
      <point x="207" y="561"/>
      <point x="216" y="595" type="curve" smooth="yes"/>
      <point x="227" y="635"/>
      <point x="251" y="656"/>
    </contour>
  </outline>
</glyph>
<glyph name="one" format="1">
  <advance width="574"/>
  <unicode hex="0031"/>
  <outline>
    <contour>
      <point x="371" y="708" type="line"/>
      <point x="336" y="708" type="line"/>
      <point x="274" y="661"/>
      <point x="201" y="641"/>
      <point x="83" y="639" type="curve"/>
      <point x="83" y="583" type="line"/>
      <point x="125" y="583" type="line" smooth="yes"/>
      <point x="214" y="582"/>
      <point x="214" y="582"/>
      <point x="214" y="499" type="curve" smooth="yes"/>
      <point x="214" y="144" type="line" smooth="yes"/>
      <point x="214" y="82"/>
      <point x="214" y="77"/>
      <point x="207" y="69" type="curve" smooth="yes"/>
      <point x="198" y="58"/>
      <point x="177" y="54"/>
      <point x="124" y="54" type="curve" smooth="yes"/>
      <point x="92" y="54" type="line"/>
      <point x="92" y="0" type="line"/>
      <point x="491" y="0" type="line"/>
      <point x="491" y="54" type="line"/>
      <point x="459" y="54" type="line" smooth="yes"/>
      <point x="408" y="54"/>
      <point x="386" y="58"/>
      <point x="378" y="69" type="curve"/>
      <point x="371" y="77"/>
      <point x="371" y="81"/>
      <point x="371" y="144" type="curve" smooth="yes"/>
    </contour>
  </outline>
</glyph>
<glyph name="two" format="1">
  <advance width="574"/>
  <unicode hex="0032"/>
  <outline>
    <contour>
      <point x="477" y="266" type="line"/>
      <point x="466" y="216" type="line" smooth="yes"/>
      <point x="457" y="176"/>
      <point x="451" y="163"/>
      <point x="443" y="158" type="curve"/>
      <point x="433" y="151"/>
      <point x="431" y="151"/>
      <point x="368" y="150" type="curve" smooth="yes"/>
      <point x="175" y="150" type="line"/>
      <point x="210" y="180"/>
      <point x="236" y="199"/>
      <point x="275" y="225" type="curve" smooth="yes"/>
      <point x="414" y="315"/>
      <point x="445" y="338"/>
      <point x="474" y="375" type="curve" smooth="yes"/>
      <point x="508" y="420"/>
      <point x="528" y="473"/>
      <point x="528" y="520" type="curve" smooth="yes"/>
      <point x="528" y="627"/>
      <point x="423" y="708"/>
      <point x="282" y="708" type="curve" smooth="yes"/>
      <point x="146" y="708"/>
      <point x="41" y="620"/>
      <point x="41" y="506" type="curve" smooth="yes"/>
      <point x="41" y="436"/>
      <point x="80" y="391"/>
      <point x="140" y="391" type="curve" smooth="yes"/>
      <point x="192" y="391"/>
      <point x="225" y="424"/>
      <point x="225" y="476" type="curve" smooth="yes"/>
      <point x="225" y="519"/>
      <point x="206" y="544"/>
      <point x="160" y="566" type="curve" smooth="yes"/>
      <point x="149" y="571"/>
      <point x="144" y="577"/>
      <point x="144" y="585" type="curve" smooth="yes"/>
      <point x="144" y="617"/>
      <point x="198" y="651"/>
      <point x="248" y="651" type="curve" smooth="yes"/>
      <point x="318" y="651"/>
      <point x="358" y="608"/>
      <point x="358" y="534" type="curve" smooth="yes"/>
      <point x="358" y="451"/>
      <point x="326" y="392"/>
      <point x="220" y="279" type="curve" smooth="yes"/>
      <point x="108" y="161"/>
      <point x="69" y="115"/>
      <point x="19" y="43" type="curve"/>
      <point x="19" y="-4" type="line"/>
      <point x="45" y="-1"/>
      <point x="57" y="0"/>
      <point x="71" y="0" type="curve" smooth="yes"/>
      <point x="447" y="0" type="line" smooth="yes"/>
      <point x="464" y="0"/>
      <point x="478" y="-1"/>
      <point x="508" y="-4" type="curve"/>
      <point x="531" y="266" type="line"/>
    </contour>
  </outline>
</glyph>
<glyph name="three" format="1">
  <advance width="574"/>
  <unicode hex="0033"/>
  <outline>
    <contour>
      <point x="351" y="368" type="curve"/>
      <point x="363" y="371"/>
      <point x="370" y="373"/>
      <point x="377" y="375" type="curve" smooth="yes"/>
      <point x="465" y="400"/>
      <point x="512" y="454"/>
      <point x="512" y="531" type="curve" smooth="yes"/>
      <point x="512" y="637"/>
      <point x="418" y="708"/>
      <point x="276" y="708" type="curve" smooth="yes"/>
      <point x="204" y="708"/>
      <point x="144" y="689"/>
      <point x="102" y="652" type="curve" smooth="yes"/>
      <point x="70" y="623"/>
      <point x="49" y="581"/>
      <point x="49" y="543" type="curve" smooth="yes"/>
      <point x="49" y="491"/>
      <point x="88" y="452"/>
      <point x="140" y="452" type="curve" smooth="yes"/>
      <point x="188" y="452"/>
      <point x="221" y="484"/>
      <point x="221" y="531" type="curve" smooth="yes"/>
      <point x="221" y="558"/>
      <point x="210" y="579"/>
      <point x="181" y="606" type="curve" smooth="yes"/>
      <point x="176" y="611"/>
      <point x="174" y="614"/>
      <point x="174" y="618" type="curve" smooth="yes"/>
      <point x="174" y="637"/>
      <point x="212" y="656"/>
      <point x="250" y="656" type="curve" smooth="yes"/>
      <point x="313" y="656"/>
      <point x="350" y="610"/>
      <point x="350" y="532" type="curve" smooth="yes"/>
      <point x="350" y="446"/>
      <point x="320" y="392"/>
      <point x="273" y="392" type="curve" smooth="yes"/>
      <point x="265" y="392"/>
      <point x="254" y="394"/>
      <point x="238" y="397" type="curve" smooth="yes"/>
      <point x="215" y="402"/>
      <point x="209" y="403"/>
      <point x="197" y="403" type="curve" smooth="yes"/>
      <point x="174" y="403"/>
      <point x="161" y="391"/>
      <point x="161" y="370" type="curve" smooth="yes"/>
      <point x="161" y="348"/>
      <point x="176" y="332"/>
      <point x="197" y="332" type="curve" smooth="yes"/>
      <point x="201" y="332"/>
      <point x="207" y="332"/>
      <point x="213" y="333" type="curve"/>
      <point x="243" y="336"/>
      <point x="259" y="338"/>
      <point x="263" y="338" type="curve" smooth="yes"/>
      <point x="325" y="338"/>
      <point x="356" y="290"/>
      <point x="356" y="196" type="curve" smooth="yes"/>
      <point x="356" y="96"/>
      <point x="314" y="38"/>
      <point x="240" y="38" type="curve" smooth="yes"/>
      <point x="198" y="38"/>
      <point x="154" y="59"/>
      <point x="154" y="80" type="curve" smooth="yes"/>
      <point x="154" y="86"/>
      <point x="157" y="92"/>
      <point x="164" y="98" type="curve"/>
      <point x="194" y="127"/>
      <point x="201" y="140"/>
      <point x="201" y="168" type="curve" smooth="yes"/>
      <point x="201" y="215"/>
      <point x="164" y="251"/>
      <point x="114" y="251" type="curve" smooth="yes"/>
      <point x="61" y="251"/>
      <point x="24" y="212"/>
      <point x="24" y="156" type="curve" smooth="yes"/>
      <point x="24" y="55"/>
      <point x="122" y="-14"/>
      <point x="266" y="-14" type="curve" smooth="yes"/>
      <point x="339" y="-14"/>
      <point x="408" y="4"/>
      <point x="454" y="36" type="curve" smooth="yes"/>
      <point x="500" y="68"/>
      <point x="530" y="129"/>
      <point x="530" y="193" type="curve" smooth="yes"/>
      <point x="530" y="256"/>
      <point x="502" y="311"/>
      <point x="456" y="338" type="curve" smooth="yes"/>
      <point x="428" y="354"/>
      <point x="404" y="361"/>
    </contour>
  </outline>
</glyph>
<glyph name="four" format="1">
  <advance width="574"/>
  <unicode hex="0034"/>
  <outline>
    <contour>
      <point x="446" y="248" type="line"/>
      <point x="446" y="556" type="line" smooth="yes"/>
      <point x="446" y="578"/>
      <point x="448" y="634"/>
      <point x="452" y="708" type="curve"/>
      <point x="383" y="708" type="line"/>
      <point x="19" y="255" type="line"/>
      <point x="19" y="181" type="line"/>
      <point x="289" y="181" type="line"/>
      <point x="289" y="144" type="line" smooth="yes"/>
      <point x="289" y="81"/>
      <point x="289" y="77"/>
      <point x="282" y="68" type="curve" smooth="yes"/>
      <point x="274" y="58"/>
      <point x="251" y="54"/>
      <point x="206" y="54" type="curve" smooth="yes"/>
      <point x="195" y="54" type="line"/>
      <point x="195" y="0" type="line"/>
      <point x="536" y="0" type="line"/>
      <point x="536" y="54" type="line"/>
      <point x="525" y="54" type="line" smooth="yes"/>
      <point x="484" y="54"/>
      <point x="461" y="59"/>
      <point x="453" y="68" type="curve"/>
      <point x="446" y="77"/>
      <point x="446" y="81"/>
      <point x="446" y="144" type="curve" smooth="yes"/>
      <point x="446" y="181" type="line"/>
      <point x="546" y="181" type="line"/>
      <point x="546" y="248" type="line"/>
    </contour>
    <contour>
      <point x="289" y="248" type="line"/>
      <point x="92" y="248" type="line"/>
      <point x="289" y="498" type="line"/>
    </contour>
  </outline>
</glyph>
<glyph name="five" format="1">
  <advance width="574"/>
  <unicode hex="0035"/>
  <outline>
    <contour>
      <point x="157" y="551" type="line"/>
      <point x="204" y="541"/>
      <point x="244" y="536"/>
      <point x="283" y="536" type="curve" smooth="yes"/>
      <point x="366" y="536"/>
      <point x="434" y="564"/>
      <point x="472" y="613" type="curve" smooth="yes"/>
      <point x="491" y="638"/>
      <point x="506" y="675"/>
      <point x="506" y="697" type="curve" smooth="yes"/>
      <point x="506" y="703"/>
      <point x="503" y="708"/>
      <point x="498" y="708" type="curve" smooth="yes"/>
      <point x="494" y="708"/>
      <point x="488" y="707"/>
      <point x="482" y="705" type="curve"/>
      <point x="449" y="697"/>
      <point x="379" y="691"/>
      <point x="301" y="691" type="curve" smooth="yes"/>
      <point x="218" y="691"/>
      <point x="168" y="695"/>
      <point x="106" y="708" type="curve"/>
      <point x="102" y="628"/>
      <point x="96" y="553"/>
      <point x="83" y="380" type="curve"/>
      <point x="61" y="358"/>
      <point x="57" y="351"/>
      <point x="57" y="335" type="curve" smooth="yes"/>
      <point x="57" y="314"/>
      <point x="73" y="298"/>
      <point x="94" y="298" type="curve" smooth="yes"/>
      <point x="116" y="298"/>
      <point x="135" y="316"/>
      <point x="135" y="338" type="curve" smooth="yes"/>
      <point x="135" y="342"/>
      <point x="134" y="348"/>
      <point x="133" y="354" type="curve"/>
      <point x="163" y="379"/>
      <point x="203" y="392"/>
      <point x="244" y="392" type="curve" smooth="yes"/>
      <point x="319" y="392"/>
      <point x="357" y="337"/>
      <point x="357" y="229" type="curve" smooth="yes"/>
      <point x="357" y="108"/>
      <point x="314" y="43"/>
      <point x="234" y="43" type="curve" smooth="yes"/>
      <point x="189" y="43"/>
      <point x="146" y="64"/>
      <point x="146" y="85" type="curve" smooth="yes"/>
      <point x="146" y="91"/>
      <point x="149" y="94"/>
      <point x="158" y="99" type="curve"/>
      <point x="197" y="118"/>
      <point x="212" y="137"/>
      <point x="212" y="171" type="curve" smooth="yes"/>
      <point x="212" y="220"/>
      <point x="178" y="253"/>
      <point x="127" y="253" type="curve" smooth="yes"/>
      <point x="69" y="253"/>
      <point x="31" y="213"/>
      <point x="31" y="151" type="curve" smooth="yes"/>
      <point x="31" y="51"/>
      <point x="121" y="-14"/>
      <point x="259" y="-14" type="curve" smooth="yes"/>
      <point x="423" y="-14"/>
      <point x="535" y="87"/>
      <point x="535" y="234" type="curve" smooth="yes"/>
      <point x="535" y="364"/>
      <point x="430" y="460"/>
      <point x="286" y="460" type="curve" smooth="yes"/>
      <point x="239" y="460"/>
      <point x="208" y="452"/>
      <point x="142" y="422" type="curve"/>
    </contour>
  </outline>
</glyph>
<glyph name="six" format="1">
  <advance width="574"/>
  <unicode hex="0036"/>
  <outline>
    <contour>
      <point x="202" y="361" type="curve"/>
      <point x="202" y="373"/>
      <point x="205" y="418"/>
      <point x="207" y="437" type="curve" smooth="yes"/>
      <point x="221" y="579"/>
      <point x="266" y="656"/>
      <point x="334" y="656" type="curve" smooth="yes"/>
      <point x="359" y="656"/>
      <point x="377" y="647"/>
      <point x="377" y="633" type="curve" smooth="yes"/>
      <point x="377" y="627"/>
      <point x="376" y="623"/>
      <point x="369" y="614" type="curve" smooth="yes"/>
      <point x="356" y="597"/>
      <point x="349" y="575"/>
      <point x="349" y="555" type="curve" smooth="yes"/>
      <point x="349" y="510"/>
      <point x="385" y="478"/>
      <point x="437" y="478" type="curve" smooth="yes"/>
      <point x="494" y="478"/>
      <point x="530" y="513"/>
      <point x="530" y="568" type="curve" smooth="yes"/>
      <point x="530" y="654"/>
      <point x="457" y="708"/>
      <point x="342" y="708" type="curve" smooth="yes"/>
      <point x="247" y="708"/>
      <point x="173" y="671"/>
      <point x="115" y="594" type="curve" smooth="yes"/>
      <point x="56" y="517"/>
      <point x="29" y="425"/>
      <point x="29" y="306" type="curve" smooth="yes"/>
      <point x="29" y="206"/>
      <point x="50" y="135"/>
      <point x="97" y="77" type="curve" smooth="yes"/>
      <point x="146" y="17"/>
      <point x="213" y="-14"/>
      <point x="295" y="-14" type="curve" smooth="yes"/>
      <point x="442" y="-14"/>
      <point x="549" y="86"/>
      <point x="549" y="223" type="curve" smooth="yes"/>
      <point x="549" y="343"/>
      <point x="466" y="427"/>
      <point x="348" y="427" type="curve" smooth="yes"/>
      <point x="284" y="427"/>
      <point x="244" y="409"/>
    </contour>
    <contour>
      <point x="296" y="352" type="curve" smooth="yes"/>
      <point x="348" y="350"/>
      <point x="375" y="302"/>
      <point x="375" y="212" type="curve" smooth="yes"/>
      <point x="375" y="96"/>
      <point x="346" y="33"/>
      <point x="293" y="33" type="curve" smooth="yes"/>
      <point x="239" y="33"/>
      <point x="208" y="91"/>
      <point x="208" y="194" type="curve" smooth="yes"/>
      <point x="208" y="229"/>
      <point x="211" y="261"/>
      <point x="216" y="284" type="curve" smooth="yes"/>
      <point x="227" y="327"/>
      <point x="258" y="354"/>
    </contour>
  </outline>
</glyph>
<glyph name="seven" format="1">
  <advance width="574"/>
  <unicode hex="0037"/>
  <outline>
    <contour>
      <point x="546" y="708" type="line"/>
      <point x="483" y="698"/>
      <point x="421" y="694"/>
      <point x="318" y="694" type="curve" smooth="yes"/>
      <point x="226" y="694"/>
      <point x="178" y="697"/>
      <point x="79" y="708" type="curve"/>
      <point x="45" y="409" type="line"/>
      <point x="100" y="403" type="line"/>
      <point x="110" y="448" type="line" smooth="yes"/>
      <point x="129" y="536"/>
      <point x="136" y="549"/>
      <point x="171" y="549" type="curve" smooth="yes"/>
      <point x="176" y="549"/>
      <point x="182" y="549"/>
      <point x="189" y="548" type="curve"/>
      <point x="222" y="547"/>
      <point x="273" y="545"/>
      <point x="303" y="545" type="curve" smooth="yes"/>
      <point x="307" y="545"/>
      <point x="351" y="546"/>
      <point x="435" y="548" type="curve"/>
      <point x="367" y="447" type="line" smooth="yes"/>
      <point x="287" y="323"/>
      <point x="245" y="256"/>
      <point x="240" y="246" type="curve" smooth="yes"/>
      <point x="203" y="174"/>
      <point x="187" y="125"/>
      <point x="187" y="84" type="curve" smooth="yes"/>
      <point x="187" y="25"/>
      <point x="223" y="-14"/>
      <point x="279" y="-14" type="curve" smooth="yes"/>
      <point x="342" y="-14"/>
      <point x="378" y="25"/>
      <point x="378" y="97" type="curve" smooth="yes"/>
      <point x="378" y="281"/>
      <point x="397" y="349"/>
      <point x="546" y="666" type="curve"/>
    </contour>
  </outline>
</glyph>
<glyph name="eight" format="1">
  <advance width="574"/>
  <unicode hex="0038"/>
  <outline>
    <contour>
      <point x="403" y="411" type="curve"/>
      <point x="431" y="422"/>
      <point x="446" y="429"/>
      <point x="460" y="439" type="curve" smooth="yes"/>
      <point x="499" y="466"/>
      <point x="521" y="507"/>
      <point x="521" y="553" type="curve" smooth="yes"/>
      <point x="521" y="645"/>
      <point x="433" y="708"/>
      <point x="304" y="708" type="curve" smooth="yes"/>
      <point x="149" y="708"/>
      <point x="49" y="624"/>
      <point x="49" y="495" type="curve" smooth="yes"/>
      <point x="49" y="416"/>
      <point x="86" y="358"/>
      <point x="165" y="316" type="curve"/>
      <point x="134" y="306"/>
      <point x="121" y="302"/>
      <point x="104" y="293" type="curve" smooth="yes"/>
      <point x="54" y="267"/>
      <point x="27" y="221"/>
      <point x="27" y="163" type="curve" smooth="yes"/>
      <point x="27" y="55"/>
      <point x="124" y="-14"/>
      <point x="276" y="-14" type="curve" smooth="yes"/>
      <point x="437" y="-14"/>
      <point x="546" y="78"/>
      <point x="546" y="215" type="curve" smooth="yes"/>
      <point x="546" y="309"/>
      <point x="500" y="372"/>
    </contour>
    <contour>
      <point x="352" y="436" type="line"/>
      <point x="350" y="435" type="line"/>
      <point x="349" y="433"/>
      <point x="349" y="433"/>
      <point x="347" y="432" type="curve"/>
      <point x="306" y="442"/>
      <point x="274" y="451"/>
      <point x="255" y="458" type="curve" smooth="yes"/>
      <point x="210" y="475"/>
      <point x="179" y="516"/>
      <point x="179" y="560" type="curve" smooth="yes"/>
      <point x="179" y="615"/>
      <point x="225" y="656"/>
      <point x="287" y="656" type="curve" smooth="yes"/>
      <point x="354" y="656"/>
      <point x="396" y="612"/>
      <point x="396" y="542" type="curve" smooth="yes"/>
      <point x="396" y="501"/>
      <point x="380" y="461"/>
      <point x="354" y="438" type="curve"/>
    </contour>
    <contour>
      <point x="219" y="289" type="curve"/>
      <point x="261" y="277"/>
      <point x="310" y="263"/>
      <point x="335" y="255" type="curve" smooth="yes"/>
      <point x="398" y="233"/>
      <point x="422" y="206"/>
      <point x="422" y="155" type="curve" smooth="yes"/>
      <point x="422" y="87"/>
      <point x="365" y="38"/>
      <point x="287" y="38" type="curve" smooth="yes"/>
      <point x="206" y="38"/>
      <point x="157" y="86"/>
      <point x="157" y="166" type="curve" smooth="yes"/>
      <point x="157" y="220"/>
      <point x="172" y="250"/>
    </contour>
  </outline>
</glyph>
<glyph name="nine" format="1">
  <advance width="574"/>
  <unicode hex="0039"/>
  <outline>
    <contour>
      <point x="369" y="329" type="curve"/>
      <point x="369" y="285"/>
      <point x="369" y="275"/>
      <point x="367" y="251" type="curve" smooth="yes"/>
      <point x="356" y="108"/>
      <point x="312" y="38"/>
      <point x="232" y="38" type="curve" smooth="yes"/>
      <point x="210" y="38"/>
      <point x="198" y="46"/>
      <point x="198" y="58" type="curve" smooth="yes"/>
      <point x="198" y="64"/>
      <point x="200" y="70"/>
      <point x="204" y="76" type="curve" smooth="yes"/>
      <point x="222" y="105"/>
      <point x="224" y="111"/>
      <point x="224" y="133" type="curve" smooth="yes"/>
      <point x="224" y="181"/>
      <point x="190" y="214"/>
      <point x="140" y="214" type="curve" smooth="yes"/>
      <point x="85" y="214"/>
      <point x="45" y="172"/>
      <point x="45" y="114" type="curve" smooth="yes"/>
      <point x="45" y="36"/>
      <point x="118" y="-14"/>
      <point x="231" y="-14" type="curve" smooth="yes"/>
      <point x="334" y="-14"/>
      <point x="417" y="28"/>
      <point x="469" y="107" type="curve" smooth="yes"/>
      <point x="519" y="181"/>
      <point x="545" y="277"/>
      <point x="545" y="386" type="curve" smooth="yes"/>
      <point x="545" y="477"/>
      <point x="525" y="546"/>
      <point x="483" y="603" type="curve" smooth="yes"/>
      <point x="432" y="671"/>
      <point x="359" y="708"/>
      <point x="275" y="708" type="curve" smooth="yes"/>
      <point x="130" y="708"/>
      <point x="25" y="607"/>
      <point x="25" y="468" type="curve" smooth="yes"/>
      <point x="25" y="350"/>
      <point x="109" y="263"/>
      <point x="223" y="263" type="curve" smooth="yes"/>
      <point x="285" y="263"/>
      <point x="327" y="282"/>
    </contour>
    <contour>
      <point x="283" y="656" type="curve" smooth="yes"/>
      <point x="309" y="656"/>
      <point x="331" y="640"/>
      <point x="343" y="611" type="curve" smooth="yes"/>
      <point x="356" y="582"/>
      <point x="365" y="528"/>
      <point x="365" y="482" type="curve" smooth="yes"/>
      <point x="365" y="394"/>
      <point x="333" y="338"/>
      <point x="282" y="338" type="curve" smooth="yes"/>
      <point x="254" y="338"/>
      <point x="227" y="356"/>
      <point x="215" y="381" type="curve" smooth="yes"/>
      <point x="204" y="405"/>
      <point x="198" y="441"/>
      <point x="198" y="491" type="curve" smooth="yes"/>
      <point x="198" y="600"/>
      <point x="227" y="656"/>
    </contour>
  </outline>
</glyph>
<glyph name="colon" format="1">
  <advance width="278"/>
  <unicode hex="003A"/>
  <outline>
    <contour>
      <point x="150" y="172" type="curve" smooth="yes"/>
      <point x="99" y="172"/>
      <point x="57" y="130"/>
      <point x="57" y="79" type="curve" smooth="yes"/>
      <point x="57" y="28"/>
      <point x="99" y="-15"/>
      <point x="149" y="-15" type="curve" smooth="yes"/>
      <point x="202" y="-15"/>
      <point x="244" y="27"/>
      <point x="244" y="79" type="curve" smooth="yes"/>
      <point x="244" y="130"/>
      <point x="202" y="172"/>
    </contour>
    <contour>
      <point x="150" y="481" type="curve" smooth="yes"/>
      <point x="99" y="481"/>
      <point x="57" y="439"/>
      <point x="57" y="388" type="curve" smooth="yes"/>
      <point x="57" y="337"/>
      <point x="99" y="294"/>
      <point x="149" y="294" type="curve" smooth="yes"/>
      <point x="202" y="294"/>
      <point x="244" y="336"/>
      <point x="244" y="388" type="curve" smooth="yes"/>
      <point x="244" y="439"/>
      <point x="202" y="481"/>
    </contour>
  </outline>
</glyph>
<glyph name="semicolon" format="1">
  <advance width="278"/>
  <unicode hex="003B"/>
  <outline>
    <contour>
      <point x="75" y="-185" type="line"/>
      <point x="186" y="-118"/>
      <point x="244" y="-36"/>
      <point x="244" y="53" type="curve" smooth="yes"/>
      <point x="244" y="125"/>
      <point x="203" y="174"/>
      <point x="143" y="174" type="curve" smooth="yes"/>
      <point x="89" y="174"/>
      <point x="47" y="131"/>
      <point x="47" y="75" type="curve" smooth="yes"/>
      <point x="47" y="26"/>
      <point x="83" y="-11"/>
      <point x="131" y="-11" type="curve" smooth="yes"/>
      <point x="135" y="-11"/>
      <point x="137" y="-11"/>
      <point x="139" y="-10" type="curve"/>
      <point x="143" y="-10" type="line" smooth="yes"/>
      <point x="146" y="-10"/>
      <point x="147" y="-12"/>
      <point x="147" y="-16" type="curve" smooth="yes"/>
      <point x="147" y="-54"/>
      <point x="110" y="-101"/>
      <point x="48" y="-145" type="curve"/>
    </contour>
    <contour>
      <point x="145" y="481" type="curve" smooth="yes"/>
      <point x="94" y="481"/>
      <point x="52" y="439"/>
      <point x="52" y="388" type="curve" smooth="yes"/>
      <point x="52" y="337"/>
      <point x="94" y="294"/>
      <point x="144" y="294" type="curve" smooth="yes"/>
      <point x="197" y="294"/>
      <point x="239" y="336"/>
      <point x="239" y="388" type="curve" smooth="yes"/>
      <point x="239" y="439"/>
      <point x="197" y="481"/>
    </contour>
  </outline>
</glyph>
<glyph name="greater" format="1">
  <advance width="606"/>
  <unicode hex="003E"/>
  <outline>
    <contour>
      <point x="48" y="404" type="line"/>
      <point x="376" y="253" type="line"/>
      <point x="48" y="100" type="line"/>
      <point x="48" y="-25" type="line"/>
      <point x="557" y="207" type="line"/>
      <point x="557" y="297" type="line"/>
      <point x="48" y="529" type="line"/>
    </contour>
  </outline>
</glyph>
<glyph name="question" format="1">
  <advance width="500"/>
  <unicode hex="003F"/>
  <outline>
    <contour>
      <point x="254" y="228" type="line"/>
      <point x="257" y="298"/>
      <point x="266" y="315"/>
      <point x="328" y="363" type="curve" smooth="yes"/>
      <point x="405" y="422"/>
      <point x="414" y="429"/>
      <point x="421" y="435" type="curve" smooth="yes"/>
      <point x="456" y="465"/>
      <point x="476" y="511"/>
      <point x="476" y="559" type="curve" smooth="yes"/>
      <point x="476" y="668"/>
      <point x="388" y="737"/>
      <point x="248" y="737" type="curve" smooth="yes"/>
      <point x="116" y="737"/>
      <point x="23" y="673"/>
      <point x="23" y="581" type="curve" smooth="yes"/>
      <point x="23" y="527"/>
      <point x="63" y="488"/>
      <point x="118" y="488" type="curve" smooth="yes"/>
      <point x="169" y="488"/>
      <point x="204" y="521"/>
      <point x="204" y="568" type="curve" smooth="yes"/>
      <point x="204" y="595"/>
      <point x="193" y="617"/>
      <point x="172" y="633" type="curve" smooth="yes"/>
      <point x="154" y="647"/>
      <point x="153" y="648"/>
      <point x="153" y="655" type="curve" smooth="yes"/>
      <point x="153" y="669"/>
      <point x="175" y="680"/>
      <point x="206" y="680" type="curve" smooth="yes"/>
      <point x="266" y="680"/>
      <point x="300" y="640"/>
      <point x="300" y="570" type="curve" smooth="yes"/>
      <point x="300" y="529"/>
      <point x="285" y="478"/>
      <point x="260" y="433" type="curve" smooth="yes"/>
      <point x="205" y="335"/>
      <point x="197" y="315"/>
      <point x="197" y="270" type="curve" smooth="yes"/>
      <point x="197" y="260"/>
      <point x="198" y="244"/>
      <point x="200" y="228" type="curve"/>
    </contour>
    <contour>
      <point x="229" y="173" type="curve" smooth="yes"/>
      <point x="177" y="173"/>
      <point x="135" y="131"/>
      <point x="135" y="79" type="curve" smooth="yes"/>
      <point x="135" y="28"/>
      <point x="177" y="-15"/>
      <point x="228" y="-15" type="curve" smooth="yes"/>
      <point x="281" y="-15"/>
      <point x="323" y="27"/>
      <point x="323" y="79" type="curve" smooth="yes"/>
      <point x="323" y="131"/>
      <point x="281" y="173"/>
    </contour>
  </outline>
</glyph>
<glyph name="at" format="1">
  <advance width="747"/>
  <unicode hex="0040"/>
  <outline>
    <contour>
      <point x="644" y="190" type="line"/>
      <point x="587" y="97"/>
      <point x="496" y="46"/>
      <point x="389" y="46" type="curve" smooth="yes"/>
      <point x="219" y="46"/>
      <point x="88" y="185"/>
      <point x="88" y="366" type="curve" smooth="yes"/>
      <point x="88" y="543"/>
      <point x="216" y="676"/>
      <point x="388" y="676" type="curve" smooth="yes"/>
      <point x="545" y="676"/>
      <point x="658" y="568"/>
      <point x="658" y="419" type="curve" smooth="yes"/>
      <point x="658" y="343"/>
      <point x="632" y="280"/>
      <point x="583" y="239" type="curve" smooth="yes"/>
      <point x="561" y="220"/>
      <point x="538" y="209"/>
      <point x="519" y="209" type="curve" smooth="yes"/>
      <point x="503" y="209"/>
      <point x="495" y="217"/>
      <point x="495" y="231" type="curve" smooth="yes"/>
      <point x="495" y="240"/>
      <point x="498" y="253"/>
      <point x="502" y="268" type="curve" smooth="yes"/>
      <point x="594" y="556" type="line"/>
      <point x="490" y="556" type="line"/>
      <point x="478" y="522" type="line"/>
      <point x="453" y="559"/>
      <point x="429" y="573"/>
      <point x="385" y="573" type="curve" smooth="yes"/>
      <point x="326" y="573"/>
      <point x="268" y="542"/>
      <point x="228" y="488" type="curve" smooth="yes"/>
      <point x="186" y="431"/>
      <point x="160" y="357"/>
      <point x="160" y="294" type="curve" smooth="yes"/>
      <point x="160" y="210"/>
      <point x="217" y="145"/>
      <point x="292" y="145" type="curve" smooth="yes"/>
      <point x="342" y="145"/>
      <point x="378" y="169"/>
      <point x="405" y="220" type="curve"/>
      <point x="404" y="213"/>
      <point x="403" y="207"/>
      <point x="403" y="204" type="curve" smooth="yes"/>
      <point x="403" y="170"/>
      <point x="434" y="148"/>
      <point x="480" y="148" type="curve" smooth="yes"/>
      <point x="606" y="148"/>
      <point x="722" y="281"/>
      <point x="722" y="426" type="curve" smooth="yes"/>
      <point x="722" y="599"/>
      <point x="574" y="737"/>
      <point x="389" y="737" type="curve" smooth="yes"/>
      <point x="186" y="737"/>
      <point x="24" y="570"/>
      <point x="24" y="362" type="curve" smooth="yes"/>
      <point x="24" y="152"/>
      <point x="185" y="-15"/>
      <point x="387" y="-15" type="curve" smooth="yes"/>
      <point x="488" y="-15"/>
      <point x="573" y="21"/>
      <point x="649" y="98" type="curve" smooth="yes"/>
      <point x="681" y="130"/>
      <point x="698" y="153"/>
      <point x="713" y="190" type="curve"/>
    </contour>
    <contour>
      <point x="406" y="521" type="curve" smooth="yes"/>
      <point x="432" y="521"/>
      <point x="453" y="500"/>
      <point x="453" y="476" type="curve" smooth="yes"/>
      <point x="453" y="450"/>
      <point x="420" y="343"/>
      <point x="393" y="280" type="curve" smooth="yes"/>
      <point x="370" y="226"/>
      <point x="341" y="197"/>
      <point x="309" y="197" type="curve" smooth="yes"/>
      <point x="280" y="197"/>
      <point x="263" y="218"/>
      <point x="263" y="256" type="curve" smooth="yes"/>
      <point x="263" y="312"/>
      <point x="285" y="386"/>
      <point x="320" y="448" type="curve" smooth="yes"/>
      <point x="347" y="497"/>
      <point x="375" y="521"/>
    </contour>
  </outline>
</glyph>
<glyph name="A" format="1">
  <advance width="759"/>
  <unicode hex="0041"/>
  <outline>
    <contour>
      <point x="351" y="737" type="line"/>
      <point x="124" y="207" type="line" smooth="yes"/>
      <point x="78" y="99"/>
      <point x="41" y="60"/>
      <point x="-18" y="54" type="curve"/>
      <point x="-18" y="0" type="line"/>
      <point x="271" y="0" type="line"/>
      <point x="271" y="54" type="line"/>
      <point x="199" y="58"/>
      <point x="171" y="77"/>
      <point x="171" y="123" type="curve" smooth="yes"/>
      <point x="171" y="140"/>
      <point x="174" y="151"/>
      <point x="187" y="180" type="curve" smooth="yes"/>
      <point x="203" y="218" type="line"/>
      <point x="452" y="218" type="line"/>
      <point x="490" y="120" type="line" smooth="yes"/>
      <point x="498" y="102"/>
      <point x="502" y="87"/>
      <point x="502" y="79" type="curve" smooth="yes"/>
      <point x="502" y="61"/>
      <point x="489" y="55"/>
      <point x="444" y="55" type="curve"/>
      <point x="427" y="54" type="line"/>
      <point x="427" y="0" type="line"/>
      <point x="778" y="0" type="line"/>
      <point x="778" y="54" type="line"/>
      <point x="721" y="56"/>
      <point x="705" y="66"/>
      <point x="684" y="117" type="curve" smooth="yes"/>
      <point x="427" y="737" type="line"/>
    </contour>
    <contour>
      <point x="330" y="524" type="line"/>
      <point x="427" y="285" type="line"/>
      <point x="229" y="285" type="line"/>
    </contour>
  </outline>
</glyph>
<glyph name="B" format="1">
  <advance width="778"/>
  <unicode hex="0042"/>
  <outline>
    <contour>
      <point x="17" y="722" type="line"/>
      <point x="17" y="668" type="line"/>
      <point x="32" y="668" type="line" smooth="yes"/>
      <point x="84" y="668"/>
      <point x="105" y="664"/>
      <point x="114" y="654" type="curve"/>
      <point x="121" y="645"/>
      <point x="121" y="642"/>
      <point x="121" y="578" type="curve" smooth="yes"/>
      <point x="121" y="144" type="line" smooth="yes"/>
      <point x="121" y="81"/>
      <point x="121" y="77"/>
      <point x="114" y="69" type="curve" smooth="yes"/>
      <point x="105" y="58"/>
      <point x="84" y="54"/>
      <point x="32" y="54" type="curve" smooth="yes"/>
      <point x="17" y="54" type="line"/>
      <point x="17" y="0" type="line"/>
      <point x="422" y="0" type="line" smooth="yes"/>
      <point x="526" y="0"/>
      <point x="579" y="8"/>
      <point x="630" y="30" type="curve" smooth="yes"/>
      <point x="694" y="59"/>
      <point x="736" y="122"/>
      <point x="736" y="189" type="curve" smooth="yes"/>
      <point x="736" y="259"/>
      <point x="696" y="316"/>
      <point x="622" y="349" type="curve" smooth="yes"/>
      <point x="588" y="365"/>
      <point x="558" y="373"/>
      <point x="506" y="380" type="curve"/>
      <point x="555" y="388"/>
      <point x="583" y="395"/>
      <point x="611" y="408" type="curve" smooth="yes"/>
      <point x="671" y="437"/>
      <point x="703" y="485"/>
      <point x="703" y="545" type="curve" smooth="yes"/>
      <point x="703" y="602"/>
      <point x="673" y="655"/>
      <point x="624" y="682" type="curve" smooth="yes"/>
      <point x="569" y="714"/>
      <point x="522" y="722"/>
      <point x="403" y="722" type="curve" smooth="yes"/>
    </contour>
    <contour>
      <point x="301" y="398" type="line"/>
      <point x="301" y="610" type="line" smooth="yes"/>
      <point x="301" y="639"/>
      <point x="303" y="647"/>
      <point x="313" y="655" type="curve"/>
      <point x="323" y="664"/>
      <point x="338" y="668"/>
      <point x="357" y="668" type="curve" smooth="yes"/>
      <point x="387" y="668" type="line" smooth="yes"/>
      <point x="475" y="668"/>
      <point x="522" y="624"/>
      <point x="522" y="541" type="curve" smooth="yes"/>
      <point x="522" y="492"/>
      <point x="505" y="453"/>
      <point x="473" y="428" type="curve" smooth="yes"/>
      <point x="446" y="406"/>
      <point x="412" y="398"/>
      <point x="350" y="398" type="curve" smooth="yes"/>
    </contour>
    <contour>
      <point x="301" y="343" type="line"/>
      <point x="370" y="343" type="line" smooth="yes"/>
      <point x="433" y="343"/>
      <point x="462" y="337"/>
      <point x="490" y="319" type="curve" smooth="yes"/>
      <point x="524" y="296"/>
      <point x="545" y="252"/>
      <point x="545" y="200" type="curve" smooth="yes"/>
      <point x="545" y="152"/>
      <point x="527" y="108"/>
      <point x="498" y="84" type="curve" smooth="yes"/>
      <point x="473" y="63"/>
      <point x="440" y="54"/>
      <point x="392" y="54" type="curve" smooth="yes"/>
      <point x="362" y="54" type="line" smooth="yes"/>
      <point x="327" y="54"/>
      <point x="310" y="60"/>
      <point x="304" y="74" type="curve" smooth="yes"/>
      <point x="301" y="82"/>
      <point x="301" y="85"/>
      <point x="301" y="118" type="curve" smooth="yes"/>
    </contour>
  </outline>
</glyph>
<glyph name="F" format="1">
  <advance width="722"/>
  <unicode hex="0046"/>
  <outline>
    <contour>
      <point x="684" y="722" type="line"/>
      <point x="22" y="722" type="line"/>
      <point x="22" y="668" type="line"/>
      <point x="37" y="668" type="line" smooth="yes"/>
      <point x="89" y="668"/>
      <point x="110" y="664"/>
      <point x="119" y="653" type="curve" smooth="yes"/>
      <point x="126" y="645"/>
      <point x="126" y="641"/>
      <point x="126" y="578" type="curve" smooth="yes"/>
      <point x="126" y="144" type="line" smooth="yes"/>
      <point x="126" y="81"/>
      <point x="126" y="77"/>
      <point x="119" y="69" type="curve" smooth="yes"/>
      <point x="110" y="58"/>
      <point x="89" y="54"/>
      <point x="37" y="54" type="curve" smooth="yes"/>
      <point x="22" y="54" type="line"/>
      <point x="22" y="0" type="line"/>
      <point x="422" y="0" type="line"/>
      <point x="422" y="54" type="line"/>
      <point x="396" y="54" type="line" smooth="yes"/>
      <point x="343" y="54"/>
      <point x="322" y="58"/>
      <point x="313" y="69" type="curve" smooth="yes"/>
      <point x="306" y="77"/>
      <point x="306" y="81"/>
      <point x="306" y="144" type="curve" smooth="yes"/>
      <point x="306" y="346" type="line"/>
      <point x="323" y="346" type="line" smooth="yes"/>
      <point x="402" y="346"/>
      <point x="450" y="296"/>
      <point x="461" y="204" type="curve"/>
      <point x="515" y="204" type="line"/>
      <point x="515" y="543" type="line"/>
      <point x="461" y="543" type="line"/>
      <point x="450" y="450"/>
      <point x="402" y="401"/>
      <point x="323" y="401" type="curve" smooth="yes"/>
      <point x="306" y="401" type="line"/>
      <point x="306" y="582" type="line" smooth="yes"/>
      <point x="306" y="623"/>
      <point x="308" y="634"/>
      <point x="316" y="646" type="curve" smooth="yes"/>
      <point x="327" y="661"/>
      <point x="351" y="668"/>
      <point x="392" y="668" type="curve" smooth="yes"/>
      <point x="411" y="668" type="line" smooth="yes"/>
      <point x="485" y="668"/>
      <point x="546" y="641"/>
      <point x="580" y="594" type="curve" smooth="yes"/>
      <point x="601" y="565"/>
      <point x="623" y="515"/>
      <point x="638" y="462" type="curve"/>
      <point x="690" y="462" type="line"/>
    </contour>
  </outline>
</glyph>
<glyph name="G" format="1">
  <advance width="833"/>
  <unicode hex="0047"/>
  <outline>
    <contour>
      <point x="719" y="733" type="line"/>
      <point x="675" y="733" type="line"/>
      <point x="616" y="683" type="line"/>
      <point x="546" y="723"/>
      <point x="497" y="737"/>
      <point x="425" y="737" type="curve" smooth="yes"/>
      <point x="310" y="737"/>
      <point x="212" y="696"/>
      <point x="138" y="616" type="curve" smooth="yes"/>
      <point x="70" y="544"/>
      <point x="39" y="460"/>
      <point x="39" y="350" type="curve" smooth="yes"/>
      <point x="39" y="134"/>
      <point x="181" y="-15"/>
      <point x="388" y="-15" type="curve" smooth="yes"/>
      <point x="449" y="-15"/>
      <point x="510" y="0"/>
      <point x="556" y="26" type="curve" smooth="yes"/>
      <point x="581" y="41"/>
      <point x="597" y="54"/>
      <point x="626" y="84" type="curve"/>
      <point x="675" y="-14" type="line"/>
      <point x="728" y="-14" type="line"/>
      <point x="728" y="192" type="line" smooth="yes"/>
      <point x="728" y="255"/>
      <point x="728" y="260"/>
      <point x="735" y="268" type="curve" smooth="yes"/>
      <point x="744" y="278"/>
      <point x="760" y="281"/>
      <point x="817" y="282" type="curve"/>
      <point x="817" y="336" type="line"/>
      <point x="462" y="336" type="line"/>
      <point x="462" y="282" type="line"/>
      <point x="473" y="282" type="line" smooth="yes"/>
      <point x="560" y="282"/>
      <point x="564" y="279"/>
      <point x="564" y="206" type="curve" smooth="yes"/>
      <point x="564" y="192" type="line" smooth="yes"/>
      <point x="564" y="98"/>
      <point x="505" y="37"/>
      <point x="416" y="37" type="curve" smooth="yes"/>
      <point x="355" y="37"/>
      <point x="305" y="69"/>
      <point x="280" y="123" type="curve" smooth="yes"/>
      <point x="253" y="181"/>
      <point x="239" y="262"/>
      <point x="239" y="356" type="curve" smooth="yes"/>
      <point x="239" y="462"/>
      <point x="259" y="550"/>
      <point x="296" y="610" type="curve" smooth="yes"/>
      <point x="325" y="657"/>
      <point x="378" y="685"/>
      <point x="437" y="685" type="curve" smooth="yes"/>
      <point x="555" y="685"/>
      <point x="642" y="598"/>
      <point x="675" y="446" type="curve"/>
      <point x="728" y="446" type="line"/>
    </contour>
  </outline>
</glyph>
<glyph name="I" format="1">
  <advance width="444"/>
  <unicode hex="0049"/>
  <outline>
    <contour>
      <point x="132" y="144" type="line" smooth="yes"/>
      <point x="132" y="81"/>
      <point x="132" y="77"/>
      <point x="125" y="69" type="curve" smooth="yes"/>
      <point x="116" y="58"/>
      <point x="95" y="54"/>
      <point x="43" y="54" type="curve" smooth="yes"/>
      <point x="28" y="54" type="line"/>
      <point x="28" y="0" type="line"/>
      <point x="417" y="0" type="line"/>
      <point x="417" y="54" type="line"/>
      <point x="402" y="54" type="line" smooth="yes"/>
      <point x="350" y="54"/>
      <point x="328" y="58"/>
      <point x="319" y="69" type="curve" smooth="yes"/>
      <point x="312" y="77"/>
      <point x="312" y="80"/>
      <point x="312" y="144" type="curve" smooth="yes"/>
      <point x="312" y="578" type="line" smooth="yes"/>
      <point x="312" y="642"/>
      <point x="312" y="645"/>
      <point x="319" y="653" type="curve" smooth="yes"/>
      <point x="328" y="664"/>
      <point x="350" y="668"/>
      <point x="402" y="668" type="curve" smooth="yes"/>
      <point x="417" y="668" type="line"/>
      <point x="417" y="722" type="line"/>
      <point x="28" y="722" type="line"/>
      <point x="28" y="668" type="line"/>
      <point x="43" y="668" type="line" smooth="yes"/>
      <point x="95" y="668"/>
      <point x="116" y="664"/>
      <point x="125" y="653" type="curve" smooth="yes"/>
      <point x="132" y="645"/>
      <point x="132" y="641"/>
      <point x="132" y="578" type="curve" smooth="yes"/>
    </contour>
  </outline>
</glyph>
<glyph name="K" format="1">
  <advance width="815"/>
  <unicode hex="004B"/>
  <outline>
    <contour>
      <point x="383" y="338" type="line"/>
      <point x="523" y="109" type="line" smooth="yes"/>
      <point x="531" y="95"/>
      <point x="535" y="86"/>
      <point x="535" y="77" type="curve" smooth="yes"/>
      <point x="535" y="61"/>
      <point x="513" y="54"/>
      <point x="467" y="54" type="curve" smooth="yes"/>
      <point x="454" y="54" type="line"/>
      <point x="454" y="0" type="line"/>
      <point x="818" y="0" type="line"/>
      <point x="818" y="54" type="line"/>
      <point x="763" y="57"/>
      <point x="759" y="59"/>
      <point x="713" y="131" type="curve" smooth="yes"/>
      <point x="505" y="463" type="line"/>
      <point x="588" y="550" type="line" smooth="yes"/>
      <point x="675" y="635"/>
      <point x="725" y="664"/>
      <point x="791" y="668" type="curve"/>
      <point x="791" y="722" type="line"/>
      <point x="454" y="722" type="line"/>
      <point x="454" y="668" type="line"/>
      <point x="478" y="668" type="line" smooth="yes"/>
      <point x="527" y="668"/>
      <point x="553" y="656"/>
      <point x="553" y="633" type="curve" smooth="yes"/>
      <point x="553" y="622"/>
      <point x="538" y="598"/>
      <point x="520" y="578" type="curve" smooth="yes"/>
      <point x="299" y="344" type="line"/>
      <point x="299" y="578" type="line" smooth="yes"/>
      <point x="299" y="641"/>
      <point x="299" y="645"/>
      <point x="306" y="653" type="curve" smooth="yes"/>
      <point x="315" y="664"/>
      <point x="337" y="668"/>
      <point x="389" y="668" type="curve" smooth="yes"/>
      <point x="404" y="668" type="line"/>
      <point x="404" y="722" type="line"/>
      <point x="15" y="722" type="line"/>
      <point x="15" y="668" type="line"/>
      <point x="30" y="668" type="line" smooth="yes"/>
      <point x="82" y="668"/>
      <point x="103" y="664"/>
      <point x="112" y="653" type="curve" smooth="yes"/>
      <point x="119" y="645"/>
      <point x="119" y="641"/>
      <point x="119" y="578" type="curve" smooth="yes"/>
      <point x="119" y="144" type="line" smooth="yes"/>
      <point x="119" y="81"/>
      <point x="119" y="77"/>
      <point x="112" y="69" type="curve" smooth="yes"/>
      <point x="103" y="58"/>
      <point x="82" y="54"/>
      <point x="30" y="54" type="curve" smooth="yes"/>
      <point x="15" y="54" type="line"/>
      <point x="15" y="0" type="line"/>
      <point x="404" y="0" type="line"/>
      <point x="404" y="54" type="line"/>
      <point x="389" y="54" type="line" smooth="yes"/>
      <point x="337" y="54"/>
      <point x="315" y="58"/>
      <point x="306" y="69" type="curve" smooth="yes"/>
      <point x="299" y="77"/>
      <point x="299" y="81"/>
      <point x="299" y="144" type="curve" smooth="yes"/>
      <point x="299" y="250" type="line"/>
    </contour>
  </outline>
</glyph>
<glyph name="M" format="1">
  <advance width="981"/>
  <unicode hex="004D"/>
  <outline>
    <contour>
      <point x="338" y="722" type="line"/>
      <point x="16" y="722" type="line"/>
      <point x="16" y="668" type="line"/>
      <point x="27" y="668" type="line" smooth="yes"/>
      <point x="80" y="668"/>
      <point x="101" y="664"/>
      <point x="110" y="653" type="curve" smooth="yes"/>
      <point x="117" y="645"/>
      <point x="117" y="641"/>
      <point x="117" y="578" type="curve" smooth="yes"/>
      <point x="117" y="217" type="line" smooth="yes"/>
      <point x="117" y="129"/>
      <point x="112" y="103"/>
      <point x="91" y="81" type="curve" smooth="yes"/>
      <point x="75" y="64"/>
      <point x="48" y="55"/>
      <point x="9" y="54" type="curve"/>
      <point x="9" y="0" type="line"/>
      <point x="294" y="0" type="line"/>
      <point x="294" y="54" type="line"/>
      <point x="254" y="55"/>
      <point x="226" y="64"/>
      <point x="210" y="81" type="curve" smooth="yes"/>
      <point x="189" y="103"/>
      <point x="184" y="128"/>
      <point x="184" y="217" type="curve" smooth="yes"/>
      <point x="184" y="633" type="line"/>
      <point x="411" y="0" type="line"/>
      <point x="463" y="0" type="line"/>
      <point x="684" y="643" type="line"/>
      <point x="684" y="144" type="line" smooth="yes"/>
      <point x="684" y="81"/>
      <point x="684" y="77"/>
      <point x="677" y="69" type="curve" smooth="yes"/>
      <point x="668" y="58"/>
      <point x="647" y="54"/>
      <point x="594" y="54" type="curve" smooth="yes"/>
      <point x="583" y="54" type="line"/>
      <point x="583" y="0" type="line"/>
      <point x="965" y="0" type="line"/>
      <point x="965" y="54" type="line"/>
      <point x="954" y="54" type="line" smooth="yes"/>
      <point x="901" y="54"/>
      <point x="880" y="58"/>
      <point x="871" y="69" type="curve" smooth="yes"/>
      <point x="864" y="77"/>
      <point x="864" y="82"/>
      <point x="864" y="144" type="curve" smooth="yes"/>
      <point x="864" y="578" type="line" smooth="yes"/>
      <point x="864" y="640"/>
      <point x="864" y="645"/>
      <point x="871" y="653" type="curve" smooth="yes"/>
      <point x="880" y="664"/>
      <point x="901" y="668"/>
      <point x="954" y="668" type="curve" smooth="yes"/>
      <point x="965" y="668" type="line"/>
      <point x="965" y="722" type="line"/>
      <point x="639" y="722" type="line"/>
      <point x="493" y="292" type="line"/>
    </contour>
  </outline>
</glyph>
<glyph name="Q" format="1">
  <advance width="833"/>
  <unicode hex="0051"/>
  <outline>
    <contour>
      <point x="472" y="-25" type="line" smooth="yes"/>
      <point x="472" y="-129"/>
      <point x="532" y="-188"/>
      <point x="636" y="-188" type="curve" smooth="yes"/>
      <point x="738" y="-188"/>
      <point x="808" y="-122"/>
      <point x="808" y="-26" type="curve" smooth="yes"/>
      <point x="808" y="-18" type="line"/>
      <point x="754" y="-18" type="line"/>
      <point x="749" y="-74"/>
      <point x="736" y="-95"/>
      <point x="705" y="-95" type="curve" smooth="yes"/>
      <point x="674" y="-95"/>
      <point x="657" y="-68"/>
      <point x="620" y="44" type="curve"/>
      <point x="726" y="114"/>
      <point x="790" y="234"/>
      <point x="790" y="363" type="curve" smooth="yes"/>
      <point x="790" y="571"/>
      <point x="624" y="737"/>
      <point x="416" y="737" type="curve" smooth="yes"/>
      <point x="201" y="737"/>
      <point x="38" y="575"/>
      <point x="38" y="363" type="curve" smooth="yes"/>
      <point x="38" y="266"/>
      <point x="71" y="178"/>
      <point x="134" y="107" type="curve" smooth="yes"/>
      <point x="206" y="25"/>
      <point x="297" y="-15"/>
      <point x="409" y="-15" type="curve" smooth="yes"/>
      <point x="433" y="-15"/>
      <point x="448" y="-14"/>
      <point x="472" y="-10" type="curve"/>
    </contour>
    <contour>
      <point x="565" y="175" type="curve"/>
      <point x="554" y="203"/>
      <point x="548" y="215"/>
      <point x="535" y="231" type="curve" smooth="yes"/>
      <point x="503" y="268"/>
      <point x="454" y="290"/>
      <point x="403" y="290" type="curve" smooth="yes"/>
      <point x="361" y="290"/>
      <point x="321" y="275"/>
      <point x="295" y="250" type="curve" smooth="yes"/>
      <point x="279" y="235"/>
      <point x="271" y="220"/>
      <point x="259" y="189" type="curve"/>
      <point x="245" y="232"/>
      <point x="238" y="296"/>
      <point x="238" y="379" type="curve" smooth="yes"/>
      <point x="238" y="581"/>
      <point x="298" y="685"/>
      <point x="414" y="685" type="curve" smooth="yes"/>
      <point x="477" y="685"/>
      <point x="524" y="653"/>
      <point x="551" y="591" type="curve" smooth="yes"/>
      <point x="576" y="533"/>
      <point x="590" y="455"/>
      <point x="590" y="370" type="curve" smooth="yes"/>
      <point x="590" y="290"/>
      <point x="581" y="217"/>
    </contour>
    <contour>
      <point x="474" y="53" type="curve"/>
      <point x="448" y="40"/>
      <point x="435" y="37"/>
      <point x="411" y="37" type="curve" smooth="yes"/>
      <point x="344" y="37"/>
      <point x="299" y="75"/>
      <point x="299" y="132" type="curve" smooth="yes"/>
      <point x="299" y="191"/>
      <point x="335" y="233"/>
      <point x="387" y="233" type="curve" smooth="yes"/>
      <point x="445" y="233"/>
      <point x="477" y="186"/>
      <point x="477" y="100" type="curve" smooth="yes"/>
      <point x="477" y="90"/>
      <point x="476" y="75"/>
    </contour>
  </outline>
</glyph>
<glyph name="R" format="1">
  <advance width="815"/>
  <unicode hex="0052"/>
  <outline>
    <contour>
      <point x="304" y="347" type="line"/>
      <point x="360" y="347" type="line" smooth="yes"/>
      <point x="403" y="347"/>
      <point x="431" y="337"/>
      <point x="449" y="317" type="curve" smooth="yes"/>
      <point x="465" y="298"/>
      <point x="469" y="286"/>
      <point x="473" y="229" type="curve" smooth="yes"/>
      <point x="479" y="162"/>
      <point x="484" y="120"/>
      <point x="487" y="104" type="curve" smooth="yes"/>
      <point x="504" y="26"/>
      <point x="560" y="-15"/>
      <point x="647" y="-15" type="curve" smooth="yes"/>
      <point x="755" y="-15"/>
      <point x="817" y="46"/>
      <point x="817" y="152" type="curve" smooth="yes"/>
      <point x="817" y="164" type="line"/>
      <point x="763" y="164" type="line"/>
      <point x="762" y="101"/>
      <point x="747" y="69"/>
      <point x="717" y="69" type="curve" smooth="yes"/>
      <point x="706" y="69"/>
      <point x="694" y="75"/>
      <point x="688" y="84" type="curve"/>
      <point x="682" y="92"/>
      <point x="681" y="99"/>
      <point x="676" y="131" type="curve"/>
      <point x="676" y="135"/>
      <point x="674" y="145"/>
      <point x="672" y="159" type="curve" smooth="yes"/>
      <point x="665" y="197" type="line" smooth="yes"/>
      <point x="650" y="287"/>
      <point x="612" y="332"/>
      <point x="525" y="361" type="curve"/>
      <point x="578" y="371"/>
      <point x="604" y="378"/>
      <point x="629" y="390" type="curve" smooth="yes"/>
      <point x="690" y="421"/>
      <point x="725" y="476"/>
      <point x="725" y="541" type="curve" smooth="yes"/>
      <point x="725" y="601"/>
      <point x="696" y="652"/>
      <point x="644" y="686" type="curve" smooth="yes"/>
      <point x="606" y="710"/>
      <point x="539" y="722"/>
      <point x="447" y="722" type="curve" smooth="yes"/>
      <point x="20" y="722" type="line"/>
      <point x="20" y="668" type="line"/>
      <point x="35" y="668" type="line" smooth="yes"/>
      <point x="87" y="668"/>
      <point x="108" y="664"/>
      <point x="117" y="654" type="curve"/>
      <point x="124" y="645"/>
      <point x="124" y="642"/>
      <point x="124" y="578" type="curve" smooth="yes"/>
      <point x="124" y="145" type="line" smooth="yes"/>
      <point x="124" y="81"/>
      <point x="124" y="78"/>
      <point x="117" y="69" type="curve"/>
      <point x="108" y="59"/>
      <point x="87" y="55"/>
      <point x="35" y="55" type="curve" smooth="yes"/>
      <point x="20" y="55" type="line"/>
      <point x="20" y="1" type="line"/>
      <point x="420" y="1" type="line"/>
      <point x="420" y="55" type="line"/>
      <point x="394" y="55" type="line" smooth="yes"/>
      <point x="342" y="55"/>
      <point x="320" y="59"/>
      <point x="311" y="69" type="curve"/>
      <point x="304" y="78"/>
      <point x="304" y="81"/>
      <point x="304" y="145" type="curve" smooth="yes"/>
    </contour>
    <contour>
      <point x="304" y="402" type="line"/>
      <point x="304" y="604" type="line" smooth="yes"/>
      <point x="304" y="661"/>
      <point x="311" y="668"/>
      <point x="375" y="668" type="curve" smooth="yes"/>
      <point x="399" y="668" type="line" smooth="yes"/>
      <point x="492" y="668"/>
      <point x="534" y="627"/>
      <point x="534" y="536" type="curve" smooth="yes"/>
      <point x="534" y="434"/>
      <point x="492" y="402"/>
      <point x="359" y="402" type="curve" smooth="yes"/>
    </contour>
  </outline>
</glyph>
<glyph name="S" format="1">
  <advance width="667"/>
  <unicode hex="0053"/>
  <outline>
    <contour>
      <point x="588" y="729" type="line"/>
      <point x="543" y="729" type="line"/>
      <point x="491" y="683" type="line"/>
      <point x="435" y="721"/>
      <point x="381" y="737"/>
      <point x="311" y="737" type="curve" smooth="yes"/>
      <point x="157" y="737"/>
      <point x="52" y="647"/>
      <point x="52" y="514" type="curve" smooth="yes"/>
      <point x="52" y="392"/>
      <point x="142" y="305"/>
      <point x="299" y="276" type="curve" smooth="yes"/>
      <point x="361" y="264" type="line" smooth="yes"/>
      <point x="425" y="252"/>
      <point x="445" y="247"/>
      <point x="469" y="234" type="curve" smooth="yes"/>
      <point x="497" y="219"/>
      <point x="513" y="189"/>
      <point x="513" y="154" type="curve" smooth="yes"/>
      <point x="513" y="84"/>
      <point x="456" y="37"/>
      <point x="369" y="37" type="curve" smooth="yes"/>
      <point x="256" y="37"/>
      <point x="157" y="126"/>
      <point x="102" y="276" type="curve"/>
      <point x="51" y="276" type="line"/>
      <point x="57" y="-7" type="line"/>
      <point x="102" y="-7" type="line"/>
      <point x="164" y="52" type="line"/>
      <point x="225" y="6"/>
      <point x="289" y="-15"/>
      <point x="369" y="-15" type="curve" smooth="yes"/>
      <point x="525" y="-15"/>
      <point x="633" y="83"/>
      <point x="633" y="223" type="curve" smooth="yes"/>
      <point x="633" y="350"/>
      <point x="558" y="421"/>
      <point x="385" y="459" type="curve" smooth="yes"/>
      <point x="337" y="470" type="line" smooth="yes"/>
      <point x="260" y="485"/>
      <point x="260" y="485"/>
      <point x="235" y="494" type="curve" smooth="yes"/>
      <point x="190" y="510"/>
      <point x="167" y="539"/>
      <point x="167" y="580" type="curve" smooth="yes"/>
      <point x="167" y="641"/>
      <point x="223" y="685"/>
      <point x="302" y="685" type="curve" smooth="yes"/>
      <point x="406" y="685"/>
      <point x="489" y="612"/>
      <point x="548" y="470" type="curve"/>
      <point x="601" y="470" type="line"/>
    </contour>
  </outline>
</glyph>
<glyph name="U" format="1">
  <advance width="833"/>
  <unicode hex="0055"/>
  <outline>
    <contour>
      <point x="299" y="578" type="line" smooth="yes"/>
      <point x="299" y="641"/>
      <point x="299" y="645"/>
      <point x="306" y="653" type="curve" smooth="yes"/>
      <point x="315" y="664"/>
      <point x="337" y="668"/>
      <point x="389" y="668" type="curve" smooth="yes"/>
      <point x="404" y="668" type="line"/>
      <point x="404" y="722" type="line"/>
      <point x="15" y="722" type="line"/>
      <point x="15" y="668" type="line"/>
      <point x="30" y="668" type="line" smooth="yes"/>
      <point x="82" y="668"/>
      <point x="103" y="664"/>
      <point x="112" y="653" type="curve" smooth="yes"/>
      <point x="119" y="645"/>
      <point x="119" y="641"/>
      <point x="119" y="578" type="curve" smooth="yes"/>
      <point x="119" y="261" type="line" smooth="yes"/>
      <point x="119" y="177"/>
      <point x="126" y="135"/>
      <point x="145" y="100" type="curve" smooth="yes"/>
      <point x="186" y="25"/>
      <point x="283" y="-15"/>
      <point x="424" y="-15" type="curve" smooth="yes"/>
      <point x="552" y="-15"/>
      <point x="629" y="19"/>
      <point x="678" y="96" type="curve" smooth="yes"/>
      <point x="706" y="141"/>
      <point x="714" y="186"/>
      <point x="714" y="304" type="curve" smooth="yes"/>
      <point x="714" y="505" type="line" smooth="yes"/>
      <point x="714" y="593"/>
      <point x="719" y="619"/>
      <point x="740" y="641" type="curve" smooth="yes"/>
      <point x="756" y="658"/>
      <point x="784" y="667"/>
      <point x="824" y="668" type="curve"/>
      <point x="824" y="722" type="line"/>
      <point x="539" y="722" type="line"/>
      <point x="539" y="668" type="line"/>
      <point x="578" y="667"/>
      <point x="605" y="658"/>
      <point x="621" y="641" type="curve" smooth="yes"/>
      <point x="642" y="619"/>
      <point x="647" y="594"/>
      <point x="647" y="505" type="curve" smooth="yes"/>
      <point x="647" y="304" type="line" smooth="yes"/>
      <point x="647" y="222"/>
      <point x="643" y="183"/>
      <point x="630" y="155" type="curve" smooth="yes"/>
      <point x="601" y="92"/>
      <point x="543" y="60"/>
      <point x="460" y="60" type="curve" smooth="yes"/>
      <point x="403" y="60"/>
      <point x="360" y="77"/>
      <point x="332" y="109" type="curve" smooth="yes"/>
      <point x="310" y="136"/>
      <point x="299" y="185"/>
      <point x="299" y="258" type="curve" smooth="yes"/>
    </contour>
  </outline>
</glyph>
<glyph name="V" format="1">
  <advance width="759"/>
  <unicode hex="0056"/>
  <outline>
    <contour>
      <point x="429" y="206" type="line"/>
      <point x="270" y="610" type="line" smooth="yes"/>
      <point x="264" y="626"/>
      <point x="261" y="637"/>
      <point x="261" y="643" type="curve" smooth="yes"/>
      <point x="261" y="661"/>
      <point x="279" y="668"/>
      <point x="323" y="668" type="curve" smooth="yes"/>
      <point x="344" y="668" type="line"/>
      <point x="344" y="722" type="line"/>
      <point x="-18" y="722" type="line"/>
      <point x="-18" y="668" type="line"/>
      <point x="41" y="668"/>
      <point x="57" y="657"/>
      <point x="80" y="599" type="curve" smooth="yes"/>
      <point x="323" y="-15" type="line"/>
      <point x="411" y="-15" type="line"/>
      <point x="640" y="541" type="line" smooth="yes"/>
      <point x="672" y="621"/>
      <point x="717" y="662"/>
      <point x="778" y="668" type="curve"/>
      <point x="778" y="722" type="line"/>
      <point x="483" y="722" type="line"/>
      <point x="483" y="668" type="line"/>
      <point x="515" y="668"/>
      <point x="531" y="665"/>
      <point x="545" y="657" type="curve"/>
      <point x="567" y="646"/>
      <point x="580" y="624"/>
      <point x="580" y="600" type="curve" smooth="yes"/>
      <point x="580" y="589"/>
      <point x="577" y="577"/>
      <point x="571" y="562" type="curve" smooth="yes"/>
    </contour>
  </outline>
</glyph>
<glyph name="W" format="1">
  <advance width="981"/>
  <unicode hex="0057"/>
  <outline>
    <contour>
      <point x="711" y="258" type="line"/>
      <point x="604" y="614" type="line" smooth="yes"/>
      <point x="599" y="629"/>
      <point x="598" y="635"/>
      <point x="598" y="641" type="curve" smooth="yes"/>
      <point x="598" y="660"/>
      <point x="610" y="665"/>
      <point x="657" y="668" type="curve"/>
      <point x="657" y="722" type="line"/>
      <point x="361" y="722" type="line"/>
      <point x="361" y="668" type="line"/>
      <point x="400" y="666"/>
      <point x="410" y="658"/>
      <point x="425" y="615" type="curve" smooth="yes"/>
      <point x="461" y="502" type="line"/>
      <point x="381" y="251" type="line"/>
      <point x="265" y="609" type="line" smooth="yes"/>
      <point x="259" y="626"/>
      <point x="257" y="636"/>
      <point x="257" y="643" type="curve" smooth="yes"/>
      <point x="257" y="661"/>
      <point x="269" y="666"/>
      <point x="316" y="668" type="curve"/>
      <point x="316" y="722" type="line"/>
      <point x="6" y="722" type="line"/>
      <point x="6" y="668" type="line"/>
      <point x="8" y="668" type="line" smooth="yes"/>
      <point x="53" y="668"/>
      <point x="66" y="658"/>
      <point x="82" y="610" type="curve" smooth="yes"/>
      <point x="286" y="-15" type="line"/>
      <point x="361" y="-15" type="line"/>
      <point x="493" y="392" type="line"/>
      <point x="618" y="-15" type="line"/>
      <point x="691" y="-15" type="line"/>
      <point x="865" y="534" type="line" smooth="yes"/>
      <point x="894" y="633"/>
      <point x="913" y="656"/>
      <point x="973" y="668" type="curve"/>
      <point x="973" y="722" type="line"/>
      <point x="721" y="722" type="line"/>
      <point x="721" y="668" type="line"/>
      <point x="750" y="667"/>
      <point x="764" y="665"/>
      <point x="777" y="659" type="curve" smooth="yes"/>
      <point x="798" y="649"/>
      <point x="811" y="628"/>
      <point x="811" y="604" type="curve" smooth="yes"/>
      <point x="811" y="590"/>
      <point x="809" y="579"/>
      <point x="798" y="543" type="curve" smooth="yes"/>
    </contour>
  </outline>
</glyph>
<glyph name="X" format="1">
  <advance width="722"/>
  <unicode hex="0058"/>
  <outline>
    <contour>
      <point x="431" y="413" type="line"/>
      <point x="577" y="591" type="line" smooth="yes"/>
      <point x="622" y="644"/>
      <point x="657" y="664"/>
      <point x="709" y="668" type="curve"/>
      <point x="709" y="722" type="line"/>
      <point x="401" y="722" type="line"/>
      <point x="401" y="668" type="line"/>
      <point x="464" y="668"/>
      <point x="497" y="650"/>
      <point x="497" y="617" type="curve" smooth="yes"/>
      <point x="497" y="601"/>
      <point x="487" y="581"/>
      <point x="463" y="553" type="curve" smooth="yes"/>
      <point x="393" y="467" type="line"/>
      <point x="288" y="618" type="line" smooth="yes"/>
      <point x="281" y="628"/>
      <point x="278" y="636"/>
      <point x="278" y="644" type="curve" smooth="yes"/>
      <point x="278" y="663"/>
      <point x="287" y="666"/>
      <point x="346" y="668" type="curve"/>
      <point x="346" y="722" type="line"/>
      <point x="-12" y="722" type="line"/>
      <point x="-12" y="668" type="line"/>
      <point x="32" y="665"/>
      <point x="46" y="657"/>
      <point x="74" y="617" type="curve" smooth="yes"/>
      <point x="279" y="325" type="line"/>
      <point x="132" y="144" type="line" smooth="yes"/>
      <point x="74" y="73"/>
      <point x="46" y="56"/>
      <point x="-12" y="54" type="curve"/>
      <point x="-12" y="0" type="line"/>
      <point x="319" y="0" type="line"/>
      <point x="319" y="54" type="line"/>
      <point x="243" y="56"/>
      <point x="211" y="71"/>
      <point x="211" y="106" type="curve" smooth="yes"/>
      <point x="211" y="122"/>
      <point x="218" y="140"/>
      <point x="231" y="156" type="curve" smooth="yes"/>
      <point x="319" y="268" type="line"/>
      <point x="428" y="112" type="line"/>
      <point x="436" y="102"/>
      <point x="441" y="88"/>
      <point x="441" y="78" type="curve" smooth="yes"/>
      <point x="441" y="61"/>
      <point x="425" y="55"/>
      <point x="375" y="54" type="curve"/>
      <point x="375" y="0" type="line"/>
      <point x="735" y="0" type="line"/>
      <point x="735" y="54" type="line"/>
      <point x="682" y="56"/>
      <point x="670" y="65"/>
      <point x="608" y="155" type="curve" smooth="yes"/>
    </contour>
  </outline>
</glyph>
<glyph name="Z" format="1">
  <advance width="667"/>
  <unicode hex="005A"/>
  <outline>
    <contour>
      <point x="634" y="722" type="line"/>
      <point x="61" y="722" type="line"/>
      <point x="49" y="470" type="line"/>
      <point x="100" y="470" type="line"/>
      <point x="117" y="524"/>
      <point x="132" y="556"/>
      <point x="154" y="586" type="curve" smooth="yes"/>
      <point x="198" y="648"/>
      <point x="245" y="667"/>
      <point x="351" y="667" type="curve" smooth="yes"/>
      <point x="425" y="667" type="line"/>
      <point x="24" y="58" type="line"/>
      <point x="24" y="0" type="line"/>
      <point x="618" y="0" type="line"/>
      <point x="634" y="276" type="line"/>
      <point x="581" y="276" type="line"/>
      <point x="563" y="180"/>
      <point x="516" y="107"/>
      <point x="452" y="75" type="curve" smooth="yes"/>
      <point x="421" y="59"/>
      <point x="393" y="55"/>
      <point x="322" y="55" type="curve" smooth="yes"/>
      <point x="233" y="55" type="line"/>
      <point x="634" y="666" type="line"/>
    </contour>
  </outline>
</glyph>
<glyph name="bracketleft" format="1">
  <advance width="389"/>
  <unicode hex="005B"/>
  <outline>
    <contour>
      <point x="339" y="722" type="line"/>
      <point x="84" y="722" type="line"/>
      <point x="84" y="-108" type="line"/>
      <point x="339" y="-108" type="line"/>
      <point x="339" y="-58" type="line"/>
      <point x="207" y="-58" type="line"/>
      <point x="207" y="672" type="line"/>
      <point x="339" y="672" type="line"/>
    </contour>
  </outline>
</glyph>
<glyph name="backslash" format="1">
  <advance width="606"/>
  <unicode hex="005C"/>
  <outline>
    <contour>
      <point x="124" y="737" type="line"/>
      <point x="50" y="737" type="line"/>
      <point x="481" y="0" type="line"/>
      <point x="555" y="0" type="line"/>
    </contour>
  </outline>
</glyph>
<glyph name="bracketright" format="1">
  <advance width="389"/>
  <unicode hex="005D"/>
  <outline>
    <contour>
      <point x="31" y="-108" type="line"/>
      <point x="286" y="-108" type="line"/>
      <point x="286" y="722" type="line"/>
      <point x="31" y="722" type="line"/>
      <point x="31" y="672" type="line"/>
      <point x="163" y="672" type="line"/>
      <point x="163" y="-58" type="line"/>
      <point x="31" y="-58" type="line"/>
    </contour>
  </outline>
</glyph>
<glyph name="grave" format="1">
  <advance width="333"/>
  <unicode hex="0060"/>
  <outline>
    <contour>
      <point x="249" y="545" type="line"/>
      <point x="136" y="683" type="line" smooth="yes"/>
      <point x="113" y="712"/>
      <point x="113" y="712"/>
      <point x="107" y="716" type="curve"/>
      <point x="92" y="728"/>
      <point x="76" y="734"/>
      <point x="59" y="734" type="curve" smooth="yes"/>
      <point x="27" y="734"/>
      <point x="2" y="712"/>
      <point x="2" y="684" type="curve" smooth="yes"/>
      <point x="2" y="664"/>
      <point x="14" y="646"/>
      <point x="38" y="632" type="curve" smooth="yes"/>
      <point x="185" y="545" type="line"/>
    </contour>
  </outline>
</glyph>
<glyph name="a" format="1">
  <advance width="611"/>
  <unicode hex="0061"/>
  <outline>
    <contour>
      <point x="516" y="318" type="line" smooth="yes"/>
      <point x="516" y="383"/>
      <point x="504" y="414"/>
      <point x="469" y="442" type="curve" smooth="yes"/>
      <point x="432" y="472"/>
      <point x="369" y="488"/>
      <point x="291" y="488" type="curve" smooth="yes"/>
      <point x="153" y="488"/>
      <point x="63" y="437"/>
      <point x="63" y="359" type="curve" smooth="yes"/>
      <point x="63" y="316"/>
      <point x="98" y="284"/>
      <point x="144" y="284" type="curve" smooth="yes"/>
      <point x="190" y="284"/>
      <point x="226" y="312"/>
      <point x="226" y="349" type="curve" smooth="yes"/>
      <point x="226" y="361"/>
      <point x="221" y="375"/>
      <point x="212" y="387" type="curve" smooth="yes"/>
      <point x="203" y="398"/>
      <point x="203" y="399"/>
      <point x="203" y="404" type="curve" smooth="yes"/>
      <point x="203" y="421"/>
      <point x="237" y="436"/>
      <point x="277" y="436" type="curve" smooth="yes"/>
      <point x="337" y="436"/>
      <point x="359" y="410"/>
      <point x="359" y="341" type="curve" smooth="yes"/>
      <point x="359" y="289" type="line"/>
      <point x="348" y="286"/>
      <point x="335" y="283"/>
      <point x="326" y="282" type="curve"/>
      <point x="225" y="260"/>
      <point x="190" y="251"/>
      <point x="143" y="232" type="curve" smooth="yes"/>
      <point x="70" y="202"/>
      <point x="36" y="162"/>
      <point x="36" y="102" type="curve" smooth="yes"/>
      <point x="36" y="28"/>
      <point x="93" y="-15"/>
      <point x="190" y="-15" type="curve" smooth="yes"/>
      <point x="276" y="-15"/>
      <point x="328" y="4"/>
      <point x="381" y="56" type="curve"/>
      <point x="398" y="11"/>
      <point x="436" y="-15"/>
      <point x="487" y="-15" type="curve" smooth="yes"/>
      <point x="544" y="-15"/>
      <point x="597" y="25"/>
      <point x="597" y="68" type="curve" smooth="yes"/>
      <point x="597" y="78"/>
      <point x="591" y="84"/>
      <point x="582" y="84" type="curve" smooth="yes"/>
      <point x="576" y="84"/>
      <point x="570" y="82"/>
      <point x="562" y="77" type="curve" smooth="yes"/>
      <point x="553" y="71"/>
      <point x="550" y="70"/>
      <point x="543" y="70" type="curve" smooth="yes"/>
      <point x="521" y="70"/>
      <point x="516" y="84"/>
      <point x="516" y="142" type="curve" smooth="yes"/>
    </contour>
    <contour>
      <point x="359" y="235" type="line"/>
      <point x="359" y="179" type="line" smooth="yes"/>
      <point x="359" y="102"/>
      <point x="323" y="53"/>
      <point x="267" y="53" type="curve" smooth="yes"/>
      <point x="228" y="53"/>
      <point x="203" y="80"/>
      <point x="203" y="123" type="curve" smooth="yes"/>
      <point x="203" y="176"/>
      <point x="234" y="206"/>
      <point x="306" y="223" type="curve" smooth="yes"/>
    </contour>
  </outline>
</glyph>
<glyph name="b" format="1">
  <advance width="648"/>
  <unicode hex="0062"/>
  <outline>
    <contour>
      <point x="240" y="737" type="line"/>
      <point x="0" y="722" type="line"/>
      <point x="0" y="671" type="line"/>
      <point x="19" y="671" type="line" smooth="yes"/>
      <point x="80" y="671"/>
      <point x="83" y="667"/>
      <point x="83" y="578" type="curve" smooth="yes"/>
      <point x="83" y="206" type="line" smooth="yes"/>
      <point x="83" y="109"/>
      <point x="79" y="41"/>
      <point x="69" y="-14" type="curve"/>
      <point x="118" y="-14" type="line"/>
      <point x="183" y="66" type="line"/>
      <point x="230" y="9"/>
      <point x="281" y="-15"/>
      <point x="356" y="-15" type="curve" smooth="yes"/>
      <point x="508" y="-15"/>
      <point x="612" y="91"/>
      <point x="612" y="245" type="curve" smooth="yes"/>
      <point x="612" y="387"/>
      <point x="522" y="488"/>
      <point x="395" y="488" type="curve" smooth="yes"/>
      <point x="328" y="488"/>
      <point x="281" y="465"/>
      <point x="240" y="413" type="curve"/>
    </contour>
    <contour>
      <point x="345" y="413" type="curve" smooth="yes"/>
      <point x="408" y="413"/>
      <point x="439" y="353"/>
      <point x="439" y="233" type="curve" smooth="yes"/>
      <point x="439" y="104"/>
      <point x="405" y="37"/>
      <point x="340" y="37" type="curve" smooth="yes"/>
      <point x="274" y="37"/>
      <point x="239" y="99"/>
      <point x="239" y="212" type="curve" smooth="yes"/>
      <point x="239" y="345"/>
      <point x="275" y="413"/>
    </contour>
  </outline>
</glyph>
<glyph name="f" format="1">
  <advance width="389"/>
  <unicode hex="0066"/>
  <outline>
    <contour>
      <point x="383" y="473" type="line"/>
      <point x="258" y="473" type="line"/>
      <point x="258" y="530" type="line" smooth="yes"/>
      <point x="258" y="597"/>
      <point x="260" y="619"/>
      <point x="270" y="641" type="curve" smooth="yes"/>
      <point x="280" y="664"/>
      <point x="303" y="681"/>
      <point x="323" y="681" type="curve" smooth="yes"/>
      <point x="332" y="681"/>
      <point x="339" y="677"/>
      <point x="339" y="673" type="curve" smooth="yes"/>
      <point x="339" y="670"/>
      <point x="338" y="668"/>
      <point x="334" y="664" type="curve"/>
      <point x="319" y="652"/>
      <point x="309" y="630"/>
      <point x="309" y="611" type="curve" smooth="yes"/>
      <point x="309" y="572"/>
      <point x="342" y="542"/>
      <point x="384" y="542" type="curve" smooth="yes"/>
      <point x="430" y="542"/>
      <point x="464" y="577"/>
      <point x="464" y="624" type="curve" smooth="yes"/>
      <point x="464" y="686"/>
      <point x="402" y="733"/>
      <point x="319" y="733" type="curve" smooth="yes"/>
      <point x="188" y="733"/>
      <point x="101" y="634"/>
      <point x="101" y="486" type="curve" smooth="yes"/>
      <point x="101" y="473" type="line"/>
      <point x="14" y="473" type="line"/>
      <point x="14" y="413" type="line"/>
      <point x="101" y="413" type="line"/>
      <point x="101" y="144" type="line"/>
      <point x="101" y="97" type="line" smooth="yes"/>
      <point x="101" y="57"/>
      <point x="90" y="50"/>
      <point x="25" y="50" type="curve" smooth="yes"/>
      <point x="21" y="50" type="line"/>
      <point x="21" y="0" type="line"/>
      <point x="351" y="0" type="line"/>
      <point x="351" y="50" type="line"/>
      <point x="333" y="50" type="line" smooth="yes"/>
      <point x="269" y="50"/>
      <point x="258" y="57"/>
      <point x="258" y="97" type="curve" smooth="yes"/>
      <point x="258" y="144" type="line"/>
      <point x="258" y="413" type="line"/>
      <point x="383" y="413" type="line"/>
    </contour>
  </outline>
</glyph>
<glyph name="h" format="1">
  <advance width="685"/>
  <unicode hex="0068"/>
  <outline>
    <contour>
      <point x="256" y="737" type="line"/>
      <point x="16" y="722" type="line"/>
      <point x="16" y="671" type="line"/>
      <point x="35" y="671" type="line" smooth="yes"/>
      <point x="97" y="671"/>
      <point x="98" y="669"/>
      <point x="99" y="574" type="curve" smooth="yes"/>
      <point x="99" y="144" type="line"/>
      <point x="99" y="97" type="line" smooth="yes"/>
      <point x="99" y="57"/>
      <point x="88" y="51"/>
      <point x="23" y="51" type="curve" smooth="yes"/>
      <point x="19" y="51" type="line"/>
      <point x="19" y="0" type="line"/>
      <point x="324" y="0" type="line"/>
      <point x="324" y="51" type="line"/>
      <point x="266" y="51"/>
      <point x="256" y="57"/>
      <point x="256" y="98" type="curve" smooth="yes"/>
      <point x="256" y="144" type="line"/>
      <point x="256" y="241" type="line" smooth="yes"/>
      <point x="256" y="286"/>
      <point x="260" y="312"/>
      <point x="271" y="336" type="curve" smooth="yes"/>
      <point x="287" y="372"/>
      <point x="322" y="395"/>
      <point x="359" y="395" type="curve" smooth="yes"/>
      <point x="405" y="395"/>
      <point x="430" y="361"/>
      <point x="430" y="297" type="curve" smooth="yes"/>
      <point x="430" y="144" type="line"/>
      <point x="430" y="97" type="line" smooth="yes"/>
      <point x="430" y="58"/>
      <point x="420" y="51"/>
      <point x="361" y="51" type="curve"/>
      <point x="361" y="0" type="line"/>
      <point x="666" y="0" type="line"/>
      <point x="666" y="51" type="line"/>
      <point x="662" y="51" type="line" smooth="yes"/>
      <point x="598" y="51"/>
      <point x="587" y="57"/>
      <point x="587" y="98" type="curve" smooth="yes"/>
      <point x="587" y="144" type="line"/>
      <point x="587" y="311" type="line" smooth="yes"/>
      <point x="587" y="373"/>
      <point x="576" y="411"/>
      <point x="549" y="440" type="curve" smooth="yes"/>
      <point x="522" y="471"/>
      <point x="478" y="488"/>
      <point x="426" y="488" type="curve" smooth="yes"/>
      <point x="350" y="488"/>
      <point x="298" y="460"/>
      <point x="256" y="396" type="curve"/>
    </contour>
  </outline>
</glyph>
<glyph name="i" format="1">
  <advance width="370"/>
  <unicode hex="0069"/>
  <outline>
    <contour>
      <point x="263" y="473" type="line"/>
      <point x="28" y="466" type="line"/>
      <point x="28" y="415" type="line"/>
      <point x="42" y="415" type="line" smooth="yes"/>
      <point x="103" y="415"/>
      <point x="106" y="410"/>
      <point x="106" y="321" type="curve" smooth="yes"/>
      <point x="106" y="144" type="line"/>
      <point x="106" y="98" type="line" smooth="yes"/>
      <point x="106" y="58"/>
      <point x="95" y="51"/>
      <point x="32" y="51" type="curve" smooth="yes"/>
      <point x="28" y="51" type="line"/>
      <point x="28" y="0" type="line"/>
      <point x="341" y="0" type="line"/>
      <point x="341" y="51" type="line"/>
      <point x="335" y="51" type="line" smooth="yes"/>
      <point x="274" y="51"/>
      <point x="263" y="58"/>
      <point x="263" y="97" type="curve" smooth="yes"/>
      <point x="263" y="144" type="line"/>
    </contour>
    <contour>
      <point x="182" y="737" type="curve" smooth="yes"/>
      <point x="133" y="737"/>
      <point x="93" y="697"/>
      <point x="93" y="649" type="curve" smooth="yes"/>
      <point x="93" y="601"/>
      <point x="133" y="560"/>
      <point x="180" y="560" type="curve" smooth="yes"/>
      <point x="230" y="560"/>
      <point x="270" y="599"/>
      <point x="270" y="649" type="curve" smooth="yes"/>
      <point x="270" y="697"/>
      <point x="230" y="737"/>
    </contour>
  </outline>
</glyph>
<glyph name="k" format="1">
  <advance width="667"/>
  <unicode hex="006B"/>
  <outline>
    <contour>
      <point x="252" y="737" type="line"/>
      <point x="12" y="722" type="line"/>
      <point x="12" y="671" type="line"/>
      <point x="31" y="671" type="line" smooth="yes"/>
      <point x="92" y="671"/>
      <point x="95" y="667"/>
      <point x="95" y="578" type="curve" smooth="yes"/>
      <point x="95" y="144" type="line"/>
      <point x="95" y="97" type="line" smooth="yes"/>
      <point x="95" y="57"/>
      <point x="84" y="51"/>
      <point x="19" y="51" type="curve" smooth="yes"/>
      <point x="15" y="51" type="line"/>
      <point x="15" y="0" type="line"/>
      <point x="320" y="0" type="line"/>
      <point x="320" y="51" type="line"/>
      <point x="262" y="51"/>
      <point x="252" y="58"/>
      <point x="252" y="98" type="curve" smooth="yes"/>
      <point x="252" y="144" type="line"/>
      <point x="252" y="172" type="line"/>
      <point x="298" y="213" type="line"/>
      <point x="390" y="102" type="line" smooth="yes"/>
      <point x="398" y="92"/>
      <point x="403" y="80"/>
      <point x="403" y="71" type="curve" smooth="yes"/>
      <point x="403" y="58"/>
      <point x="390" y="51"/>
      <point x="364" y="51" type="curve" smooth="yes"/>
      <point x="354" y="51" type="line"/>
      <point x="354" y="0" type="line"/>
      <point x="660" y="0" type="line"/>
      <point x="660" y="51" type="line"/>
      <point x="625" y="51"/>
      <point x="616" y="58"/>
      <point x="572" y="115" type="curve" smooth="yes"/>
      <point x="415" y="311" type="line"/>
      <point x="492" y="375" type="line" smooth="yes"/>
      <point x="533" y="410"/>
      <point x="562" y="422"/>
      <point x="600" y="422" type="curve" smooth="yes"/>
      <point x="623" y="422" type="line"/>
      <point x="623" y="473" type="line"/>
      <point x="329" y="473" type="line"/>
      <point x="329" y="422" type="line"/>
      <point x="341" y="422" type="line" smooth="yes"/>
      <point x="379" y="422"/>
      <point x="401" y="412"/>
      <point x="401" y="394" type="curve" smooth="yes"/>
      <point x="401" y="382"/>
      <point x="394" y="370"/>
      <point x="376" y="354" type="curve" smooth="yes"/>
      <point x="252" y="246" type="line"/>
    </contour>
  </outline>
</glyph>
<glyph name="l" format="1">
  <advance width="352"/>
  <unicode hex="006C"/>
  <outline>
    <contour>
      <point x="256" y="737" type="line"/>
      <point x="16" y="722" type="line"/>
      <point x="16" y="671" type="line"/>
      <point x="35" y="671" type="line" smooth="yes"/>
      <point x="96" y="671"/>
      <point x="99" y="667"/>
      <point x="99" y="578" type="curve" smooth="yes"/>
      <point x="99" y="144" type="line"/>
      <point x="99" y="97" type="line" smooth="yes"/>
      <point x="99" y="57"/>
      <point x="88" y="51"/>
      <point x="23" y="51" type="curve" smooth="yes"/>
      <point x="19" y="51" type="line"/>
      <point x="19" y="0" type="line"/>
      <point x="331" y="0" type="line"/>
      <point x="331" y="51" type="line"/>
      <point x="324" y="51" type="line" smooth="yes"/>
      <point x="305" y="51"/>
      <point x="278" y="54"/>
      <point x="271" y="58" type="curve"/>
      <point x="259" y="64"/>
      <point x="256" y="72"/>
      <point x="256" y="97" type="curve" smooth="yes"/>
      <point x="256" y="144" type="line"/>
    </contour>
  </outline>
</glyph>
<glyph name="m" format="1">
  <advance width="963"/>
  <unicode hex="006D"/>
  <outline>
    <contour>
      <point x="248" y="473" type="line"/>
      <point x="20" y="466" type="line"/>
      <point x="20" y="415" type="line"/>
      <point x="36" y="415" type="line" smooth="yes"/>
      <point x="97" y="415"/>
      <point x="100" y="410"/>
      <point x="100" y="321" type="curve" smooth="yes"/>
      <point x="100" y="144" type="line"/>
      <point x="100" y="98" type="line" smooth="yes"/>
      <point x="100" y="57"/>
      <point x="89" y="51"/>
      <point x="25" y="51" type="curve" smooth="yes"/>
      <point x="20" y="51" type="line"/>
      <point x="20" y="0" type="line"/>
      <point x="315" y="0" type="line"/>
      <point x="315" y="51" type="line"/>
      <point x="264" y="52"/>
      <point x="257" y="58"/>
      <point x="257" y="97" type="curve" smooth="yes"/>
      <point x="257" y="144" type="line"/>
      <point x="257" y="278" type="line" smooth="yes"/>
      <point x="257" y="349"/>
      <point x="293" y="395"/>
      <point x="348" y="395" type="curve" smooth="yes"/>
      <point x="387" y="395"/>
      <point x="403" y="368"/>
      <point x="403" y="302" type="curve" smooth="yes"/>
      <point x="403" y="144" type="line"/>
      <point x="403" y="98" type="line" smooth="yes"/>
      <point x="403" y="58"/>
      <point x="396" y="52"/>
      <point x="346" y="51" type="curve"/>
      <point x="346" y="0" type="line"/>
      <point x="618" y="0" type="line"/>
      <point x="618" y="51" type="line"/>
      <point x="567" y="52"/>
      <point x="560" y="58"/>
      <point x="560" y="97" type="curve" smooth="yes"/>
      <point x="560" y="144" type="line"/>
      <point x="560" y="278" type="line" smooth="yes"/>
      <point x="560" y="349"/>
      <point x="595" y="395"/>
      <point x="651" y="395" type="curve" smooth="yes"/>
      <point x="689" y="395"/>
      <point x="706" y="368"/>
      <point x="706" y="306" type="curve" smooth="yes"/>
      <point x="706" y="144" type="line"/>
      <point x="706" y="97" type="line" smooth="yes"/>
      <point x="706" y="58"/>
      <point x="699" y="52"/>
      <point x="648" y="51" type="curve"/>
      <point x="648" y="0" type="line"/>
      <point x="942" y="0" type="line"/>
      <point x="942" y="51" type="line"/>
      <point x="938" y="51" type="line" smooth="yes"/>
      <point x="874" y="51"/>
      <point x="863" y="58"/>
      <point x="863" y="97" type="curve" smooth="yes"/>
      <point x="863" y="144" type="line"/>
      <point x="863" y="343" type="line" smooth="yes"/>
      <point x="863" y="425"/>
      <point x="795" y="488"/>
      <point x="706" y="488" type="curve" smooth="yes"/>
      <point x="642" y="488"/>
      <point x="596" y="462"/>
      <point x="549" y="398" type="curve"/>
      <point x="528" y="454"/>
      <point x="475" y="488"/>
      <point x="408" y="488" type="curve" smooth="yes"/>
      <point x="341" y="488"/>
      <point x="288" y="457"/>
      <point x="248" y="394" type="curve"/>
    </contour>
  </outline>
</glyph>
<glyph name="p" format="1">
  <advance width="667"/>
  <unicode hex="0070"/>
  <outline>
    <contour>
      <point x="254" y="473" type="line"/>
      <point x="18" y="466" type="line"/>
      <point x="18" y="415" type="line"/>
      <point x="33" y="415" type="line" smooth="yes"/>
      <point x="95" y="415"/>
      <point x="96" y="413"/>
      <point x="97" y="318" type="curve" smooth="yes"/>
      <point x="97" y="-58" type="line"/>
      <point x="97" y="-105" type="line" smooth="yes"/>
      <point x="97" y="-145"/>
      <point x="86" y="-152"/>
      <point x="22" y="-152" type="curve" smooth="yes"/>
      <point x="18" y="-152" type="line"/>
      <point x="18" y="-202" type="line"/>
      <point x="341" y="-202" type="line"/>
      <point x="341" y="-152" type="line"/>
      <point x="330" y="-152" type="line" smooth="yes"/>
      <point x="265" y="-152"/>
      <point x="254" y="-145"/>
      <point x="254" y="-105" type="curve" smooth="yes"/>
      <point x="254" y="-58" type="line"/>
      <point x="254" y="50" type="line"/>
      <point x="294" y="6"/>
      <point x="339" y="-15"/>
      <point x="396" y="-15" type="curve" smooth="yes"/>
      <point x="530" y="-15"/>
      <point x="632" y="99"/>
      <point x="632" y="249" type="curve" smooth="yes"/>
      <point x="632" y="387"/>
      <point x="538" y="488"/>
      <point x="410" y="488" type="curve" smooth="yes"/>
      <point x="342" y="488"/>
      <point x="299" y="466"/>
      <point x="254" y="409" type="curve"/>
    </contour>
    <contour>
      <point x="366" y="413" type="curve" smooth="yes"/>
      <point x="426" y="413"/>
      <point x="459" y="350"/>
      <point x="459" y="232" type="curve" smooth="yes"/>
      <point x="459" y="120"/>
      <point x="421" y="53"/>
      <point x="358" y="53" type="curve" smooth="yes"/>
      <point x="291" y="53"/>
      <point x="253" y="116"/>
      <point x="253" y="229" type="curve" smooth="yes"/>
      <point x="253" y="347"/>
      <point x="293" y="413"/>
    </contour>
  </outline>
</glyph>
<glyph name="q" format="1">
  <advance width="648"/>
  <unicode hex="0071"/>
  <outline>
    <contour>
      <point x="527" y="487" type="line"/>
      <point x="463" y="407" type="line"/>
      <point x="418" y="463"/>
      <point x="365" y="488"/>
      <point x="289" y="488" type="curve" smooth="yes"/>
      <point x="143" y="488"/>
      <point x="34" y="379"/>
      <point x="34" y="232" type="curve" smooth="yes"/>
      <point x="34" y="166"/>
      <point x="58" y="94"/>
      <point x="95" y="53" type="curve" smooth="yes"/>
      <point x="130" y="12"/>
      <point x="192" y="-15"/>
      <point x="250" y="-15" type="curve" smooth="yes"/>
      <point x="313" y="-15"/>
      <point x="361" y="8"/>
      <point x="404" y="58" type="curve"/>
      <point x="404" y="-58" type="line"/>
      <point x="404" y="-105" type="line" smooth="yes"/>
      <point x="404" y="-145"/>
      <point x="393" y="-152"/>
      <point x="328" y="-152" type="curve" smooth="yes"/>
      <point x="317" y="-152" type="line"/>
      <point x="317" y="-202" type="line"/>
      <point x="640" y="-202" type="line"/>
      <point x="640" y="-152" type="line"/>
      <point x="636" y="-152" type="line" smooth="yes"/>
      <point x="572" y="-152"/>
      <point x="561" y="-145"/>
      <point x="561" y="-105" type="curve" smooth="yes"/>
      <point x="561" y="-58" type="line"/>
      <point x="561" y="272" type="line" smooth="yes"/>
      <point x="561" y="333"/>
      <point x="566" y="408"/>
      <point x="576" y="487" type="curve"/>
    </contour>
    <contour>
      <point x="308" y="436" type="curve" smooth="yes"/>
      <point x="342" y="436"/>
      <point x="374" y="411"/>
      <point x="390" y="372" type="curve" smooth="yes"/>
      <point x="402" y="342"/>
      <point x="407" y="306"/>
      <point x="407" y="253" type="curve" smooth="yes"/>
      <point x="407" y="129"/>
      <point x="368" y="53"/>
      <point x="304" y="53" type="curve" smooth="yes"/>
      <point x="240" y="53"/>
      <point x="207" y="116"/>
      <point x="207" y="236" type="curve" smooth="yes"/>
      <point x="207" y="368"/>
      <point x="242" y="436"/>
    </contour>
  </outline>
</glyph>
<glyph name="v" format="1">
  <advance width="611"/>
  <unicode hex="0076"/>
  <outline>
    <contour>
      <point x="357" y="140" type="line"/>
      <point x="250" y="374" type="line" smooth="yes"/>
      <point x="245" y="384"/>
      <point x="242" y="394"/>
      <point x="242" y="400" type="curve" smooth="yes"/>
      <point x="242" y="417"/>
      <point x="256" y="423"/>
      <point x="294" y="423" type="curve"/>
      <point x="294" y="473" type="line"/>
      <point x="12" y="473" type="line"/>
      <point x="12" y="423" type="line"/>
      <point x="49" y="421"/>
      <point x="59" y="414"/>
      <point x="80" y="370" type="curve" smooth="yes"/>
      <point x="264" y="-14" type="line"/>
      <point x="349" y="-14" type="line"/>
      <point x="503" y="335" type="line" smooth="yes"/>
      <point x="532" y="402"/>
      <point x="554" y="423"/>
      <point x="594" y="423" type="curve" smooth="yes"/>
      <point x="598" y="423" type="line"/>
      <point x="598" y="473" type="line"/>
      <point x="371" y="473" type="line"/>
      <point x="371" y="423" type="line"/>
      <point x="426" y="423"/>
      <point x="448" y="412"/>
      <point x="448" y="384" type="curve" smooth="yes"/>
      <point x="448" y="370"/>
      <point x="445" y="361"/>
      <point x="430" y="324" type="curve" smooth="yes"/>
    </contour>
  </outline>
</glyph>
<glyph name="w" format="1">
  <advance width="889"/>
  <unicode hex="0077"/>
  <outline>
    <contour>
      <point x="642" y="154" type="line"/>
      <point x="550" y="377" type="line" smooth="yes"/>
      <point x="546" y="386"/>
      <point x="544" y="394"/>
      <point x="544" y="399" type="curve" smooth="yes"/>
      <point x="544" y="415"/>
      <point x="560" y="422"/>
      <point x="598" y="422" type="curve" smooth="yes"/>
      <point x="605" y="422" type="line"/>
      <point x="605" y="473" type="line"/>
      <point x="326" y="473" type="line"/>
      <point x="326" y="422" type="line"/>
      <point x="363" y="422"/>
      <point x="374" y="415"/>
      <point x="387" y="384" type="curve" smooth="yes"/>
      <point x="412" y="324" type="line"/>
      <point x="340" y="154" type="line"/>
      <point x="253" y="375" type="line" smooth="yes"/>
      <point x="246" y="393"/>
      <point x="246" y="393"/>
      <point x="246" y="398" type="curve" smooth="yes"/>
      <point x="246" y="417"/>
      <point x="255" y="421"/>
      <point x="295" y="422" type="curve"/>
      <point x="295" y="473" type="line"/>
      <point x="19" y="473" type="line"/>
      <point x="19" y="422" type="line"/>
      <point x="58" y="420"/>
      <point x="72" y="408"/>
      <point x="90" y="366" type="curve" smooth="yes"/>
      <point x="253" y="-14" type="line"/>
      <point x="329" y="-14" type="line"/>
      <point x="443" y="249" type="line"/>
      <point x="550" y="-14" type="line"/>
      <point x="625" y="-14" type="line"/>
      <point x="782" y="337" type="line" smooth="yes"/>
      <point x="811" y="401"/>
      <point x="831" y="419"/>
      <point x="876" y="422" type="curve"/>
      <point x="876" y="473" type="line"/>
      <point x="650" y="473" type="line"/>
      <point x="650" y="422" type="line"/>
      <point x="657" y="422" type="line" smooth="yes"/>
      <point x="699" y="422"/>
      <point x="726" y="404"/>
      <point x="726" y="376" type="curve" smooth="yes"/>
      <point x="726" y="364"/>
      <point x="722" y="348"/>
      <point x="712" y="324" type="curve" smooth="yes"/>
    </contour>
  </outline>
</glyph>
<glyph name="x" format="1">
  <advance width="611"/>
  <unicode hex="0078"/>
  <outline>
    <contour>
      <point x="370" y="272" type="line"/>
      <point x="474" y="370" type="line" smooth="yes"/>
      <point x="515" y="408"/>
      <point x="545" y="422"/>
      <point x="588" y="422" type="curve"/>
      <point x="588" y="473" type="line"/>
      <point x="342" y="473" type="line"/>
      <point x="342" y="422" type="line"/>
      <point x="365" y="422" type="line" smooth="yes"/>
      <point x="390" y="422"/>
      <point x="405" y="413"/>
      <point x="405" y="399" type="curve" smooth="yes"/>
      <point x="405" y="389"/>
      <point x="399" y="379"/>
      <point x="384" y="365" type="curve" smooth="yes"/>
      <point x="333" y="316" type="line"/>
      <point x="276" y="385" type="line" smooth="yes"/>
      <point x="268" y="394"/>
      <point x="265" y="400"/>
      <point x="265" y="406" type="curve" smooth="yes"/>
      <point x="265" y="416"/>
      <point x="277" y="422"/>
      <point x="298" y="422" type="curve" smooth="yes"/>
      <point x="309" y="422" type="line"/>
      <point x="309" y="473" type="line"/>
      <point x="13" y="473" type="line"/>
      <point x="13" y="422" type="line"/>
      <point x="43" y="420"/>
      <point x="54" y="414"/>
      <point x="80" y="383" type="curve" smooth="yes"/>
      <point x="223" y="212" type="line"/>
      <point x="102" y="97" type="line" smooth="yes"/>
      <point x="66" y="64"/>
      <point x="43" y="52"/>
      <point x="13" y="51" type="curve"/>
      <point x="13" y="0" type="line"/>
      <point x="247" y="0" type="line"/>
      <point x="247" y="51" type="line"/>
      <point x="234" y="51" type="line" smooth="yes"/>
      <point x="205" y="51"/>
      <point x="187" y="62"/>
      <point x="187" y="79" type="curve" smooth="yes"/>
      <point x="187" y="89"/>
      <point x="192" y="99"/>
      <point x="201" y="108" type="curve" smooth="yes"/>
      <point x="261" y="167" type="line"/>
      <point x="320" y="96" type="line" smooth="yes"/>
      <point x="328" y="87"/>
      <point x="331" y="81"/>
      <point x="331" y="74" type="curve" smooth="yes"/>
      <point x="331" y="58"/>
      <point x="318" y="51"/>
      <point x="291" y="51" type="curve" smooth="yes"/>
      <point x="284" y="51" type="line"/>
      <point x="284" y="0" type="line"/>
      <point x="598" y="0" type="line"/>
      <point x="598" y="51" type="line"/>
      <point x="561" y="52"/>
      <point x="550" y="59"/>
      <point x="508" y="108" type="curve" smooth="yes"/>
    </contour>
  </outline>
</glyph>
<glyph name="braceleft" format="1">
  <advance width="389"/>
  <unicode hex="007B"/>
  <outline>
    <contour>
      <point x="84" y="285" type="line"/>
      <point x="122" y="275"/>
      <point x="136" y="267"/>
      <point x="148" y="247" type="curve" smooth="yes"/>
      <point x="159" y="228"/>
      <point x="160" y="218"/>
      <point x="160" y="152" type="curve" smooth="yes"/>
      <point x="160" y="42" type="line" smooth="yes"/>
      <point x="160" y="-24"/>
      <point x="170" y="-60"/>
      <point x="196" y="-81" type="curve" smooth="yes"/>
      <point x="214" y="-97"/>
      <point x="254" y="-108"/>
      <point x="291" y="-108" type="curve" smooth="yes"/>
      <point x="343" y="-108" type="line"/>
      <point x="343" y="-62" type="line"/>
      <point x="315" y="-59"/>
      <point x="302" y="-53"/>
      <point x="292" y="-37" type="curve" smooth="yes"/>
      <point x="283" y="-22"/>
      <point x="283" y="-22"/>
      <point x="283" y="64" type="curve" smooth="yes"/>
      <point x="283" y="182" type="line" smooth="yes"/>
      <point x="283" y="259"/>
      <point x="260" y="287"/>
      <point x="181" y="307" type="curve"/>
      <point x="260" y="327"/>
      <point x="283" y="355"/>
      <point x="283" y="432" type="curve" smooth="yes"/>
      <point x="283" y="550" type="line"/>
      <point x="283" y="606" type="line" smooth="yes"/>
      <point x="283" y="653"/>
      <point x="298" y="672"/>
      <point x="343" y="676" type="curve"/>
      <point x="343" y="722" type="line"/>
      <point x="291" y="722" type="line" smooth="yes"/>
      <point x="254" y="722"/>
      <point x="214" y="711"/>
      <point x="196" y="695" type="curve" smooth="yes"/>
      <point x="170" y="674"/>
      <point x="160" y="638"/>
      <point x="160" y="572" type="curve" smooth="yes"/>
      <point x="160" y="462" type="line" smooth="yes"/>
      <point x="160" y="402"/>
      <point x="159" y="392"/>
      <point x="152" y="375" type="curve" smooth="yes"/>
      <point x="141" y="349"/>
      <point x="126" y="339"/>
      <point x="84" y="329" type="curve"/>
    </contour>
  </outline>
</glyph>
<glyph name="braceright" format="1">
  <advance width="389"/>
  <unicode hex="007D"/>
  <outline>
    <contour>
      <point x="290" y="329" type="line"/>
      <point x="253" y="338"/>
      <point x="239" y="347"/>
      <point x="228" y="367" type="curve" smooth="yes"/>
      <point x="217" y="386"/>
      <point x="216" y="397"/>
      <point x="216" y="462" type="curve" smooth="yes"/>
      <point x="216" y="572" type="line" smooth="yes"/>
      <point x="216" y="638"/>
      <point x="206" y="674"/>
      <point x="180" y="695" type="curve" smooth="yes"/>
      <point x="162" y="711"/>
      <point x="122" y="722"/>
      <point x="85" y="722" type="curve" smooth="yes"/>
      <point x="31" y="722" type="line"/>
      <point x="31" y="676" type="line"/>
      <point x="77" y="672"/>
      <point x="93" y="653"/>
      <point x="93" y="606" type="curve" smooth="yes"/>
      <point x="93" y="550" type="line"/>
      <point x="93" y="432" type="line" smooth="yes"/>
      <point x="93" y="355"/>
      <point x="116" y="327"/>
      <point x="195" y="307" type="curve"/>
      <point x="116" y="287"/>
      <point x="93" y="259"/>
      <point x="93" y="182" type="curve" smooth="yes"/>
      <point x="93" y="64" type="line" smooth="yes"/>
      <point x="93" y="-22"/>
      <point x="93" y="-22"/>
      <point x="83" y="-37" type="curve" smooth="yes"/>
      <point x="73" y="-53"/>
      <point x="60" y="-59"/>
      <point x="31" y="-62" type="curve"/>
      <point x="31" y="-108" type="line"/>
      <point x="85" y="-108" type="line" smooth="yes"/>
      <point x="122" y="-108"/>
      <point x="162" y="-97"/>
      <point x="180" y="-81" type="curve" smooth="yes"/>
      <point x="206" y="-60"/>
      <point x="216" y="-24"/>
      <point x="216" y="42" type="curve" smooth="yes"/>
      <point x="216" y="152" type="line" smooth="yes"/>
      <point x="216" y="212"/>
      <point x="217" y="221"/>
      <point x="224" y="239" type="curve" smooth="yes"/>
      <point x="234" y="265"/>
      <point x="249" y="275"/>
      <point x="290" y="285" type="curve"/>
    </contour>
  </outline>
</glyph>
<glyph name="asciitilde" format="1">
  <advance width="606"/>
  <unicode hex="007E"/>
  <outline>
    <contour>
      <point x="135" y="169" type="line"/>
      <point x="163" y="209"/>
      <point x="179" y="221"/>
      <point x="202" y="221" type="curve" smooth="yes"/>
      <point x="217" y="221"/>
      <point x="225" y="219"/>
      <point x="268" y="202" type="curve" smooth="yes"/>
      <point x="321" y="183" type="line" smooth="yes"/>
      <point x="366" y="165"/>
      <point x="388" y="160"/>
      <point x="411" y="160" type="curve" smooth="yes"/>
      <point x="466" y="160"/>
      <point x="514" y="198"/>
      <point x="555" y="273" type="curve"/>
      <point x="471" y="326" type="line"/>
      <point x="443" y="286"/>
      <point x="427" y="274"/>
      <point x="404" y="274" type="curve" smooth="yes"/>
      <point x="389" y="274"/>
      <point x="381" y="276"/>
      <point x="338" y="293" type="curve" smooth="yes"/>
      <point x="285" y="312" type="line" smooth="yes"/>
      <point x="240" y="329"/>
      <point x="218" y="335"/>
      <point x="195" y="335" type="curve" smooth="yes"/>
      <point x="140" y="335"/>
      <point x="91" y="297"/>
      <point x="51" y="222" type="curve"/>
    </contour>
  </outline>
</glyph>
<glyph name="exclamdown" format="1">
  <advance width="296"/>
  <unicode hex="00A1"/>
  <outline>
    <contour>
      <point x="120" y="306" type="line"/>
      <point x="117" y="198"/>
      <point x="106" y="119"/>
      <point x="87" y="55" type="curve" smooth="yes"/>
      <point x="55" y="-55"/>
      <point x="53" y="-64"/>
      <point x="53" y="-103" type="curve" smooth="yes"/>
      <point x="53" y="-166"/>
      <point x="88" y="-203"/>
      <point x="146" y="-203" type="curve" smooth="yes"/>
      <point x="205" y="-203"/>
      <point x="240" y="-166"/>
      <point x="240" y="-103" type="curve" smooth="yes"/>
      <point x="240" y="-77"/>
      <point x="235" y="-45"/>
      <point x="226" y="-14" type="curve" smooth="yes"/>
      <point x="186" y="120"/>
      <point x="180" y="159"/>
      <point x="174" y="306" type="curve"/>
    </contour>
    <contour>
      <point x="148" y="549" type="curve" smooth="yes"/>
      <point x="95" y="549"/>
      <point x="53" y="507"/>
      <point x="53" y="455" type="curve" smooth="yes"/>
      <point x="53" y="403"/>
      <point x="95" y="361"/>
      <point x="147" y="361" type="curve" smooth="yes"/>
      <point x="199" y="361"/>
      <point x="241" y="403"/>
      <point x="241" y="455" type="curve" smooth="yes"/>
      <point x="241" y="506"/>
      <point x="199" y="549"/>
    </contour>
  </outline>
</glyph>
<glyph name="cent" format="1">
  <advance width="574"/>
  <unicode hex="00A2"/>
  <outline>
    <contour>
      <point x="522" y="567" type="line"/>
      <point x="466" y="567" type="line"/>
      <point x="415" y="474" type="line"/>
      <point x="386" y="483"/>
      <point x="353" y="488"/>
      <point x="320" y="488" type="curve" smooth="yes"/>
      <point x="157" y="488"/>
      <point x="36" y="377"/>
      <point x="36" y="229" type="curve" smooth="yes"/>
      <point x="36" y="138"/>
      <point x="82" y="62"/>
      <point x="165" y="16" type="curve"/>
      <point x="98" y="-107" type="line"/>
      <point x="156" y="-107" type="line"/>
      <point x="213" y="-3" type="line"/>
      <point x="238" y="-11"/>
      <point x="264" y="-14"/>
      <point x="295" y="-14" type="curve" smooth="yes"/>
      <point x="419" y="-14"/>
      <point x="493" y="39"/>
      <point x="534" y="158" type="curve"/>
      <point x="482" y="174" type="line"/>
      <point x="458" y="96"/>
      <point x="407" y="54"/>
      <point x="339" y="54" type="curve" smooth="yes"/>
      <point x="305" y="54"/>
      <point x="278" y="64"/>
      <point x="259" y="83" type="curve"/>
      <point x="372" y="291" type="line"/>
      <point x="388" y="274"/>
      <point x="410" y="265"/>
      <point x="436" y="265" type="curve" smooth="yes"/>
      <point x="486" y="265"/>
      <point x="523" y="302"/>
      <point x="523" y="353" type="curve" smooth="yes"/>
      <point x="523" y="395"/>
      <point x="502" y="428"/>
      <point x="460" y="454" type="curve"/>
    </contour>
    <contour>
      <point x="229" y="133" type="line"/>
      <point x="215" y="170"/>
      <point x="209" y="203"/>
      <point x="209" y="241" type="curve" smooth="yes"/>
      <point x="209" y="361"/>
      <point x="256" y="436"/>
      <point x="331" y="436" type="curve" smooth="yes"/>
      <point x="360" y="436"/>
      <point x="384" y="424"/>
      <point x="384" y="410" type="curve" smooth="yes"/>
      <point x="384" y="405"/>
      <point x="381" y="399"/>
      <point x="377" y="395" type="curve"/>
      <point x="368" y="385"/>
      <point x="365" y="382"/>
      <point x="361" y="375" type="curve" smooth="yes"/>
    </contour>
  </outline>
</glyph>
<glyph name="sterling" format="1">
  <advance width="574"/>
  <unicode hex="00A3"/>
  <outline>
    <contour>
      <point x="459" y="378" type="line"/>
      <point x="304" y="378" type="line"/>
      <point x="277" y="472"/>
      <point x="265" y="528"/>
      <point x="265" y="566" type="curve" smooth="yes"/>
      <point x="265" y="619"/>
      <point x="303" y="656"/>
      <point x="357" y="656" type="curve" smooth="yes"/>
      <point x="398" y="656"/>
      <point x="433" y="636"/>
      <point x="433" y="612" type="curve" smooth="yes"/>
      <point x="433" y="603"/>
      <point x="429" y="599"/>
      <point x="409" y="588" type="curve" smooth="yes"/>
      <point x="381" y="573"/>
      <point x="369" y="554"/>
      <point x="369" y="526" type="curve" smooth="yes"/>
      <point x="369" y="482"/>
      <point x="403" y="449"/>
      <point x="448" y="449" type="curve" smooth="yes"/>
      <point x="503" y="449"/>
      <point x="543" y="491"/>
      <point x="543" y="548" type="curve" smooth="yes"/>
      <point x="543" y="641"/>
      <point x="460" y="708"/>
      <point x="345" y="708" type="curve" smooth="yes"/>
      <point x="211" y="708"/>
      <point x="112" y="620"/>
      <point x="112" y="500" type="curve" smooth="yes"/>
      <point x="112" y="462"/>
      <point x="118" y="431"/>
      <point x="136" y="378" type="curve"/>
      <point x="34" y="378" type="line"/>
      <point x="34" y="318" type="line"/>
      <point x="158" y="318" type="line"/>
      <point x="179" y="283"/>
      <point x="197" y="220"/>
      <point x="197" y="184" type="curve" smooth="yes"/>
      <point x="197" y="179"/>
      <point x="197" y="171"/>
      <point x="196" y="161" type="curve"/>
      <point x="166" y="171"/>
      <point x="148" y="174"/>
      <point x="126" y="174" type="curve" smooth="yes"/>
      <point x="65" y="174"/>
      <point x="19" y="132"/>
      <point x="19" y="77" type="curve" smooth="yes"/>
      <point x="19" y="23"/>
      <point x="59" y="-14"/>
      <point x="117" y="-14" type="curve" smooth="yes"/>
      <point x="165" y="-14"/>
      <point x="200" y="5"/>
      <point x="231" y="50" type="curve"/>
      <point x="283" y="6"/>
      <point x="331" y="-14"/>
      <point x="384" y="-14" type="curve" smooth="yes"/>
      <point x="474" y="-14"/>
      <point x="537" y="57"/>
      <point x="561" y="186" type="curve"/>
      <point x="510" y="200" type="line"/>
      <point x="490" y="143"/>
      <point x="455" y="119"/>
      <point x="392" y="119" type="curve" smooth="yes"/>
      <point x="354" y="119"/>
      <point x="319" y="125"/>
      <point x="280" y="139" type="curve"/>
      <point x="306" y="191"/>
      <point x="317" y="230"/>
      <point x="317" y="273" type="curve" smooth="yes"/>
      <point x="317" y="284"/>
      <point x="316" y="295"/>
      <point x="313" y="318" type="curve"/>
      <point x="459" y="318" type="line"/>
    </contour>
    <contour>
      <point x="182" y="92" type="curve"/>
      <point x="166" y="54"/>
      <point x="146" y="38"/>
      <point x="113" y="38" type="curve" smooth="yes"/>
      <point x="88" y="38"/>
      <point x="69" y="55"/>
      <point x="69" y="79" type="curve" smooth="yes"/>
      <point x="69" y="104"/>
      <point x="88" y="122"/>
      <point x="116" y="122" type="curve" smooth="yes"/>
      <point x="140" y="122"/>
      <point x="156" y="115"/>
    </contour>
  </outline>
</glyph>
<glyph name="currency" format="1">
  <advance width="574"/>
  <unicode hex="00A4"/>
  <outline>
    <contour>
      <point x="154" y="140" type="line"/>
      <point x="197" y="114"/>
      <point x="240" y="102"/>
      <point x="287" y="102" type="curve" smooth="yes"/>
      <point x="334" y="102"/>
      <point x="375" y="114"/>
      <point x="419" y="140" type="curve"/>
      <point x="462" y="97" type="line"/>
      <point x="540" y="175" type="line"/>
      <point x="497" y="218" type="line"/>
      <point x="524" y="263"/>
      <point x="535" y="302"/>
      <point x="535" y="350" type="curve" smooth="yes"/>
      <point x="535" y="398"/>
      <point x="522" y="443"/>
      <point x="497" y="484" type="curve"/>
      <point x="540" y="526" type="line"/>
      <point x="462" y="604" type="line"/>
      <point x="419" y="561" type="line"/>
      <point x="373" y="588"/>
      <point x="335" y="599"/>
      <point x="287" y="599" type="curve" smooth="yes"/>
      <point x="239" y="599"/>
      <point x="193" y="586"/>
      <point x="154" y="561" type="curve"/>
      <point x="111" y="604" type="line"/>
      <point x="33" y="526" type="line"/>
      <point x="76" y="483" type="line"/>
      <point x="52" y="447"/>
      <point x="38" y="397"/>
      <point x="38" y="350" type="curve" smooth="yes"/>
      <point x="38" y="304"/>
      <point x="51" y="258"/>
      <point x="76" y="218" type="curve"/>
      <point x="34" y="175" type="line"/>
      <point x="111" y="98" type="line"/>
    </contour>
    <contour>
      <point x="287" y="478" type="curve" smooth="yes"/>
      <point x="357" y="478"/>
      <point x="415" y="421"/>
      <point x="415" y="351" type="curve" smooth="yes"/>
      <point x="415" y="279"/>
      <point x="358" y="223"/>
      <point x="285" y="223" type="curve" smooth="yes"/>
      <point x="216" y="223"/>
      <point x="158" y="281"/>
      <point x="158" y="351" type="curve" smooth="yes"/>
      <point x="158" y="421"/>
      <point x="216" y="478"/>
    </contour>
  </outline>
</glyph>
<glyph name="yen" format="1">
  <advance width="574"/>
  <unicode hex="00A5"/>
  <outline>
    <contour>
      <point x="393" y="359" type="line"/>
      <point x="480" y="575" type="line" smooth="yes"/>
      <point x="506" y="637"/>
      <point x="533" y="664"/>
      <point x="571" y="668" type="curve"/>
      <point x="571" y="722" type="line"/>
      <point x="365" y="722" type="line"/>
      <point x="365" y="668" type="line"/>
      <point x="385" y="668" type="line" smooth="yes"/>
      <point x="410" y="668"/>
      <point x="427" y="649"/>
      <point x="427" y="621" type="curve" smooth="yes"/>
      <point x="427" y="608"/>
      <point x="423" y="587"/>
      <point x="417" y="574" type="curve" smooth="yes"/>
      <point x="345" y="396" type="line"/>
      <point x="252" y="615" type="line" smooth="yes"/>
      <point x="242" y="640"/>
      <point x="241" y="642"/>
      <point x="241" y="649" type="curve" smooth="yes"/>
      <point x="241" y="660"/>
      <point x="251" y="668"/>
      <point x="267" y="668" type="curve" smooth="yes"/>
      <point x="273" y="668" type="line"/>
      <point x="273" y="722" type="line"/>
      <point x="3" y="722" type="line"/>
      <point x="3" y="668" type="line"/>
      <point x="33" y="668"/>
      <point x="44" y="661"/>
      <point x="57" y="632" type="curve" smooth="yes"/>
      <point x="173" y="359" type="line"/>
      <point x="85" y="359" type="line"/>
      <point x="85" y="299" type="line"/>
      <point x="196" y="299" type="line"/>
      <point x="196" y="233" type="line"/>
      <point x="85" y="233" type="line"/>
      <point x="85" y="173" type="line"/>
      <point x="196" y="173" type="line"/>
      <point x="196" y="144" type="line" smooth="yes"/>
      <point x="196" y="83"/>
      <point x="196" y="77"/>
      <point x="191" y="69" type="curve"/>
      <point x="185" y="58"/>
      <point x="170" y="54"/>
      <point x="134" y="54" type="curve" smooth="yes"/>
      <point x="119" y="54" type="line"/>
      <point x="119" y="0" type="line"/>
      <point x="454" y="0" type="line"/>
      <point x="454" y="54" type="line"/>
      <point x="439" y="54" type="line" smooth="yes"/>
      <point x="402" y="54"/>
      <point x="387" y="58"/>
      <point x="381" y="69" type="curve"/>
      <point x="376" y="77"/>
      <point x="376" y="80"/>
      <point x="376" y="144" type="curve" smooth="yes"/>
      <point x="376" y="173" type="line"/>
      <point x="486" y="173" type="line"/>
      <point x="486" y="233" type="line"/>
      <point x="376" y="233" type="line"/>
      <point x="376" y="299" type="line"/>
      <point x="486" y="299" type="line"/>
      <point x="486" y="359" type="line"/>
    </contour>
  </outline>
</glyph>
<glyph name="section" format="1">
  <advance width="500"/>
  <unicode hex="00A7"/>
  <outline>
    <contour>
      <point x="333" y="187" type="line" smooth="yes"/>
      <point x="391" y="187"/>
      <point x="438" y="243"/>
      <point x="438" y="313" type="curve" smooth="yes"/>
      <point x="438" y="345"/>
      <point x="431" y="370"/>
      <point x="414" y="397" type="curve" smooth="yes"/>
      <point x="396" y="427"/>
      <point x="369" y="457"/>
      <point x="343" y="478" type="curve" smooth="yes"/>
      <point x="237" y="565" type="line" smooth="yes"/>
      <point x="198" y="596"/>
      <point x="181" y="621"/>
      <point x="181" y="645" type="curve" smooth="yes"/>
      <point x="181" y="678"/>
      <point x="214" y="705"/>
      <point x="253" y="705" type="curve" smooth="yes"/>
      <point x="278" y="705"/>
      <point x="299" y="694"/>
      <point x="299" y="681" type="curve" smooth="yes"/>
      <point x="299" y="677"/>
      <point x="297" y="674"/>
      <point x="292" y="668" type="curve"/>
      <point x="278" y="653"/>
      <point x="273" y="642"/>
      <point x="273" y="627" type="curve" smooth="yes"/>
      <point x="273" y="599"/>
      <point x="297" y="577"/>
      <point x="329" y="577" type="curve" smooth="yes"/>
      <point x="362" y="577"/>
      <point x="386" y="601"/>
      <point x="386" y="634" type="curve" smooth="yes"/>
      <point x="386" y="696"/>
      <point x="334" y="737"/>
      <point x="255" y="737" type="curve" smooth="yes"/>
      <point x="165" y="737"/>
      <point x="106" y="680"/>
      <point x="106" y="593" type="curve" smooth="yes"/>
      <point x="106" y="541"/>
      <point x="120" y="516"/>
      <point x="177" y="464" type="curve"/>
      <point x="109" y="459"/>
      <point x="63" y="407"/>
      <point x="63" y="335" type="curve" smooth="yes"/>
      <point x="63" y="287"/>
      <point x="84" y="242"/>
      <point x="124" y="208" type="curve" smooth="yes"/>
      <point x="237" y="110" type="line" smooth="yes"/>
      <point x="285" y="69"/>
      <point x="285" y="69"/>
      <point x="291" y="63" type="curve" smooth="yes"/>
      <point x="311" y="43"/>
      <point x="318" y="27"/>
      <point x="318" y="7" type="curve" smooth="yes"/>
      <point x="318" y="-30"/>
      <point x="285" y="-55"/>
      <point x="238" y="-55" type="curve" smooth="yes"/>
      <point x="209" y="-55"/>
      <point x="186" y="-43"/>
      <point x="186" y="-27" type="curve" smooth="yes"/>
      <point x="186" y="-22"/>
      <point x="189" y="-17"/>
      <point x="199" y="-7" type="curve" smooth="yes"/>
      <point x="211" y="4"/>
      <point x="215" y="13"/>
      <point x="215" y="26" type="curve" smooth="yes"/>
      <point x="215" y="56"/>
      <point x="191" y="79"/>
      <point x="161" y="79" type="curve" smooth="yes"/>
      <point x="125" y="79"/>
      <point x="99" y="51"/>
      <point x="99" y="13" type="curve" smooth="yes"/>
      <point x="99" y="-44"/>
      <point x="160" y="-87"/>
      <point x="241" y="-87" type="curve" smooth="yes"/>
      <point x="336" y="-87"/>
      <point x="398" y="-32"/>
      <point x="398" y="52" type="curve" smooth="yes"/>
      <point x="398" y="106"/>
      <point x="381" y="138"/>
      <point x="327" y="187" type="curve"/>
    </contour>
    <contour>
      <point x="320" y="344" type="line" smooth="yes"/>
      <point x="351" y="317"/>
      <point x="363" y="298"/>
      <point x="363" y="278" type="curve" smooth="yes"/>
      <point x="363" y="249"/>
      <point x="338" y="225"/>
      <point x="307" y="225" type="curve" smooth="yes"/>
      <point x="284" y="225"/>
      <point x="258" y="237"/>
      <point x="233" y="258" type="curve" smooth="yes"/>
      <point x="179" y="306" type="line" smooth="yes"/>
      <point x="147" y="334"/>
      <point x="138" y="349"/>
      <point x="138" y="372" type="curve" smooth="yes"/>
      <point x="138" y="402"/>
      <point x="163" y="425"/>
      <point x="195" y="425" type="curve" smooth="yes"/>
      <point x="218" y="425"/>
      <point x="237" y="416"/>
      <point x="269" y="388" type="curve" smooth="yes"/>
    </contour>
  </outline>
</glyph>
<glyph name="dieresis" format="1">
  <advance width="333"/>
  <unicode hex="00A8"/>
  <outline>
    <contour>
      <point x="60" y="693" type="curve" smooth="yes"/>
      <point x="21" y="693"/>
      <point x="-11" y="661"/>
      <point x="-11" y="623" type="curve" smooth="yes"/>
      <point x="-11" y="584"/>
      <point x="21" y="552"/>
      <point x="59" y="552" type="curve" smooth="yes"/>
      <point x="98" y="552"/>
      <point x="130" y="583"/>
      <point x="130" y="623" type="curve" smooth="yes"/>
      <point x="130" y="661"/>
      <point x="98" y="693"/>
    </contour>
    <contour>
      <point x="275" y="693" type="curve" smooth="yes"/>
      <point x="236" y="693"/>
      <point x="204" y="661"/>
      <point x="204" y="623" type="curve" smooth="yes"/>
      <point x="204" y="584"/>
      <point x="236" y="552"/>
      <point x="274" y="552" type="curve" smooth="yes"/>
      <point x="313" y="552"/>
      <point x="345" y="583"/>
      <point x="345" y="623" type="curve" smooth="yes"/>
      <point x="345" y="661"/>
      <point x="313" y="693"/>
    </contour>
  </outline>
</glyph>
<glyph name="copyright" format="1">
  <advance width="747"/>
  <unicode hex="00A9"/>
  <outline>
    <contour>
      <point x="531" y="554" type="line"/>
      <point x="503" y="554" type="line"/>
      <point x="475" y="529" type="line"/>
      <point x="443" y="549"/>
      <point x="416" y="556"/>
      <point x="378" y="556" type="curve" smooth="yes"/>
      <point x="259" y="556"/>
      <point x="173" y="469"/>
      <point x="173" y="347" type="curve" smooth="yes"/>
      <point x="173" y="229"/>
      <point x="254" y="148"/>
      <point x="372" y="148" type="curve" smooth="yes"/>
      <point x="469" y="148"/>
      <point x="525" y="196"/>
      <point x="545" y="296" type="curve"/>
      <point x="505" y="306" type="line"/>
      <point x="490" y="230"/>
      <point x="450" y="190"/>
      <point x="390" y="190" type="curve" smooth="yes"/>
      <point x="321" y="190"/>
      <point x="288" y="243"/>
      <point x="288" y="356" type="curve" smooth="yes"/>
      <point x="288" y="464"/>
      <point x="320" y="519"/>
      <point x="384" y="519" type="curve" smooth="yes"/>
      <point x="441" y="519"/>
      <point x="478" y="479"/>
      <point x="501" y="391" type="curve"/>
      <point x="537" y="394" type="line"/>
    </contour>
    <contour>
      <point x="373" y="721" type="curve" smooth="yes"/>
      <point x="170" y="721"/>
      <point x="5" y="556"/>
      <point x="5" y="353" type="curve" smooth="yes"/>
      <point x="5" y="152"/>
      <point x="170" y="-15"/>
      <point x="369" y="-15" type="curve" smooth="yes"/>
      <point x="577" y="-15"/>
      <point x="741" y="148"/>
      <point x="741" y="354" type="curve" smooth="yes"/>
      <point x="741" y="556"/>
      <point x="576" y="721"/>
    </contour>
    <contour>
      <point x="373" y="669" type="curve" smooth="yes"/>
      <point x="541" y="669"/>
      <point x="678" y="527"/>
      <point x="678" y="354" type="curve" smooth="yes"/>
      <point x="678" y="177"/>
      <point x="542" y="37"/>
      <point x="369" y="37" type="curve" smooth="yes"/>
      <point x="205" y="37"/>
      <point x="68" y="181"/>
      <point x="68" y="353" type="curve" smooth="yes"/>
      <point x="68" y="527"/>
      <point x="205" y="669"/>
    </contour>
  </outline>
</glyph>
<glyph name="ordfeminine" format="1">
  <advance width="367"/>
  <unicode hex="00AA"/>
  <outline>
    <contour>
      <point x="313" y="635" type="line" smooth="yes"/>
      <point x="313" y="674"/>
      <point x="305" y="693"/>
      <point x="282" y="710" type="curve" smooth="yes"/>
      <point x="258" y="727"/>
      <point x="216" y="737"/>
      <point x="166" y="737" type="curve" smooth="yes"/>
      <point x="77" y="737"/>
      <point x="18" y="706"/>
      <point x="18" y="659" type="curve" smooth="yes"/>
      <point x="18" y="633"/>
      <point x="41" y="614"/>
      <point x="71" y="614" type="curve" smooth="yes"/>
      <point x="100" y="614"/>
      <point x="124" y="631"/>
      <point x="124" y="653" type="curve" smooth="yes"/>
      <point x="124" y="660"/>
      <point x="121" y="669"/>
      <point x="115" y="676" type="curve" smooth="yes"/>
      <point x="110" y="682"/>
      <point x="110" y="683"/>
      <point x="110" y="686" type="curve" smooth="yes"/>
      <point x="110" y="696"/>
      <point x="132" y="705"/>
      <point x="158" y="705" type="curve" smooth="yes"/>
      <point x="196" y="705"/>
      <point x="210" y="689"/>
      <point x="210" y="648" type="curve" smooth="yes"/>
      <point x="210" y="617" type="line"/>
      <point x="199" y="615"/>
      <point x="192" y="613"/>
      <point x="189" y="613" type="curve"/>
      <point x="110" y="599"/>
      <point x="101" y="596"/>
      <point x="70" y="584" type="curve" smooth="yes"/>
      <point x="23" y="565"/>
      <point x="1" y="540"/>
      <point x="1" y="505" type="curve" smooth="yes"/>
      <point x="1" y="461"/>
      <point x="38" y="435"/>
      <point x="101" y="435" type="curve" smooth="yes"/>
      <point x="150" y="435"/>
      <point x="187" y="447"/>
      <point x="225" y="475" type="curve"/>
      <point x="237" y="450"/>
      <point x="263" y="435"/>
      <point x="294" y="435" type="curve" smooth="yes"/>
      <point x="331" y="435"/>
      <point x="365" y="459"/>
      <point x="365" y="485" type="curve" smooth="yes"/>
      <point x="365" y="490"/>
      <point x="361" y="494"/>
      <point x="356" y="494" type="curve" smooth="yes"/>
      <point x="353" y="494"/>
      <point x="348" y="493"/>
      <point x="343" y="490" type="curve"/>
      <point x="337" y="487"/>
      <point x="336" y="487"/>
      <point x="331" y="487" type="curve" smooth="yes"/>
      <point x="316" y="487"/>
      <point x="313" y="495"/>
      <point x="313" y="529" type="curve" smooth="yes"/>
    </contour>
    <contour>
      <point x="210" y="585" type="line"/>
      <point x="210" y="551" type="line" smooth="yes"/>
      <point x="210" y="505"/>
      <point x="187" y="476"/>
      <point x="152" y="476" type="curve" smooth="yes"/>
      <point x="127" y="476"/>
      <point x="111" y="492"/>
      <point x="111" y="518" type="curve" smooth="yes"/>
      <point x="111" y="549"/>
      <point x="131" y="568"/>
      <point x="176" y="578" type="curve" smooth="yes"/>
    </contour>
    <contour>
      <point x="9" y="293" type="line"/>
      <point x="335" y="293" type="line"/>
      <point x="335" y="353" type="line"/>
      <point x="9" y="353" type="line"/>
    </contour>
  </outline>
</glyph>
<glyph name="guillemotleft" format="1">
  <advance width="500"/>
  <unicode hex="00AB"/>
  <outline>
    <contour>
      <point x="49" y="252" type="line"/>
      <point x="202" y="120" type="line"/>
      <point x="216" y="106"/>
      <point x="224" y="100"/>
      <point x="230" y="100" type="curve" smooth="yes"/>
      <point x="236" y="100"/>
      <point x="243" y="107"/>
      <point x="243" y="112" type="curve" smooth="yes"/>
      <point x="243" y="118"/>
      <point x="236" y="132"/>
      <point x="224" y="152" type="curve" smooth="yes"/>
      <point x="160" y="259" type="line"/>
      <point x="224" y="366" type="line" smooth="yes"/>
      <point x="235" y="385"/>
      <point x="243" y="401"/>
      <point x="243" y="407" type="curve" smooth="yes"/>
      <point x="243" y="412"/>
      <point x="236" y="419"/>
      <point x="231" y="419" type="curve" smooth="yes"/>
      <point x="224" y="419"/>
      <point x="216" y="414"/>
      <point x="202" y="399" type="curve"/>
      <point x="49" y="266" type="line"/>
    </contour>
    <contour>
      <point x="248" y="252" type="line"/>
      <point x="401" y="120" type="line"/>
      <point x="415" y="106"/>
      <point x="423" y="100"/>
      <point x="429" y="100" type="curve" smooth="yes"/>
      <point x="435" y="100"/>
      <point x="442" y="107"/>
      <point x="442" y="112" type="curve" smooth="yes"/>
      <point x="442" y="118"/>
      <point x="435" y="132"/>
      <point x="423" y="152" type="curve" smooth="yes"/>
      <point x="359" y="259" type="line"/>
      <point x="423" y="366" type="line" smooth="yes"/>
      <point x="434" y="385"/>
      <point x="442" y="401"/>
      <point x="442" y="407" type="curve" smooth="yes"/>
      <point x="442" y="412"/>
      <point x="435" y="419"/>
      <point x="430" y="419" type="curve" smooth="yes"/>
      <point x="423" y="419"/>
      <point x="415" y="414"/>
      <point x="401" y="399" type="curve"/>
      <point x="248" y="266" type="line"/>
    </contour>
  </outline>
</glyph>
<glyph name="registered" format="1">
  <advance width="747"/>
  <unicode hex="00AE"/>
  <outline>
    <contour>
      <point x="330" y="340" type="line"/>
      <point x="356" y="340" type="line" smooth="yes"/>
      <point x="398" y="340"/>
      <point x="409" y="329"/>
      <point x="412" y="281" type="curve"/>
      <point x="416" y="246"/>
      <point x="418" y="224"/>
      <point x="420" y="215" type="curve" smooth="yes"/>
      <point x="429" y="173"/>
      <point x="461" y="149"/>
      <point x="509" y="149" type="curve" smooth="yes"/>
      <point x="567" y="149"/>
      <point x="603" y="184"/>
      <point x="603" y="239" type="curve" smooth="yes"/>
      <point x="603" y="251" type="line"/>
      <point x="566" y="251" type="line"/>
      <point x="567" y="217"/>
      <point x="560" y="201"/>
      <point x="546" y="201" type="curve" smooth="yes"/>
      <point x="535" y="201"/>
      <point x="532" y="206"/>
      <point x="528" y="230" type="curve"/>
      <point x="528" y="232"/>
      <point x="527" y="238"/>
      <point x="526" y="245" type="curve" smooth="yes"/>
      <point x="523" y="265" type="line" smooth="yes"/>
      <point x="515" y="309"/>
      <point x="496" y="335"/>
      <point x="459" y="350" type="curve"/>
      <point x="490" y="357"/>
      <point x="503" y="363"/>
      <point x="518" y="374" type="curve" smooth="yes"/>
      <point x="541" y="392"/>
      <point x="554" y="418"/>
      <point x="554" y="447" type="curve" smooth="yes"/>
      <point x="554" y="480"/>
      <point x="537" y="510"/>
      <point x="509" y="528" type="curve" smooth="yes"/>
      <point x="488" y="542"/>
      <point x="454" y="548"/>
      <point x="403" y="548" type="curve" smooth="yes"/>
      <point x="171" y="548" type="line"/>
      <point x="171" y="511" type="line"/>
      <point x="183" y="511" type="line" smooth="yes"/>
      <point x="209" y="511"/>
      <point x="220" y="509"/>
      <point x="224" y="505" type="curve"/>
      <point x="227" y="501"/>
      <point x="227" y="500"/>
      <point x="227" y="467" type="curve" smooth="yes"/>
      <point x="227" y="237" type="line" smooth="yes"/>
      <point x="227" y="203"/>
      <point x="227" y="203"/>
      <point x="224" y="200" type="curve" smooth="yes"/>
      <point x="220" y="196"/>
      <point x="209" y="194"/>
      <point x="183" y="194" type="curve" smooth="yes"/>
      <point x="171" y="194" type="line"/>
      <point x="171" y="157" type="line"/>
      <point x="392" y="157" type="line"/>
      <point x="392" y="194" type="line"/>
      <point x="374" y="194" type="line" smooth="yes"/>
      <point x="348" y="194"/>
      <point x="337" y="196"/>
      <point x="333" y="200" type="curve" smooth="yes"/>
      <point x="330" y="203"/>
      <point x="330" y="205"/>
      <point x="330" y="237" type="curve" smooth="yes"/>
    </contour>
    <contour>
      <point x="330" y="377" type="line"/>
      <point x="330" y="481" type="line" smooth="yes"/>
      <point x="330" y="509"/>
      <point x="332" y="511"/>
      <point x="364" y="511" type="curve" smooth="yes"/>
      <point x="377" y="511" type="line" smooth="yes"/>
      <point x="424" y="511"/>
      <point x="444" y="492"/>
      <point x="444" y="444" type="curve" smooth="yes"/>
      <point x="444" y="393"/>
      <point x="423" y="377"/>
      <point x="355" y="377" type="curve" smooth="yes"/>
    </contour>
    <contour>
      <point x="373" y="721" type="curve" smooth="yes"/>
      <point x="170" y="721"/>
      <point x="5" y="556"/>
      <point x="5" y="353" type="curve" smooth="yes"/>
      <point x="5" y="152"/>
      <point x="170" y="-15"/>
      <point x="369" y="-15" type="curve" smooth="yes"/>
      <point x="577" y="-15"/>
      <point x="741" y="148"/>
      <point x="741" y="354" type="curve" smooth="yes"/>
      <point x="741" y="556"/>
      <point x="576" y="721"/>
    </contour>
    <contour>
      <point x="374" y="669" type="curve" smooth="yes"/>
      <point x="542" y="669"/>
      <point x="679" y="528"/>
      <point x="679" y="356" type="curve" smooth="yes"/>
      <point x="679" y="181"/>
      <point x="542" y="42"/>
      <point x="370" y="42" type="curve" smooth="yes"/>
      <point x="206" y="42"/>
      <point x="68" y="185"/>
      <point x="68" y="355" type="curve" smooth="yes"/>
      <point x="68" y="528"/>
      <point x="205" y="669"/>
    </contour>
  </outline>
</glyph>
<glyph name="macron" format="1">
  <advance width="333"/>
  <unicode hex="00AF"/>
  <outline>
    <contour>
      <point x="-5" y="663" type="line"/>
      <point x="-5" y="583" type="line"/>
      <point x="339" y="583" type="line"/>
      <point x="339" y="663" type="line"/>
    </contour>
  </outline>
</glyph>
<glyph name="plusminus" format="1">
  <advance width="606"/>
  <unicode hex="00B1"/>
  <outline>
    <contour>
      <point x="246" y="300" type="line"/>
      <point x="246" y="158" type="line"/>
      <point x="361" y="158" type="line"/>
      <point x="361" y="300" type="line"/>
      <point x="555" y="300" type="line"/>
      <point x="555" y="415" type="line"/>
      <point x="361" y="415" type="line"/>
      <point x="361" y="610" type="line"/>
      <point x="246" y="610" type="line"/>
      <point x="246" y="415" type="line"/>
      <point x="51" y="415" type="line"/>
      <point x="51" y="300" type="line"/>
    </contour>
    <contour>
      <point x="51" y="0" type="line"/>
      <point x="555" y="0" type="line"/>
      <point x="555" y="115" type="line"/>
      <point x="51" y="115" type="line"/>
    </contour>
  </outline>
</glyph>
<glyph name="acute" format="1">
  <advance width="333"/>
  <unicode hex="00B4"/>
  <outline>
    <contour>
      <point x="84" y="545" type="line"/>
      <point x="148" y="545" type="line"/>
      <point x="295" y="632" type="line" smooth="yes"/>
      <point x="319" y="646"/>
      <point x="331" y="663"/>
      <point x="331" y="684" type="curve" smooth="yes"/>
      <point x="331" y="712"/>
      <point x="306" y="734"/>
      <point x="274" y="734" type="curve" smooth="yes"/>
      <point x="244" y="734"/>
      <point x="232" y="726"/>
      <point x="197" y="683" type="curve" smooth="yes"/>
    </contour>
  </outline>
</glyph>
<glyph name="paragraph" format="1">
  <advance width="747"/>
  <unicode hex="00B6"/>
  <outline>
    <contour>
      <point x="254" y="-3" type="line" smooth="yes"/>
      <point x="254" y="-68"/>
      <point x="254" y="-68"/>
      <point x="248" y="-76" type="curve"/>
      <point x="240" y="-85"/>
      <point x="214" y="-90"/>
      <point x="179" y="-90" type="curve" smooth="yes"/>
      <point x="155" y="-90" type="line"/>
      <point x="155" y="-144" type="line"/>
      <point x="713" y="-144" type="line"/>
      <point x="713" y="-90" type="line"/>
      <point x="693" y="-90" type="line" smooth="yes"/>
      <point x="668" y="-90"/>
      <point x="641" y="-83"/>
      <point x="635" y="-76" type="curve" smooth="yes"/>
      <point x="628" y="-68"/>
      <point x="628" y="-68"/>
      <point x="628" y="-3" type="curve" smooth="yes"/>
      <point x="628" y="581" type="line"/>
      <point x="628" y="620" type="line" smooth="yes"/>
      <point x="628" y="643"/>
      <point x="631" y="652"/>
      <point x="640" y="658" type="curve" smooth="yes"/>
      <point x="647" y="663"/>
      <point x="673" y="667"/>
      <point x="693" y="667" type="curve" smooth="yes"/>
      <point x="713" y="667" type="line"/>
      <point x="713" y="722" type="line"/>
      <point x="268" y="722" type="line" smooth="yes"/>
      <point x="199" y="722"/>
      <point x="160" y="714"/>
      <point x="121" y="691" type="curve" smooth="yes"/>
      <point x="67" y="659"/>
      <point x="35" y="596"/>
      <point x="35" y="521" type="curve" smooth="yes"/>
      <point x="35" y="403"/>
      <point x="120" y="324"/>
      <point x="245" y="324" type="curve"/>
      <point x="245" y="324"/>
      <point x="246" y="324"/>
      <point x="254" y="325" type="curve"/>
    </contour>
    <contour>
      <point x="476" y="667" type="line"/>
      <point x="476" y="-89" type="line"/>
      <point x="406" y="-89" type="line"/>
      <point x="406" y="667" type="line"/>
    </contour>
  </outline>
</glyph>
<glyph name="periodcentered" format="1">
  <advance width="278"/>
  <unicode hex="00B7"/>
  <outline>
    <contour>
      <point x="140" y="348" type="curve" smooth="yes"/>
      <point x="88" y="348"/>
      <point x="46" y="306"/>
      <point x="46" y="254" type="curve" smooth="yes"/>
      <point x="46" y="203"/>
      <point x="88" y="160"/>
      <point x="139" y="160" type="curve" smooth="yes"/>
      <point x="192" y="160"/>
      <point x="234" y="202"/>
      <point x="234" y="254" type="curve" smooth="yes"/>
      <point x="234" y="306"/>
      <point x="192" y="348"/>
    </contour>
  </outline>
</glyph>
<glyph name="cedilla" format="1">
  <advance width="333"/>
  <unicode hex="00B8"/>
  <outline>
    <contour>
      <point x="111" y="0" type="line"/>
      <point x="64" y="-98" type="line"/>
      <point x="83" y="-108" type="line"/>
      <point x="92" y="-103"/>
      <point x="98" y="-102"/>
      <point x="106" y="-102" type="curve" smooth="yes"/>
      <point x="131" y="-102"/>
      <point x="147" y="-115"/>
      <point x="147" y="-136" type="curve" smooth="yes"/>
      <point x="147" y="-160"/>
      <point x="128" y="-175"/>
      <point x="98" y="-175" type="curve" smooth="yes"/>
      <point x="79" y="-175"/>
      <point x="63" y="-171"/>
      <point x="35" y="-158" type="curve"/>
      <point x="17" y="-203" type="line"/>
      <point x="48" y="-216"/>
      <point x="77" y="-222"/>
      <point x="112" y="-222" type="curve" smooth="yes"/>
      <point x="194" y="-222"/>
      <point x="251" y="-185"/>
      <point x="251" y="-132" type="curve" smooth="yes"/>
      <point x="251" y="-88"/>
      <point x="215" y="-56"/>
      <point x="168" y="-56" type="curve" smooth="yes"/>
      <point x="157" y="-56"/>
      <point x="148" y="-57"/>
      <point x="127" y="-61" type="curve"/>
      <point x="156" y="0" type="line"/>
    </contour>
  </outline>
</glyph>
<glyph name="ordmasculine" format="1">
  <advance width="367"/>
  <unicode hex="00BA"/>
  <outline>
    <contour>
      <point x="181" y="737" type="curve" smooth="yes"/>
      <point x="78" y="737"/>
      <point x="1" y="672"/>
      <point x="1" y="585" type="curve" smooth="yes"/>
      <point x="1" y="498"/>
      <point x="76" y="435"/>
      <point x="179" y="435" type="curve" smooth="yes"/>
      <point x="281" y="435"/>
      <point x="357" y="499"/>
      <point x="357" y="584" type="curve" smooth="yes"/>
      <point x="357" y="669"/>
      <point x="279" y="737"/>
    </contour>
    <contour>
      <point x="180" y="705" type="curve" smooth="yes"/>
      <point x="224" y="705"/>
      <point x="247" y="664"/>
      <point x="247" y="584" type="curve" smooth="yes"/>
      <point x="247" y="509"/>
      <point x="222" y="467"/>
      <point x="178" y="467" type="curve" smooth="yes"/>
      <point x="134" y="467"/>
      <point x="111" y="508"/>
      <point x="111" y="586" type="curve" smooth="yes"/>
      <point x="111" y="664"/>
      <point x="135" y="705"/>
    </contour>
    <contour>
      <point x="16" y="293" type="line"/>
      <point x="342" y="293" type="line"/>
      <point x="342" y="353" type="line"/>
      <point x="16" y="353" type="line"/>
    </contour>
  </outline>
</glyph>
<glyph name="guillemotright" format="1">
  <advance width="500"/>
  <unicode hex="00BB"/>
  <outline>
    <contour>
      <point x="251" y="266" type="line"/>
      <point x="97" y="399" type="line"/>
      <point x="83" y="413"/>
      <point x="75" y="419"/>
      <point x="69" y="419" type="curve" smooth="yes"/>
      <point x="63" y="419"/>
      <point x="56" y="412"/>
      <point x="56" y="407" type="curve" smooth="yes"/>
      <point x="56" y="401"/>
      <point x="63" y="385"/>
      <point x="75" y="366" type="curve" smooth="yes"/>
      <point x="139" y="259" type="line"/>
      <point x="75" y="152" type="line" smooth="yes"/>
      <point x="63" y="133"/>
      <point x="56" y="118"/>
      <point x="56" y="112" type="curve" smooth="yes"/>
      <point x="56" y="107"/>
      <point x="63" y="100"/>
      <point x="68" y="100" type="curve" smooth="yes"/>
      <point x="75" y="100"/>
      <point x="82" y="105"/>
      <point x="97" y="120" type="curve"/>
      <point x="251" y="252" type="line"/>
    </contour>
    <contour>
      <point x="451" y="266" type="line"/>
      <point x="297" y="399" type="line"/>
      <point x="283" y="413"/>
      <point x="275" y="419"/>
      <point x="269" y="419" type="curve" smooth="yes"/>
      <point x="263" y="419"/>
      <point x="256" y="412"/>
      <point x="256" y="407" type="curve" smooth="yes"/>
      <point x="256" y="401"/>
      <point x="263" y="385"/>
      <point x="275" y="366" type="curve" smooth="yes"/>
      <point x="339" y="259" type="line"/>
      <point x="275" y="152" type="line" smooth="yes"/>
      <point x="263" y="133"/>
      <point x="256" y="118"/>
      <point x="256" y="112" type="curve" smooth="yes"/>
      <point x="256" y="107"/>
      <point x="263" y="100"/>
      <point x="268" y="100" type="curve" smooth="yes"/>
      <point x="275" y="100"/>
      <point x="282" y="105"/>
      <point x="297" y="120" type="curve"/>
      <point x="451" y="252" type="line"/>
    </contour>
  </outline>
</glyph>
<glyph name="onequarter" format="1">
  <advance width="861"/>
  <unicode hex="00BC"/>
  <outline>
    <contour>
      <point x="598" y="722" type="line"/>
      <point x="178" y="0" type="line"/>
      <point x="258" y="0" type="line"/>
      <point x="677" y="722" type="line"/>
    </contour>
    <contour>
      <point x="756" y="154" type="line"/>
      <point x="756" y="331" type="line" smooth="yes"/>
      <point x="756" y="346"/>
      <point x="757" y="373"/>
      <point x="760" y="424" type="curve"/>
      <point x="712" y="424" type="line"/>
      <point x="483" y="156" type="line"/>
      <point x="483" y="107" type="line"/>
      <point x="653" y="107" type="line"/>
      <point x="653" y="88" type="line" smooth="yes"/>
      <point x="653" y="53"/>
      <point x="653" y="50"/>
      <point x="649" y="46" type="curve"/>
      <point x="645" y="41"/>
      <point x="631" y="39"/>
      <point x="604" y="39" type="curve" smooth="yes"/>
      <point x="594" y="39" type="line"/>
      <point x="594" y="0" type="line"/>
      <point x="815" y="0" type="line"/>
      <point x="815" y="39" type="line"/>
      <point x="804" y="39" type="line" smooth="yes"/>
      <point x="779" y="39"/>
      <point x="764" y="41"/>
      <point x="760" y="46" type="curve"/>
      <point x="756" y="50"/>
      <point x="756" y="52"/>
      <point x="756" y="88" type="curve" smooth="yes"/>
      <point x="756" y="107" type="line"/>
      <point x="822" y="107" type="line"/>
      <point x="822" y="154" type="line"/>
    </contour>
    <contour>
      <point x="653" y="154" type="line"/>
      <point x="540" y="154" type="line"/>
      <point x="653" y="288" type="line"/>
    </contour>
    <contour>
      <point x="226" y="708" type="line"/>
      <point x="200" y="708" type="line"/>
      <point x="161" y="679"/>
      <point x="118" y="669"/>
      <point x="40" y="668" type="curve"/>
      <point x="40" y="628" type="line"/>
      <point x="70" y="628" type="line" smooth="yes"/>
      <point x="123" y="627"/>
      <point x="123" y="627"/>
      <point x="123" y="582" type="curve" smooth="yes"/>
      <point x="123" y="373" type="line" smooth="yes"/>
      <point x="123" y="337"/>
      <point x="123" y="334"/>
      <point x="119" y="330" type="curve"/>
      <point x="115" y="325"/>
      <point x="101" y="323"/>
      <point x="70" y="323" type="curve" smooth="yes"/>
      <point x="39" y="323" type="line"/>
      <point x="39" y="284" type="line"/>
      <point x="304" y="284" type="line"/>
      <point x="304" y="323" type="line"/>
      <point x="280" y="323" type="line" smooth="yes"/>
      <point x="248" y="323"/>
      <point x="234" y="325"/>
      <point x="230" y="330" type="curve"/>
      <point x="226" y="334"/>
      <point x="226" y="336"/>
      <point x="226" y="373" type="curve" smooth="yes"/>
    </contour>
  </outline>
</glyph>
<glyph name="onehalf" format="1">
  <advance width="861"/>
  <unicode hex="00BD"/>
  <outline>
    <contour>
      <point x="593" y="722" type="line"/>
      <point x="173" y="0" type="line"/>
      <point x="252" y="0" type="line"/>
      <point x="672" y="722" type="line"/>
    </contour>
    <contour>
      <point x="226" y="708" type="line"/>
      <point x="200" y="708" type="line"/>
      <point x="161" y="679"/>
      <point x="118" y="669"/>
      <point x="40" y="668" type="curve"/>
      <point x="40" y="628" type="line"/>
      <point x="70" y="628" type="line" smooth="yes"/>
      <point x="123" y="627"/>
      <point x="123" y="627"/>
      <point x="123" y="582" type="curve" smooth="yes"/>
      <point x="123" y="373" type="line" smooth="yes"/>
      <point x="123" y="337"/>
      <point x="123" y="334"/>
      <point x="119" y="330" type="curve"/>
      <point x="115" y="325"/>
      <point x="101" y="323"/>
      <point x="70" y="323" type="curve" smooth="yes"/>
      <point x="39" y="323" type="line"/>
      <point x="39" y="284" type="line"/>
      <point x="304" y="284" type="line"/>
      <point x="304" y="323" type="line"/>
      <point x="280" y="323" type="line" smooth="yes"/>
      <point x="248" y="323"/>
      <point x="234" y="325"/>
      <point x="230" y="330" type="curve"/>
      <point x="226" y="334"/>
      <point x="226" y="336"/>
      <point x="226" y="373" type="curve" smooth="yes"/>
    </contour>
    <contour>
      <point x="499" y="-2" type="line"/>
      <point x="517" y="-1"/>
      <point x="526" y="0"/>
      <point x="535" y="0" type="curve" smooth="yes"/>
      <point x="775" y="0" type="line" smooth="yes"/>
      <point x="788" y="0"/>
      <point x="796" y="-1"/>
      <point x="816" y="-2" type="curve"/>
      <point x="832" y="164" type="line"/>
      <point x="791" y="164" type="line"/>
      <point x="784" y="132" type="line"/>
      <point x="775" y="99"/>
      <point x="774" y="97"/>
      <point x="757" y="96" type="curve" smooth="yes"/>
      <point x="725" y="95" type="line"/>
      <point x="610" y="95" type="line"/>
      <point x="628" y="109"/>
      <point x="645" y="121"/>
      <point x="665" y="133" type="curve" smooth="yes"/>
      <point x="724" y="169"/>
      <point x="725" y="170"/>
      <point x="746" y="184" type="curve" smooth="yes"/>
      <point x="800" y="222"/>
      <point x="826" y="263"/>
      <point x="826" y="310" type="curve" smooth="yes"/>
      <point x="826" y="375"/>
      <point x="758" y="425"/>
      <point x="668" y="425" type="curve" smooth="yes"/>
      <point x="581" y="425"/>
      <point x="513" y="371"/>
      <point x="513" y="302" type="curve" smooth="yes"/>
      <point x="513" y="259"/>
      <point x="539" y="231"/>
      <point x="578" y="231" type="curve" smooth="yes"/>
      <point x="612" y="231"/>
      <point x="635" y="252"/>
      <point x="635" y="283" type="curve" smooth="yes"/>
      <point x="635" y="310"/>
      <point x="621" y="327"/>
      <point x="589" y="339" type="curve" smooth="yes"/>
      <point x="584" y="341"/>
      <point x="581" y="343"/>
      <point x="581" y="347" type="curve" smooth="yes"/>
      <point x="581" y="364"/>
      <point x="615" y="383"/>
      <point x="644" y="383" type="curve" smooth="yes"/>
      <point x="687" y="383"/>
      <point x="711" y="359"/>
      <point x="711" y="317" type="curve" smooth="yes"/>
      <point x="711" y="269"/>
      <point x="692" y="236"/>
      <point x="625" y="170" type="curve" smooth="yes"/>
      <point x="558" y="102"/>
      <point x="532" y="74"/>
      <point x="499" y="30" type="curve"/>
    </contour>
  </outline>
</glyph>
<glyph name="threequarters" format="1">
  <advance width="861"/>
  <unicode hex="00BE"/>
  <outline>
    <contour>
      <point x="621" y="722" type="line"/>
      <point x="202" y="0" type="line"/>
      <point x="281" y="0" type="line"/>
      <point x="701" y="722" type="line"/>
    </contour>
    <contour>
      <point x="756" y="154" type="line"/>
      <point x="756" y="331" type="line" smooth="yes"/>
      <point x="756" y="346"/>
      <point x="757" y="373"/>
      <point x="760" y="424" type="curve"/>
      <point x="712" y="424" type="line"/>
      <point x="483" y="156" type="line"/>
      <point x="483" y="107" type="line"/>
      <point x="653" y="107" type="line"/>
      <point x="653" y="88" type="line" smooth="yes"/>
      <point x="653" y="53"/>
      <point x="653" y="50"/>
      <point x="649" y="46" type="curve"/>
      <point x="645" y="41"/>
      <point x="631" y="39"/>
      <point x="604" y="39" type="curve" smooth="yes"/>
      <point x="594" y="39" type="line"/>
      <point x="594" y="0" type="line"/>
      <point x="815" y="0" type="line"/>
      <point x="815" y="39" type="line"/>
      <point x="804" y="39" type="line" smooth="yes"/>
      <point x="779" y="39"/>
      <point x="764" y="41"/>
      <point x="760" y="46" type="curve"/>
      <point x="756" y="50"/>
      <point x="756" y="52"/>
      <point x="756" y="88" type="curve" smooth="yes"/>
      <point x="756" y="107" type="line"/>
      <point x="822" y="107" type="line"/>
      <point x="822" y="154" type="line"/>
    </contour>
    <contour>
      <point x="653" y="154" type="line"/>
      <point x="540" y="154" type="line"/>
      <point x="653" y="288" type="line"/>
    </contour>
    <contour>
      <point x="236" y="505" type="curve"/>
      <point x="251" y="511"/>
      <point x="252" y="511"/>
      <point x="256" y="513" type="curve"/>
      <point x="301" y="531"/>
      <point x="324" y="560"/>
      <point x="324" y="600" type="curve" smooth="yes"/>
      <point x="324" y="665"/>
      <point x="262" y="708"/>
      <point x="171" y="708" type="curve" smooth="yes"/>
      <point x="87" y="708"/>
      <point x="24" y="665"/>
      <point x="24" y="607" type="curve" smooth="yes"/>
      <point x="24" y="575"/>
      <point x="50" y="550"/>
      <point x="84" y="550" type="curve" smooth="yes"/>
      <point x="116" y="550"/>
      <point x="138" y="571"/>
      <point x="138" y="601" type="curve" smooth="yes"/>
      <point x="138" y="614"/>
      <point x="133" y="626"/>
      <point x="124" y="636" type="curve" smooth="yes"/>
      <point x="111" y="650"/>
      <point x="111" y="650"/>
      <point x="111" y="652" type="curve" smooth="yes"/>
      <point x="111" y="661"/>
      <point x="135" y="671"/>
      <point x="155" y="671" type="curve" smooth="yes"/>
      <point x="192" y="671"/>
      <point x="214" y="645"/>
      <point x="214" y="600" type="curve" smooth="yes"/>
      <point x="214" y="550"/>
      <point x="198" y="520"/>
      <point x="170" y="520" type="curve" smooth="yes"/>
      <point x="164" y="520"/>
      <point x="157" y="521"/>
      <point x="147" y="524" type="curve"/>
      <point x="132" y="527"/>
      <point x="128" y="528"/>
      <point x="120" y="528" type="curve" smooth="yes"/>
      <point x="104" y="528"/>
      <point x="94" y="519"/>
      <point x="94" y="505" type="curve" smooth="yes"/>
      <point x="94" y="490"/>
      <point x="105" y="479"/>
      <point x="121" y="479" type="curve" smooth="yes"/>
      <point x="124" y="479"/>
      <point x="131" y="480"/>
      <point x="141" y="481" type="curve" smooth="yes"/>
      <point x="160" y="483"/>
      <point x="160" y="483"/>
      <point x="164" y="483" type="curve" smooth="yes"/>
      <point x="202" y="483"/>
      <point x="221" y="456"/>
      <point x="221" y="403" type="curve" smooth="yes"/>
      <point x="221" y="345"/>
      <point x="195" y="312"/>
      <point x="148" y="312" type="curve" smooth="yes"/>
      <point x="124" y="312"/>
      <point x="95" y="324"/>
      <point x="95" y="333" type="curve" smooth="yes"/>
      <point x="95" y="336"/>
      <point x="97" y="339"/>
      <point x="100" y="342" type="curve"/>
      <point x="121" y="359"/>
      <point x="126" y="368"/>
      <point x="126" y="386" type="curve" smooth="yes"/>
      <point x="126" y="415"/>
      <point x="101" y="438"/>
      <point x="68" y="438" type="curve" smooth="yes"/>
      <point x="33" y="438"/>
      <point x="8" y="414"/>
      <point x="8" y="378" type="curve" smooth="yes"/>
      <point x="8" y="317"/>
      <point x="72" y="275"/>
      <point x="165" y="275" type="curve" smooth="yes"/>
      <point x="270" y="275"/>
      <point x="336" y="323"/>
      <point x="336" y="401" type="curve" smooth="yes"/>
      <point x="336" y="428"/>
      <point x="326" y="454"/>
      <point x="309" y="473" type="curve" smooth="yes"/>
      <point x="295" y="488"/>
      <point x="275" y="497"/>
    </contour>
  </outline>
</glyph>
<glyph name="questiondown" format="1">
  <advance width="500"/>
  <unicode hex="00BF"/>
  <outline>
    <contour>
      <point x="245" y="306" type="line"/>
      <point x="242" y="236"/>
      <point x="233" y="219"/>
      <point x="171" y="171" type="curve" smooth="yes"/>
      <point x="94" y="112"/>
      <point x="85" y="105"/>
      <point x="78" y="99" type="curve" smooth="yes"/>
      <point x="43" y="69"/>
      <point x="23" y="23"/>
      <point x="23" y="-25" type="curve" smooth="yes"/>
      <point x="23" y="-134"/>
      <point x="111" y="-203"/>
      <point x="251" y="-203" type="curve" smooth="yes"/>
      <point x="383" y="-203"/>
      <point x="476" y="-139"/>
      <point x="476" y="-47" type="curve" smooth="yes"/>
      <point x="476" y="7"/>
      <point x="436" y="46"/>
      <point x="382" y="46" type="curve" smooth="yes"/>
      <point x="331" y="46"/>
      <point x="295" y="13"/>
      <point x="295" y="-35" type="curve" smooth="yes"/>
      <point x="295" y="-61"/>
      <point x="306" y="-83"/>
      <point x="327" y="-99" type="curve" smooth="yes"/>
      <point x="345" y="-113"/>
      <point x="346" y="-114"/>
      <point x="346" y="-121" type="curve" smooth="yes"/>
      <point x="346" y="-135"/>
      <point x="324" y="-146"/>
      <point x="293" y="-146" type="curve" smooth="yes"/>
      <point x="233" y="-146"/>
      <point x="199" y="-106"/>
      <point x="199" y="-36" type="curve" smooth="yes"/>
      <point x="199" y="5"/>
      <point x="214" y="56"/>
      <point x="239" y="101" type="curve" smooth="yes"/>
      <point x="294" y="199"/>
      <point x="302" y="219"/>
      <point x="302" y="264" type="curve" smooth="yes"/>
      <point x="302" y="274"/>
      <point x="301" y="290"/>
      <point x="299" y="306" type="curve"/>
    </contour>
    <contour>
      <point x="271" y="549" type="curve" smooth="yes"/>
      <point x="218" y="549"/>
      <point x="176" y="507"/>
      <point x="176" y="455" type="curve" smooth="yes"/>
      <point x="176" y="403"/>
      <point x="218" y="361"/>
      <point x="270" y="361" type="curve" smooth="yes"/>
      <point x="322" y="361"/>
      <point x="364" y="403"/>
      <point x="364" y="455" type="curve" smooth="yes"/>
      <point x="364" y="506"/>
      <point x="322" y="549"/>
    </contour>
  </outline>
</glyph>
<glyph name="Atilde" format="1">
  <advance width="759"/>
  <unicode hex="00C3"/>
  <outline>
    <contour>
      <point x="351" y="737" type="line"/>
      <point x="124" y="207" type="line" smooth="yes"/>
      <point x="78" y="99"/>
      <point x="41" y="60"/>
      <point x="-18" y="54" type="curve"/>
      <point x="-18" y="0" type="line"/>
      <point x="271" y="0" type="line"/>
      <point x="271" y="54" type="line"/>
      <point x="199" y="58"/>
      <point x="171" y="77"/>
      <point x="171" y="123" type="curve" smooth="yes"/>
      <point x="171" y="140"/>
      <point x="174" y="151"/>
      <point x="187" y="180" type="curve" smooth="yes"/>
      <point x="203" y="218" type="line"/>
      <point x="452" y="218" type="line"/>
      <point x="490" y="120" type="line" smooth="yes"/>
      <point x="498" y="102"/>
      <point x="502" y="87"/>
      <point x="502" y="79" type="curve" smooth="yes"/>
      <point x="502" y="61"/>
      <point x="489" y="55"/>
      <point x="444" y="55" type="curve"/>
      <point x="427" y="54" type="line"/>
      <point x="427" y="0" type="line"/>
      <point x="778" y="0" type="line"/>
      <point x="778" y="54" type="line"/>
      <point x="721" y="56"/>
      <point x="705" y="66"/>
      <point x="684" y="117" type="curve" smooth="yes"/>
      <point x="427" y="737" type="line"/>
    </contour>
    <contour>
      <point x="330" y="524" type="line"/>
      <point x="427" y="285" type="line"/>
      <point x="229" y="285" type="line"/>
    </contour>
    <contour>
      <point x="535" y="932" type="line"/>
      <point x="521" y="894"/>
      <point x="510" y="882"/>
      <point x="489" y="882" type="curve" smooth="yes"/>
      <point x="474" y="882"/>
      <point x="452" y="890"/>
      <point x="418" y="906" type="curve" smooth="yes"/>
      <point x="366" y="931"/>
      <point x="349" y="936"/>
      <point x="322" y="936" type="curve" smooth="yes"/>
      <point x="265" y="936"/>
      <point x="215" y="880"/>
      <point x="203" y="801" type="curve"/>
      <point x="253" y="801" type="line"/>
      <point x="262" y="833"/>
      <point x="278" y="851"/>
      <point x="297" y="851" type="curve" smooth="yes"/>
      <point x="310" y="851"/>
      <point x="334" y="843"/>
      <point x="357" y="830" type="curve" smooth="yes"/>
      <point x="410" y="802"/>
      <point x="425" y="797"/>
      <point x="458" y="797" type="curve" smooth="yes"/>
      <point x="497" y="797"/>
      <point x="523" y="811"/>
      <point x="550" y="847" type="curve" smooth="yes"/>
      <point x="571" y="874"/>
      <point x="580" y="898"/>
      <point x="584" y="932" type="curve"/>
    </contour>
  </outline>
</glyph>
<glyph name="Aring" format="1">
  <advance width="759"/>
  <unicode hex="00C5"/>
  <outline>
    <contour>
      <point x="351" y="737" type="line"/>
      <point x="124" y="207" type="line" smooth="yes"/>
      <point x="78" y="99"/>
      <point x="41" y="60"/>
      <point x="-18" y="54" type="curve"/>
      <point x="-18" y="0" type="line"/>
      <point x="271" y="0" type="line"/>
      <point x="271" y="54" type="line"/>
      <point x="199" y="58"/>
      <point x="171" y="77"/>
      <point x="171" y="123" type="curve" smooth="yes"/>
      <point x="171" y="140"/>
      <point x="174" y="151"/>
      <point x="187" y="180" type="curve" smooth="yes"/>
      <point x="203" y="218" type="line"/>
      <point x="452" y="218" type="line"/>
      <point x="490" y="120" type="line" smooth="yes"/>
      <point x="498" y="102"/>
      <point x="502" y="87"/>
      <point x="502" y="79" type="curve" smooth="yes"/>
      <point x="502" y="61"/>
      <point x="489" y="55"/>
      <point x="444" y="55" type="curve"/>
      <point x="427" y="54" type="line"/>
      <point x="427" y="0" type="line"/>
      <point x="778" y="0" type="line"/>
      <point x="778" y="54" type="line"/>
      <point x="721" y="56"/>
      <point x="705" y="66"/>
      <point x="684" y="117" type="curve" smooth="yes"/>
      <point x="427" y="737" type="line"/>
    </contour>
    <contour>
      <point x="330" y="524" type="line"/>
      <point x="427" y="285" type="line"/>
      <point x="229" y="285" type="line"/>
    </contour>
    <contour>
      <point x="387" y="990" type="curve" smooth="yes"/>
      <point x="328" y="990"/>
      <point x="279" y="941"/>
      <point x="279" y="883" type="curve" smooth="yes"/>
      <point x="279" y="824"/>
      <point x="328" y="775"/>
      <point x="385" y="775" type="curve" smooth="yes"/>
      <point x="446" y="775"/>
      <point x="494" y="823"/>
      <point x="494" y="883" type="curve" smooth="yes"/>
      <point x="494" y="942"/>
      <point x="446" y="990"/>
    </contour>
    <contour>
      <point x="387" y="938" type="curve" smooth="yes"/>
      <point x="415" y="938"/>
      <point x="439" y="913"/>
      <point x="439" y="883" type="curve" smooth="yes"/>
      <point x="439" y="852"/>
      <point x="415" y="827"/>
      <point x="386" y="827" type="curve" smooth="yes"/>
      <point x="358" y="827"/>
      <point x="334" y="853"/>
      <point x="334" y="882" type="curve" smooth="yes"/>
      <point x="334" y="913"/>
      <point x="358" y="938"/>
    </contour>
  </outline>
</glyph>
<glyph name="AE" format="1">
  <advance width="981"/>
  <unicode hex="00C6"/>
  <outline>
    <contour>
      <point x="946" y="722" type="line"/>
      <point x="180" y="722" type="line"/>
      <point x="180" y="668" type="line"/>
      <point x="200" y="668" type="line" smooth="yes"/>
      <point x="257" y="668"/>
      <point x="288" y="649"/>
      <point x="288" y="614" type="curve" smooth="yes"/>
      <point x="288" y="598"/>
      <point x="282" y="579"/>
      <point x="270" y="554" type="curve" smooth="yes"/>
      <point x="73" y="163" type="line" smooth="yes"/>
      <point x="34" y="86"/>
      <point x="12" y="62"/>
      <point x="-29" y="54" type="curve"/>
      <point x="-29" y="0" type="line"/>
      <point x="223" y="0" type="line"/>
      <point x="223" y="54" type="line"/>
      <point x="205" y="54" type="line" smooth="yes"/>
      <point x="158" y="54"/>
      <point x="129" y="71"/>
      <point x="129" y="98" type="curve" smooth="yes"/>
      <point x="129" y="113"/>
      <point x="137" y="140"/>
      <point x="151" y="167" type="curve" smooth="yes"/>
      <point x="200" y="264" type="line"/>
      <point x="415" y="264" type="line"/>
      <point x="415" y="144" type="line" smooth="yes"/>
      <point x="415" y="80"/>
      <point x="415" y="77"/>
      <point x="408" y="69" type="curve" smooth="yes"/>
      <point x="399" y="58"/>
      <point x="377" y="54"/>
      <point x="324" y="54" type="curve" smooth="yes"/>
      <point x="313" y="54" type="line"/>
      <point x="313" y="0" type="line"/>
      <point x="952" y="0" type="line"/>
      <point x="963" y="269" type="line"/>
      <point x="910" y="269" type="line"/>
      <point x="891" y="201"/>
      <point x="873" y="163"/>
      <point x="845" y="129" type="curve" smooth="yes"/>
      <point x="803" y="79"/>
      <point x="751" y="54"/>
      <point x="688" y="54" type="curve" smooth="yes"/>
      <point x="671" y="54" type="line" smooth="yes"/>
      <point x="609" y="54"/>
      <point x="595" y="67"/>
      <point x="595" y="124" type="curve" smooth="yes"/>
      <point x="595" y="347" type="line"/>
      <point x="605" y="347" type="line" smooth="yes"/>
      <point x="684" y="347"/>
      <point x="732" y="297"/>
      <point x="743" y="204" type="curve"/>
      <point x="797" y="204" type="line"/>
      <point x="797" y="543" type="line"/>
      <point x="743" y="543" type="line"/>
      <point x="732" y="451"/>
      <point x="684" y="401"/>
      <point x="605" y="401" type="curve" smooth="yes"/>
      <point x="595" y="401" type="line"/>
      <point x="595" y="582" type="line" smooth="yes"/>
      <point x="595" y="623"/>
      <point x="597" y="634"/>
      <point x="605" y="646" type="curve" smooth="yes"/>
      <point x="615" y="660"/>
      <point x="638" y="668"/>
      <point x="666" y="668" type="curve" smooth="yes"/>
      <point x="687" y="668" type="line" smooth="yes"/>
      <point x="748" y="668"/>
      <point x="810" y="638"/>
      <point x="842" y="594" type="curve" smooth="yes"/>
      <point x="864" y="564"/>
      <point x="885" y="515"/>
      <point x="900" y="462" type="curve"/>
      <point x="952" y="462" type="line"/>
    </contour>
    <contour>
      <point x="415" y="319" type="line"/>
      <point x="227" y="319" type="line"/>
      <point x="387" y="645" type="line" smooth="yes"/>
      <point x="397" y="666"/>
      <point x="399" y="668"/>
      <point x="405" y="668" type="curve" smooth="yes"/>
      <point x="413" y="668"/>
      <point x="415" y="663"/>
      <point x="415" y="647" type="curve" smooth="yes"/>
    </contour>
  </outline>
</glyph>
<glyph name="Ccedilla" format="1">
  <advance width="778"/>
  <unicode hex="00C7"/>
  <outline>
    <contour>
      <point x="422" y="-15" type="line"/>
      <point x="590" y="-9"/>
      <point x="689" y="79"/>
      <point x="723" y="250" type="curve"/>
      <point x="661" y="265" type="line"/>
      <point x="635" y="127"/>
      <point x="554" y="48"/>
      <point x="439" y="48" type="curve" smooth="yes"/>
      <point x="303" y="48"/>
      <point x="239" y="151"/>
      <point x="239" y="371" type="curve" smooth="yes"/>
      <point x="239" y="577"/>
      <point x="303" y="685"/>
      <point x="426" y="685" type="curve" smooth="yes"/>
      <point x="537" y="685"/>
      <point x="610" y="608"/>
      <point x="655" y="441" type="curve"/>
      <point x="708" y="447" type="line"/>
      <point x="698" y="733" type="line"/>
      <point x="655" y="733" type="line"/>
      <point x="601" y="684" type="line"/>
      <point x="535" y="724"/>
      <point x="489" y="737"/>
      <point x="418" y="737" type="curve" smooth="yes"/>
      <point x="306" y="737"/>
      <point x="213" y="699"/>
      <point x="141" y="622" type="curve" smooth="yes"/>
      <point x="73" y="550"/>
      <point x="40" y="461"/>
      <point x="40" y="352" type="curve" smooth="yes"/>
      <point x="40" y="231"/>
      <point x="84" y="133"/>
      <point x="172" y="60" type="curve" smooth="yes"/>
      <point x="227" y="14"/>
      <point x="286" y="-8"/>
      <point x="378" y="-14" type="curve"/>
      <point x="337" y="-100" type="line"/>
      <point x="355" y="-110" type="line"/>
      <point x="365" y="-105"/>
      <point x="370" y="-104"/>
      <point x="379" y="-104" type="curve" smooth="yes"/>
      <point x="404" y="-104"/>
      <point x="420" y="-117"/>
      <point x="420" y="-138" type="curve" smooth="yes"/>
      <point x="420" y="-162"/>
      <point x="401" y="-177"/>
      <point x="371" y="-177" type="curve" smooth="yes"/>
      <point x="351" y="-177"/>
      <point x="336" y="-173"/>
      <point x="307" y="-160" type="curve"/>
      <point x="290" y="-205" type="line"/>
      <point x="321" y="-218"/>
      <point x="350" y="-224"/>
      <point x="385" y="-224" type="curve" smooth="yes"/>
      <point x="467" y="-224"/>
      <point x="524" y="-187"/>
      <point x="524" y="-134" type="curve" smooth="yes"/>
      <point x="524" y="-90"/>
      <point x="488" y="-58"/>
      <point x="441" y="-58" type="curve" smooth="yes"/>
      <point x="430" y="-58"/>
      <point x="421" y="-59"/>
      <point x="400" y="-63" type="curve"/>
    </contour>
  </outline>
</glyph>
<glyph name="Igrave" format="1">
  <advance width="444"/>
  <unicode hex="00CC"/>
  <outline>
    <contour>
      <point x="132" y="144" type="line" smooth="yes"/>
      <point x="132" y="81"/>
      <point x="132" y="77"/>
      <point x="125" y="69" type="curve" smooth="yes"/>
      <point x="116" y="58"/>
      <point x="95" y="54"/>
      <point x="43" y="54" type="curve" smooth="yes"/>
      <point x="28" y="54" type="line"/>
      <point x="28" y="0" type="line"/>
      <point x="417" y="0" type="line"/>
      <point x="417" y="54" type="line"/>
      <point x="402" y="54" type="line" smooth="yes"/>
      <point x="350" y="54"/>
      <point x="328" y="58"/>
      <point x="319" y="69" type="curve" smooth="yes"/>
      <point x="312" y="77"/>
      <point x="312" y="80"/>
      <point x="312" y="144" type="curve" smooth="yes"/>
      <point x="312" y="578" type="line" smooth="yes"/>
      <point x="312" y="642"/>
      <point x="312" y="645"/>
      <point x="319" y="653" type="curve" smooth="yes"/>
      <point x="328" y="664"/>
      <point x="350" y="668"/>
      <point x="402" y="668" type="curve" smooth="yes"/>
      <point x="417" y="668" type="line"/>
      <point x="417" y="722" type="line"/>
      <point x="28" y="722" type="line"/>
      <point x="28" y="668" type="line"/>
      <point x="43" y="668" type="line" smooth="yes"/>
      <point x="95" y="668"/>
      <point x="116" y="664"/>
      <point x="125" y="653" type="curve" smooth="yes"/>
      <point x="132" y="645"/>
      <point x="132" y="641"/>
      <point x="132" y="578" type="curve" smooth="yes"/>
    </contour>
    <contour>
      <point x="298" y="790" type="line"/>
      <point x="185" y="928" type="line" smooth="yes"/>
      <point x="162" y="957"/>
      <point x="162" y="957"/>
      <point x="156" y="961" type="curve"/>
      <point x="141" y="973"/>
      <point x="125" y="979"/>
      <point x="108" y="979" type="curve" smooth="yes"/>
      <point x="76" y="979"/>
      <point x="51" y="957"/>
      <point x="51" y="929" type="curve" smooth="yes"/>
      <point x="51" y="909"/>
      <point x="63" y="891"/>
      <point x="87" y="877" type="curve" smooth="yes"/>
      <point x="234" y="790" type="line"/>
    </contour>
  </outline>
</glyph>
<glyph name="Iacute" format="1">
  <advance width="444"/>
  <unicode hex="00CD"/>
  <outline>
    <contour>
      <point x="132" y="144" type="line" smooth="yes"/>
      <point x="132" y="81"/>
      <point x="132" y="77"/>
      <point x="125" y="69" type="curve" smooth="yes"/>
      <point x="116" y="58"/>
      <point x="95" y="54"/>
      <point x="43" y="54" type="curve" smooth="yes"/>
      <point x="28" y="54" type="line"/>
      <point x="28" y="0" type="line"/>
      <point x="417" y="0" type="line"/>
      <point x="417" y="54" type="line"/>
      <point x="402" y="54" type="line" smooth="yes"/>
      <point x="350" y="54"/>
      <point x="328" y="58"/>
      <point x="319" y="69" type="curve" smooth="yes"/>
      <point x="312" y="77"/>
      <point x="312" y="80"/>
      <point x="312" y="144" type="curve" smooth="yes"/>
      <point x="312" y="578" type="line" smooth="yes"/>
      <point x="312" y="642"/>
      <point x="312" y="645"/>
      <point x="319" y="653" type="curve" smooth="yes"/>
      <point x="328" y="664"/>
      <point x="350" y="668"/>
      <point x="402" y="668" type="curve" smooth="yes"/>
      <point x="417" y="668" type="line"/>
      <point x="417" y="722" type="line"/>
      <point x="28" y="722" type="line"/>
      <point x="28" y="668" type="line"/>
      <point x="43" y="668" type="line" smooth="yes"/>
      <point x="95" y="668"/>
      <point x="116" y="664"/>
      <point x="125" y="653" type="curve" smooth="yes"/>
      <point x="132" y="645"/>
      <point x="132" y="641"/>
      <point x="132" y="578" type="curve" smooth="yes"/>
    </contour>
    <contour>
      <point x="140" y="790" type="line"/>
      <point x="204" y="790" type="line"/>
      <point x="351" y="877" type="line" smooth="yes"/>
      <point x="375" y="891"/>
      <point x="387" y="908"/>
      <point x="387" y="929" type="curve" smooth="yes"/>
      <point x="387" y="957"/>
      <point x="362" y="979"/>
      <point x="330" y="979" type="curve" smooth="yes"/>
      <point x="300" y="979"/>
      <point x="288" y="971"/>
      <point x="253" y="928" type="curve" smooth="yes"/>
    </contour>
  </outline>
</glyph>
<glyph name="Icircumflex" format="1">
  <advance width="444"/>
  <unicode hex="00CE"/>
  <outline>
    <contour>
      <point x="132" y="144" type="line" smooth="yes"/>
      <point x="132" y="81"/>
      <point x="132" y="77"/>
      <point x="125" y="69" type="curve" smooth="yes"/>
      <point x="116" y="58"/>
      <point x="95" y="54"/>
      <point x="43" y="54" type="curve" smooth="yes"/>
      <point x="28" y="54" type="line"/>
      <point x="28" y="0" type="line"/>
      <point x="417" y="0" type="line"/>
      <point x="417" y="54" type="line"/>
      <point x="402" y="54" type="line" smooth="yes"/>
      <point x="350" y="54"/>
      <point x="328" y="58"/>
      <point x="319" y="69" type="curve" smooth="yes"/>
      <point x="312" y="77"/>
      <point x="312" y="80"/>
      <point x="312" y="144" type="curve" smooth="yes"/>
      <point x="312" y="578" type="line" smooth="yes"/>
      <point x="312" y="642"/>
      <point x="312" y="645"/>
      <point x="319" y="653" type="curve" smooth="yes"/>
      <point x="328" y="664"/>
      <point x="350" y="668"/>
      <point x="402" y="668" type="curve" smooth="yes"/>
      <point x="417" y="668" type="line"/>
      <point x="417" y="722" type="line"/>
      <point x="28" y="722" type="line"/>
      <point x="28" y="668" type="line"/>
      <point x="43" y="668" type="line" smooth="yes"/>
      <point x="95" y="668"/>
      <point x="116" y="664"/>
      <point x="125" y="653" type="curve" smooth="yes"/>
      <point x="132" y="645"/>
      <point x="132" y="641"/>
      <point x="132" y="578" type="curve" smooth="yes"/>
    </contour>
    <contour>
      <point x="48" y="790" type="line"/>
      <point x="115" y="790" type="line"/>
      <point x="224" y="883" type="line"/>
      <point x="332" y="790" type="line"/>
      <point x="399" y="790" type="line"/>
      <point x="278" y="968" type="line"/>
      <point x="169" y="968" type="line"/>
    </contour>
  </outline>
</glyph>
